{"glyphs":{"0":{"ha":855,"x_min":93,"x_max":762,"o":"m 427 1003 q 677 870 593 1003 q 762 493 762 736 q 677 114 762 248 q 427 -19 593 -19 q 177 114 262 -19 q 93 493 93 248 q 177 870 93 736 q 427 1003 262 1003 m 427 881 q 297 791 343 881 q 251 493 251 701 q 270 256 251 341 l 548 823 q 497 868 527 854 q 427 881 467 881 m 603 493 q 588 710 603 629 l 314 150 q 427 103 353 103 q 558 192 513 103 q 603 493 603 282 z "},"1":{"ha":855,"x_min":115,"x_max":755,"o":"m 755 125 l 755 0 l 160 0 l 160 125 l 400 125 l 400 819 l 184 686 l 115 798 l 417 983 l 558 983 l 558 125 l 755 125 z "},"2":{"ha":855,"x_min":73,"x_max":723,"o":"m 387 1003 q 557 965 487 1003 q 663 865 627 928 q 700 725 700 802 q 678 599 700 660 q 606 469 655 537 q 475 318 556 401 q 276 128 394 235 l 723 128 l 704 0 l 93 0 l 93 121 q 312 338 226 249 q 446 491 397 427 q 515 609 495 556 q 535 715 535 661 q 493 832 535 789 q 376 875 451 875 q 265 850 310 875 q 177 772 221 826 l 73 851 q 206 964 131 925 q 387 1003 281 1003 z "},"3":{"ha":855,"x_min":56,"x_max":730,"o":"m 385 1003 q 553 969 482 1003 q 661 878 623 934 q 699 754 699 822 q 643 603 699 663 q 504 523 587 542 q 616 489 565 516 q 699 410 668 461 q 730 281 730 358 q 686 129 730 197 q 562 21 642 61 q 374 -19 482 -19 q 198 15 281 -19 q 56 118 114 49 l 153 204 q 251 131 195 155 q 367 108 307 108 q 511 155 458 108 q 565 286 565 202 q 512 420 565 382 q 375 458 459 458 l 291 458 l 309 575 l 369 575 q 490 614 438 575 q 541 731 541 652 q 493 841 541 802 q 372 880 444 880 q 262 857 310 880 q 168 791 214 834 l 83 882 q 224 973 148 943 q 385 1003 299 1003 z "},"4":{"ha":855,"x_min":88,"x_max":766,"o":"m 650 613 l 650 350 l 766 350 l 766 226 l 650 226 l 650 0 l 496 0 l 496 226 l 88 226 l 88 338 l 370 1003 l 505 949 l 254 350 l 496 350 l 516 613 l 650 613 z "},"5":{"ha":855,"x_min":89,"x_max":743,"o":"m 709 983 l 688 863 l 311 863 l 311 590 q 392 620 353 612 q 472 628 432 628 q 611 591 550 628 q 708 484 672 554 q 743 316 743 415 q 699 141 743 217 q 576 23 655 66 q 390 -19 496 -19 q 220 15 294 -19 q 89 110 145 50 l 184 199 q 384 108 266 108 q 525 162 474 108 q 577 316 577 217 q 531 468 577 425 q 417 511 486 511 q 347 502 380 511 q 276 478 315 494 l 158 478 l 158 983 l 709 983 z "},"6":{"ha":855,"x_min":97,"x_max":764,"o":"m 486 1003 q 596 987 546 1003 q 688 943 646 971 l 626 840 q 486 882 563 882 q 325 788 385 882 q 260 531 266 694 q 364 620 306 593 q 486 647 421 647 q 625 612 562 647 q 726 507 688 577 q 764 332 764 437 q 721 147 764 226 q 605 25 679 68 q 439 -19 532 -19 q 240 42 316 -19 q 131 211 165 103 q 97 457 97 318 q 144 744 97 621 q 277 935 190 867 q 486 1003 364 1003 m 452 528 q 345 496 394 528 q 261 413 296 465 q 305 178 264 254 q 439 102 346 102 q 562 163 521 102 q 602 325 602 225 q 561 483 602 438 q 452 528 521 528 z "},"7":{"ha":855,"x_min":123,"x_max":734,"o":"m 346 -17 l 196 29 l 573 858 l 123 858 l 123 983 l 734 983 l 734 868 l 346 -17 z "},"8":{"ha":855,"x_min":81,"x_max":774,"o":"m 734 749 q 693 626 734 677 q 571 530 652 575 q 721 420 668 486 q 774 265 774 353 q 732 121 774 186 q 613 19 691 57 q 424 -19 535 -19 q 237 19 313 -19 q 121 120 160 56 q 81 261 81 184 q 133 412 81 349 q 272 514 185 474 q 157 606 194 555 q 120 740 120 658 q 166 886 120 828 q 281 974 211 944 q 428 1003 352 1003 q 578 974 509 1003 q 691 890 648 946 q 734 749 734 833 m 275 739 q 297 661 275 691 q 361 610 319 631 q 463 570 403 590 q 552 645 524 607 q 580 741 580 684 q 541 847 580 807 q 428 887 501 887 q 315 848 355 887 q 275 739 275 810 m 610 264 q 582 360 610 324 q 501 420 554 395 q 375 469 449 444 q 283 394 321 442 q 244 266 244 346 q 290 146 244 191 q 426 102 335 102 q 564 149 517 102 q 610 264 610 196 z "},"9":{"ha":855,"x_min":83,"x_max":752,"o":"m 416 1001 q 668 893 584 1001 q 752 603 752 784 q 720 352 752 457 q 620 174 687 247 q 448 51 553 100 q 199 -35 344 1 l 165 82 q 461 219 358 134 q 583 457 563 304 q 486 381 539 410 q 363 353 432 353 q 219 391 282 353 q 119 499 156 429 q 83 667 83 570 q 127 848 83 773 q 247 962 171 922 q 416 1001 323 1001 m 245 667 q 288 517 245 563 q 402 472 331 472 q 503 498 459 472 q 587 571 547 524 q 547 808 586 736 q 415 880 509 880 q 289 827 333 880 q 245 667 245 774 z "},"A":{"ha":855,"x_min":12,"x_max":843,"o":"m 600 236 l 249 236 l 180 0 l 12 0 l 325 983 l 530 983 l 843 0 l 668 0 l 600 236 m 283 364 l 565 364 l 425 855 l 283 364 z "},"Á":{"ha":855,"x_min":12,"x_max":843,"o":"m 600 236 l 249 236 l 180 0 l 12 0 l 325 983 l 530 983 l 843 0 l 668 0 l 600 236 m 283 364 l 565 364 l 425 855 l 283 364 m 543 1316 l 608 1189 l 291 1074 l 251 1157 l 543 1316 z "},"Ă":{"ha":855,"x_min":12,"x_max":843,"o":"m 600 236 l 249 236 l 180 0 l 12 0 l 325 983 l 530 983 l 843 0 l 668 0 l 600 236 m 283 364 l 565 364 l 425 855 l 283 364 m 426 1077 q 271 1130 330 1077 q 202 1266 212 1183 l 301 1285 q 345 1218 316 1241 q 426 1194 375 1194 q 507 1218 476 1194 q 553 1285 539 1241 l 652 1266 q 582 1130 643 1183 q 426 1077 521 1077 z "},"Â":{"ha":855,"x_min":12,"x_max":843,"o":"m 600 236 l 249 236 l 180 0 l 12 0 l 325 983 l 530 983 l 843 0 l 668 0 l 600 236 m 283 364 l 565 364 l 425 855 l 283 364 m 479 1315 l 674 1149 l 611 1077 l 427 1194 l 245 1077 l 180 1149 l 377 1315 l 479 1315 z "},"Ä":{"ha":855,"x_min":12,"x_max":843,"o":"m 600 236 l 249 236 l 180 0 l 12 0 l 325 983 l 530 983 l 843 0 l 668 0 l 600 236 m 283 364 l 565 364 l 425 855 l 283 364 z "},"À":{"ha":855,"x_min":12,"x_max":843,"o":"m 600 236 l 249 236 l 180 0 l 12 0 l 325 983 l 530 983 l 843 0 l 668 0 l 600 236 m 283 364 l 565 364 l 425 855 l 283 364 m 324 1319 l 604 1157 l 561 1074 l 251 1192 l 324 1319 z "},"Ā":{"ha":855,"x_min":12,"x_max":843,"o":"m 600 236 l 249 236 l 180 0 l 12 0 l 325 983 l 530 983 l 843 0 l 668 0 l 600 236 m 283 364 l 565 364 l 425 855 l 283 364 z "},"Ą":{"ha":855,"x_min":12,"x_max":843,"o":"m 600 236 l 249 236 l 180 0 l 12 0 l 325 983 l 530 983 l 843 0 l 668 0 l 600 236 m 283 364 l 565 364 l 425 855 l 283 364 m 743 55 l 764 0 q 657 -56 694 -29 q 606 -108 620 -83 q 593 -161 593 -134 q 673 -229 593 -229 q 715 -227 696 -229 q 757 -219 734 -224 l 743 -329 q 702 -337 722 -334 q 655 -340 682 -340 q 518 -297 571 -340 q 466 -186 466 -255 q 537 -41 466 -97 q 743 55 609 16 z "},"Å":{"ha":855,"x_min":12,"x_max":843,"o":"m 600 236 l 249 236 l 180 0 l 12 0 l 325 983 l 530 983 l 843 0 l 668 0 l 600 236 m 283 364 l 565 364 l 425 855 l 283 364 z "},"Ã":{"ha":855,"x_min":12,"x_max":843,"o":"m 600 236 l 249 236 l 180 0 l 12 0 l 325 983 l 530 983 l 843 0 l 668 0 l 600 236 m 283 364 l 565 364 l 425 855 l 283 364 z "},"Æ":{"ha":855,"x_min":-17,"x_max":863,"o":"m 461 238 l 204 238 l 146 0 l -17 0 l 256 983 l 806 983 l 788 861 l 481 861 l 543 560 l 793 560 l 793 437 l 566 437 l 631 123 l 863 123 l 863 0 l 506 0 l 461 238 m 234 363 l 438 363 l 345 863 l 234 363 z "},"Ǽ":{"ha":855,"x_min":-17,"x_max":863,"o":"m 461 238 l 204 238 l 146 0 l -17 0 l 256 983 l 806 983 l 788 861 l 481 861 l 543 560 l 793 560 l 793 437 l 566 437 l 631 123 l 863 123 l 863 0 l 506 0 l 461 238 m 234 363 l 438 363 l 345 863 l 234 363 m 624 1316 l 689 1189 l 373 1074 l 332 1157 l 624 1316 z "},"B":{"ha":855,"x_min":115,"x_max":786,"o":"m 786 283 q 754 147 786 202 q 667 59 722 92 q 544 14 612 27 q 403 0 476 0 l 115 0 l 115 983 l 384 983 q 517 971 453 983 q 632 931 581 959 q 713 854 683 902 q 743 734 743 806 q 717 629 743 672 q 650 559 692 585 q 561 521 608 532 q 666 487 615 511 q 752 413 718 462 q 786 283 786 365 m 575 721 q 529 827 575 795 q 399 859 483 859 l 281 859 l 281 575 l 409 575 q 533 609 491 575 q 575 721 575 644 m 613 284 q 588 386 613 350 q 519 438 562 423 q 421 452 475 452 l 281 452 l 281 128 l 414 128 q 507 140 461 128 q 583 185 553 152 q 613 284 613 219 z "},"C":{"ha":855,"x_min":74,"x_max":821,"o":"m 510 1003 q 678 977 610 1003 q 806 902 746 951 l 720 800 q 518 873 632 873 q 382 835 444 873 q 283 715 321 798 q 246 493 246 632 q 281 274 246 357 q 379 152 317 190 q 518 115 440 115 q 649 141 597 115 q 741 199 701 167 l 821 98 q 696 15 771 50 q 512 -19 620 -19 q 288 39 387 -19 q 131 212 189 98 q 74 493 74 326 q 133 772 74 658 q 291 944 192 885 q 510 1003 390 1003 z "},"Ć":{"ha":855,"x_min":74,"x_max":821,"o":"m 510 1003 q 678 977 610 1003 q 806 902 746 951 l 720 800 q 518 873 632 873 q 382 835 444 873 q 283 715 321 798 q 246 493 246 632 q 281 274 246 357 q 379 152 317 190 q 518 115 440 115 q 649 141 597 115 q 741 199 701 167 l 821 98 q 696 15 771 50 q 512 -19 620 -19 q 288 39 387 -19 q 131 212 189 98 q 74 493 74 326 q 133 772 74 658 q 291 944 192 885 q 510 1003 390 1003 m 633 1316 l 699 1189 l 382 1074 l 341 1157 l 633 1316 z "},"Č":{"ha":855,"x_min":74,"x_max":821,"o":"m 510 1003 q 678 977 610 1003 q 806 902 746 951 l 720 800 q 518 873 632 873 q 382 835 444 873 q 283 715 321 798 q 246 493 246 632 q 281 274 246 357 q 379 152 317 190 q 518 115 440 115 q 649 141 597 115 q 741 199 701 167 l 821 98 q 696 15 771 50 q 512 -19 620 -19 q 288 39 387 -19 q 131 212 189 98 q 74 493 74 326 q 133 772 74 658 q 291 944 192 885 q 510 1003 390 1003 m 702 1311 l 765 1239 l 571 1073 l 468 1073 l 271 1239 l 336 1311 l 519 1194 l 702 1311 z "},"Ç":{"ha":855,"x_min":74,"x_max":821,"o":"m 510 1003 q 678 977 610 1003 q 806 902 746 951 l 720 800 q 518 873 632 873 q 382 835 444 873 q 283 715 321 798 q 246 493 246 632 q 281 274 246 357 q 379 152 317 190 q 518 115 440 115 q 649 141 597 115 q 741 199 701 167 l 821 98 q 696 15 771 50 q 512 -19 620 -19 q 288 39 387 -19 q 131 212 189 98 q 74 493 74 326 q 133 772 74 658 q 291 944 192 885 q 510 1003 390 1003 z "},"Ĉ":{"ha":855,"x_min":74,"x_max":821,"o":"m 510 1003 q 678 977 610 1003 q 806 902 746 951 l 720 800 q 518 873 632 873 q 382 835 444 873 q 283 715 321 798 q 246 493 246 632 q 281 274 246 357 q 379 152 317 190 q 518 115 440 115 q 649 141 597 115 q 741 199 701 167 l 821 98 q 696 15 771 50 q 512 -19 620 -19 q 288 39 387 -19 q 131 212 189 98 q 74 493 74 326 q 133 772 74 658 q 291 944 192 885 q 510 1003 390 1003 m 571 1315 l 765 1149 l 702 1077 l 519 1194 l 336 1077 l 271 1149 l 468 1315 l 571 1315 z "},"Ċ":{"ha":855,"x_min":74,"x_max":821,"o":"m 510 1003 q 678 977 610 1003 q 806 902 746 951 l 720 800 q 518 873 632 873 q 382 835 444 873 q 283 715 321 798 q 246 493 246 632 q 281 274 246 357 q 379 152 317 190 q 518 115 440 115 q 649 141 597 115 q 741 199 701 167 l 821 98 q 696 15 771 50 q 512 -19 620 -19 q 288 39 387 -19 q 131 212 189 98 q 74 493 74 326 q 133 772 74 658 q 291 944 192 885 q 510 1003 390 1003 z "},"D":{"ha":855,"x_min":102,"x_max":799,"o":"m 799 496 q 759 246 799 344 q 653 95 719 149 q 506 21 587 42 q 343 0 425 0 l 102 0 l 102 983 l 326 983 q 500 964 416 983 q 652 893 585 944 q 759 745 719 841 q 799 496 799 650 m 625 496 q 602 685 625 614 q 541 793 579 756 q 454 843 502 830 q 358 856 407 856 l 267 856 l 267 125 l 358 125 q 457 142 410 125 q 543 199 505 158 q 603 312 581 239 q 625 496 625 384 z "},"Ð":{"ha":855,"x_min":23,"x_max":814,"o":"m 814 496 q 775 246 814 344 q 668 95 735 149 q 521 21 602 42 q 358 0 440 0 l 118 0 l 118 447 l 23 447 l 23 559 l 118 559 l 118 983 l 342 983 q 515 964 431 983 q 667 893 600 944 q 775 745 735 841 q 814 496 814 650 m 487 559 l 487 447 l 283 447 l 283 125 l 374 125 q 473 142 425 125 q 558 199 521 158 q 619 312 596 239 q 641 496 641 384 q 618 685 641 614 q 556 793 595 756 q 470 843 517 830 q 373 856 422 856 l 283 856 l 283 559 l 487 559 z "},"Ď":{"ha":855,"x_min":102,"x_max":799,"o":"m 799 496 q 759 246 799 344 q 653 95 719 149 q 506 21 587 42 q 343 0 425 0 l 102 0 l 102 983 l 326 983 q 500 964 416 983 q 652 893 585 944 q 759 745 719 841 q 799 496 799 650 m 625 496 q 602 685 625 614 q 541 793 579 756 q 454 843 502 830 q 358 856 407 856 l 267 856 l 267 125 l 358 125 q 457 142 410 125 q 543 199 505 158 q 603 312 581 239 q 625 496 625 384 m 590 1311 l 652 1239 l 458 1073 l 355 1073 l 159 1239 l 224 1311 l 406 1194 l 590 1311 z "},"Đ":{"ha":855,"x_min":23,"x_max":814,"o":"m 814 496 q 775 246 814 344 q 668 95 735 149 q 521 21 602 42 q 358 0 440 0 l 118 0 l 118 447 l 23 447 l 23 559 l 118 559 l 118 983 l 342 983 q 515 964 431 983 q 667 893 600 944 q 775 745 735 841 q 814 496 814 650 m 487 559 l 487 447 l 283 447 l 283 125 l 374 125 q 473 142 425 125 q 558 199 521 158 q 619 312 596 239 q 641 496 641 384 q 618 685 641 614 q 556 793 595 756 q 470 843 517 830 q 373 856 422 856 l 283 856 l 283 559 l 487 559 z "},"E":{"ha":855,"x_min":161,"x_max":760,"o":"m 326 858 l 326 562 l 682 562 l 682 437 l 326 437 l 326 125 l 760 125 l 760 0 l 161 0 l 161 983 l 752 983 l 734 858 l 326 858 z "},"É":{"ha":855,"x_min":161,"x_max":760,"o":"m 326 858 l 326 562 l 682 562 l 682 437 l 326 437 l 326 125 l 760 125 l 760 0 l 161 0 l 161 983 l 752 983 l 734 858 l 326 858 m 572 1316 l 637 1189 l 321 1074 l 280 1157 l 572 1316 z "},"Ĕ":{"ha":855,"x_min":161,"x_max":760,"o":"m 326 858 l 326 562 l 682 562 l 682 437 l 326 437 l 326 125 l 760 125 l 760 0 l 161 0 l 161 983 l 752 983 l 734 858 l 326 858 m 455 1077 q 300 1130 360 1077 q 231 1266 241 1183 l 330 1285 q 375 1218 345 1241 q 455 1194 405 1194 q 537 1218 505 1194 q 583 1285 568 1241 l 681 1266 q 611 1130 672 1183 q 455 1077 551 1077 z "},"Ě":{"ha":855,"x_min":161,"x_max":760,"o":"m 326 858 l 326 562 l 682 562 l 682 437 l 326 437 l 326 125 l 760 125 l 760 0 l 161 0 l 161 983 l 752 983 l 734 858 l 326 858 m 640 1311 l 703 1239 l 509 1073 l 406 1073 l 209 1239 l 274 1311 l 457 1194 l 640 1311 z "},"Ê":{"ha":855,"x_min":161,"x_max":760,"o":"m 326 858 l 326 562 l 682 562 l 682 437 l 326 437 l 326 125 l 760 125 l 760 0 l 161 0 l 161 983 l 752 983 l 734 858 l 326 858 m 509 1315 l 703 1149 l 640 1077 l 457 1194 l 274 1077 l 209 1149 l 406 1315 l 509 1315 z "},"Ë":{"ha":855,"x_min":161,"x_max":760,"o":"m 326 858 l 326 562 l 682 562 l 682 437 l 326 437 l 326 125 l 760 125 l 760 0 l 161 0 l 161 983 l 752 983 l 734 858 l 326 858 z "},"Ė":{"ha":855,"x_min":161,"x_max":760,"o":"m 326 858 l 326 562 l 682 562 l 682 437 l 326 437 l 326 125 l 760 125 l 760 0 l 161 0 l 161 983 l 752 983 l 734 858 l 326 858 z "},"È":{"ha":855,"x_min":161,"x_max":760,"o":"m 326 858 l 326 562 l 682 562 l 682 437 l 326 437 l 326 125 l 760 125 l 760 0 l 161 0 l 161 983 l 752 983 l 734 858 l 326 858 m 353 1319 l 633 1157 l 590 1074 l 280 1192 l 353 1319 z "},"Ē":{"ha":855,"x_min":161,"x_max":760,"o":"m 326 858 l 326 562 l 682 562 l 682 437 l 326 437 l 326 125 l 760 125 l 760 0 l 161 0 l 161 983 l 752 983 l 734 858 l 326 858 z "},"Ę":{"ha":855,"x_min":161,"x_max":760,"o":"m 326 858 l 326 562 l 682 562 l 682 437 l 326 437 l 326 125 l 760 125 l 760 0 l 161 0 l 161 983 l 752 983 l 734 858 l 326 858 m 645 55 l 666 0 q 558 -56 595 -29 q 508 -108 521 -83 q 494 -161 494 -134 q 575 -229 494 -229 q 616 -227 598 -229 q 659 -219 635 -224 l 645 -329 q 604 -337 624 -334 q 557 -340 583 -340 q 420 -297 472 -340 q 368 -186 368 -255 q 439 -41 368 -97 q 645 55 511 16 z "},"F":{"ha":855,"x_min":181,"x_max":786,"o":"m 346 858 l 346 545 l 716 545 l 716 420 l 346 420 l 346 0 l 181 0 l 181 983 l 786 983 l 767 858 l 346 858 z "},"G":{"ha":855,"x_min":53,"x_max":783,"o":"m 453 -19 q 159 110 265 -19 q 53 493 53 239 q 112 775 53 661 q 269 946 172 888 q 481 1003 367 1003 q 649 973 582 1003 q 774 890 717 943 l 682 793 q 590 854 637 834 q 486 874 543 874 q 358 837 417 874 q 262 717 298 801 q 226 492 226 633 q 285 198 226 286 q 461 110 344 110 q 623 151 548 110 l 623 422 l 457 422 l 439 548 l 783 548 l 783 71 q 635 6 714 31 q 453 -19 556 -19 z "},"Ğ":{"ha":855,"x_min":53,"x_max":783,"o":"m 453 -19 q 159 110 265 -19 q 53 493 53 239 q 112 775 53 661 q 269 946 172 888 q 481 1003 367 1003 q 649 973 582 1003 q 774 890 717 943 l 682 793 q 590 854 637 834 q 486 874 543 874 q 358 837 417 874 q 262 717 298 801 q 226 492 226 633 q 285 198 226 286 q 461 110 344 110 q 623 151 548 110 l 623 422 l 457 422 l 439 548 l 783 548 l 783 71 q 635 6 714 31 q 453 -19 556 -19 m 469 1077 q 314 1130 373 1077 q 245 1266 254 1183 l 343 1285 q 388 1218 358 1241 q 469 1194 418 1194 q 550 1218 519 1194 q 596 1285 582 1241 l 694 1266 q 625 1130 686 1183 q 469 1077 564 1077 z "},"Ĝ":{"ha":855,"x_min":53,"x_max":783,"o":"m 453 -19 q 159 110 265 -19 q 53 493 53 239 q 112 775 53 661 q 269 946 172 888 q 481 1003 367 1003 q 649 973 582 1003 q 774 890 717 943 l 682 793 q 590 854 637 834 q 486 874 543 874 q 358 837 417 874 q 262 717 298 801 q 226 492 226 633 q 285 198 226 286 q 461 110 344 110 q 623 151 548 110 l 623 422 l 457 422 l 439 548 l 783 548 l 783 71 q 635 6 714 31 q 453 -19 556 -19 m 522 1315 l 717 1149 l 654 1077 l 470 1194 l 288 1077 l 223 1149 l 420 1315 l 522 1315 z "},"Ģ":{"ha":855,"x_min":53,"x_max":783,"o":"m 453 -19 q 159 110 265 -19 q 53 493 53 239 q 112 775 53 661 q 269 946 172 888 q 481 1003 367 1003 q 649 973 582 1003 q 774 890 717 943 l 682 793 q 590 854 637 834 q 486 874 543 874 q 358 837 417 874 q 262 717 298 801 q 226 492 226 633 q 285 198 226 286 q 461 110 344 110 q 623 151 548 110 l 623 422 l 457 422 l 439 548 l 783 548 l 783 71 q 635 6 714 31 q 453 -19 556 -19 m 472 -98 q 536 -123 510 -98 q 563 -187 563 -148 q 536 -280 563 -224 l 466 -427 l 377 -427 l 418 -261 q 391 -229 402 -248 q 381 -187 381 -210 q 407 -123 381 -149 q 472 -98 434 -98 z "},"Ġ":{"ha":855,"x_min":53,"x_max":783,"o":"m 453 -19 q 159 110 265 -19 q 53 493 53 239 q 112 775 53 661 q 269 946 172 888 q 481 1003 367 1003 q 649 973 582 1003 q 774 890 717 943 l 682 793 q 590 854 637 834 q 486 874 543 874 q 358 837 417 874 q 262 717 298 801 q 226 492 226 633 q 285 198 226 286 q 461 110 344 110 q 623 151 548 110 l 623 422 l 457 422 l 439 548 l 783 548 l 783 71 q 635 6 714 31 q 453 -19 556 -19 z "},"H":{"ha":855,"x_min":102,"x_max":753,"o":"m 588 0 l 588 447 l 267 447 l 267 0 l 102 0 l 102 983 l 267 983 l 267 583 l 588 583 l 588 983 l 753 983 l 753 0 l 588 0 z "},"Ħ":{"ha":855,"x_min":3,"x_max":852,"o":"m 852 828 l 852 720 l 751 720 l 751 0 l 585 0 l 585 449 l 269 449 l 269 0 l 104 0 l 104 720 l 3 720 l 3 828 l 104 828 l 104 983 l 269 983 l 269 828 l 585 828 l 585 983 l 751 983 l 751 828 l 852 828 m 269 581 l 585 581 l 585 720 l 269 720 l 269 581 z "},"Ĥ":{"ha":855,"x_min":102,"x_max":753,"o":"m 588 0 l 588 447 l 267 447 l 267 0 l 102 0 l 102 983 l 267 983 l 267 583 l 588 583 l 588 983 l 753 983 l 753 0 l 588 0 m 479 1315 l 674 1149 l 611 1077 l 427 1194 l 245 1077 l 180 1149 l 377 1315 l 479 1315 z "},"I":{"ha":855,"x_min":132,"x_max":723,"o":"m 723 983 l 723 857 l 511 857 l 511 127 l 723 127 l 723 0 l 132 0 l 132 127 l 344 127 l 344 857 l 132 857 l 132 983 l 723 983 z "},"Ĳ":{"ha":855,"x_min":14,"x_max":771,"o":"m 270 -102 q 483 -38 410 -84 q 582 83 556 9 q 609 259 609 157 l 609 865 l 303 865 l 303 118 l 402 118 l 402 0 l 14 0 l 14 118 l 142 118 l 142 865 l 14 865 l 14 983 l 771 983 l 771 259 q 749 89 771 169 q 672 -53 726 10 q 524 -160 618 -117 q 289 -219 430 -202 l 270 -102 z "},"Í":{"ha":855,"x_min":132,"x_max":723,"o":"m 723 983 l 723 857 l 511 857 l 511 127 l 723 127 l 723 0 l 132 0 l 132 127 l 344 127 l 344 857 l 132 857 l 132 983 l 723 983 m 543 1316 l 608 1189 l 291 1074 l 251 1157 l 543 1316 z "},"Ĭ":{"ha":855,"x_min":132,"x_max":723,"o":"m 723 983 l 723 857 l 511 857 l 511 127 l 723 127 l 723 0 l 132 0 l 132 127 l 344 127 l 344 857 l 132 857 l 132 983 l 723 983 m 426 1077 q 271 1130 330 1077 q 202 1266 212 1183 l 301 1285 q 345 1218 316 1241 q 426 1194 375 1194 q 507 1218 476 1194 q 553 1285 539 1241 l 652 1266 q 582 1130 643 1183 q 426 1077 521 1077 z "},"Î":{"ha":855,"x_min":132,"x_max":723,"o":"m 723 983 l 723 857 l 511 857 l 511 127 l 723 127 l 723 0 l 132 0 l 132 127 l 344 127 l 344 857 l 132 857 l 132 983 l 723 983 m 479 1315 l 674 1149 l 611 1077 l 427 1194 l 245 1077 l 180 1149 l 377 1315 l 479 1315 z "},"Ï":{"ha":855,"x_min":132,"x_max":723,"o":"m 723 983 l 723 857 l 511 857 l 511 127 l 723 127 l 723 0 l 132 0 l 132 127 l 344 127 l 344 857 l 132 857 l 132 983 l 723 983 z "},"İ":{"ha":855,"x_min":132,"x_max":723,"o":"m 723 983 l 723 857 l 511 857 l 511 127 l 723 127 l 723 0 l 132 0 l 132 127 l 344 127 l 344 857 l 132 857 l 132 983 l 723 983 z "},"Ì":{"ha":855,"x_min":132,"x_max":723,"o":"m 723 983 l 723 857 l 511 857 l 511 127 l 723 127 l 723 0 l 132 0 l 132 127 l 344 127 l 344 857 l 132 857 l 132 983 l 723 983 m 324 1319 l 604 1157 l 561 1074 l 251 1192 l 324 1319 z "},"Ī":{"ha":855,"x_min":132,"x_max":723,"o":"m 723 983 l 723 857 l 511 857 l 511 127 l 723 127 l 723 0 l 132 0 l 132 127 l 344 127 l 344 857 l 132 857 l 132 983 l 723 983 z "},"Į":{"ha":855,"x_min":132,"x_max":723,"o":"m 723 983 l 723 857 l 511 857 l 511 127 l 723 127 l 723 0 l 132 0 l 132 127 l 344 127 l 344 857 l 132 857 l 132 983 l 723 983 m 489 55 l 510 0 q 402 -56 439 -29 q 352 -108 365 -83 q 338 -161 338 -134 q 419 -229 338 -229 q 460 -227 442 -229 q 503 -219 479 -224 l 489 -329 q 448 -337 468 -334 q 401 -340 427 -340 q 264 -297 316 -340 q 212 -186 212 -255 q 283 -41 212 -97 q 489 55 355 16 z "},"Ĩ":{"ha":855,"x_min":132,"x_max":723,"o":"m 723 983 l 723 857 l 511 857 l 511 127 l 723 127 l 723 0 l 132 0 l 132 127 l 344 127 l 344 857 l 132 857 l 132 983 l 723 983 z "},"J":{"ha":855,"x_min":85,"x_max":724,"o":"m 724 983 l 724 337 q 687 161 724 242 q 572 31 651 80 q 365 -19 494 -19 q 215 5 284 -19 q 85 72 146 28 l 153 177 q 261 126 212 140 q 359 112 311 112 q 505 171 452 112 q 559 340 559 230 l 559 856 l 264 856 l 264 983 l 724 983 z "},"Ĵ":{"ha":855,"x_min":85,"x_max":746,"o":"m 724 983 l 724 337 q 687 161 724 242 q 572 31 651 80 q 365 -19 494 -19 q 215 5 284 -19 q 85 72 146 28 l 153 177 q 261 126 212 140 q 359 112 311 112 q 505 171 452 112 q 559 340 559 230 l 559 856 l 264 856 l 264 983 l 724 983 m 551 1315 l 746 1149 l 683 1077 l 499 1194 l 317 1077 l 252 1149 l 449 1315 l 551 1315 z "},"K":{"ha":855,"x_min":125,"x_max":848,"o":"m 290 0 l 125 0 l 125 983 l 290 983 l 290 0 m 297 525 l 639 983 l 821 983 l 476 536 l 848 0 l 650 0 l 297 525 z "},"Ķ":{"ha":855,"x_min":125,"x_max":848,"o":"m 290 0 l 125 0 l 125 983 l 290 983 l 290 0 m 297 525 l 639 983 l 821 983 l 476 536 l 848 0 l 650 0 l 297 525 z "},"L":{"ha":855,"x_min":170,"x_max":776,"o":"m 170 0 l 170 983 l 335 983 l 335 138 l 776 138 l 758 0 l 170 0 z "},"Ĺ":{"ha":855,"x_min":76,"x_max":776,"o":"m 170 0 l 170 983 l 335 983 l 335 138 l 776 138 l 758 0 l 170 0 m 368 1316 l 434 1189 l 117 1074 l 76 1157 l 368 1316 z "},"Ľ":{"ha":855,"x_min":170,"x_max":776,"o":"m 170 0 l 170 983 l 335 983 l 335 138 l 776 138 l 758 0 l 170 0 m 461 1002 l 603 985 l 514 702 l 419 717 l 461 1002 z "},"Ļ":{"ha":855,"x_min":170,"x_max":776,"o":"m 170 0 l 170 983 l 335 983 l 335 138 l 776 138 l 758 0 l 170 0 z "},"Ŀ":{"ha":855,"x_min":170,"x_max":776,"o":"m 170 0 l 170 983 l 335 983 l 335 138 l 776 138 l 758 0 l 170 0 m 669 642 q 744 614 715 642 q 774 543 774 585 q 744 471 774 500 q 669 442 715 442 q 593 471 623 442 q 564 543 564 500 q 593 614 564 585 q 669 642 623 642 z "},"Ł":{"ha":855,"x_min":41,"x_max":782,"o":"m 177 0 l 177 361 l 101 314 l 41 411 l 177 495 l 177 983 l 342 983 l 342 598 l 554 729 l 616 634 l 342 464 l 342 138 l 782 138 l 764 0 l 177 0 z "},"M":{"ha":855,"x_min":36,"x_max":818,"o":"m 763 983 l 818 0 l 667 0 l 644 479 q 640 680 639 586 q 643 838 640 774 l 499 173 l 355 173 l 199 838 q 205 678 204 776 q 204 477 207 580 l 184 0 l 36 0 l 92 983 l 290 983 l 430 324 l 564 983 l 763 983 z "},"N":{"ha":855,"x_min":102,"x_max":753,"o":"m 538 0 l 225 836 q 234 745 228 807 q 244 605 239 684 q 249 447 249 526 l 249 0 l 102 0 l 102 983 l 316 983 l 630 146 q 621 234 626 176 q 611 369 615 291 q 606 535 606 447 l 606 983 l 753 983 l 753 0 l 538 0 z "},"Ń":{"ha":855,"x_min":102,"x_max":753,"o":"m 538 0 l 225 836 q 234 745 228 807 q 244 605 239 684 q 249 447 249 526 l 249 0 l 102 0 l 102 983 l 316 983 l 630 146 q 621 234 626 176 q 611 369 615 291 q 606 535 606 447 l 606 983 l 753 983 l 753 0 l 538 0 m 546 1316 l 612 1189 l 295 1074 l 254 1157 l 546 1316 z "},"Ň":{"ha":855,"x_min":102,"x_max":753,"o":"m 538 0 l 225 836 q 234 745 228 807 q 244 605 239 684 q 249 447 249 526 l 249 0 l 102 0 l 102 983 l 316 983 l 630 146 q 621 234 626 176 q 611 369 615 291 q 606 535 606 447 l 606 983 l 753 983 l 753 0 l 538 0 m 615 1311 l 678 1239 l 484 1073 l 381 1073 l 184 1239 l 249 1311 l 432 1194 l 615 1311 z "},"Ņ":{"ha":855,"x_min":102,"x_max":753,"o":"m 538 0 l 225 836 q 234 745 228 807 q 244 605 239 684 q 249 447 249 526 l 249 0 l 102 0 l 102 983 l 316 983 l 630 146 q 621 234 626 176 q 611 369 615 291 q 606 535 606 447 l 606 983 l 753 983 l 753 0 l 538 0 z "},"Ñ":{"ha":855,"x_min":102,"x_max":753,"o":"m 538 0 l 225 836 q 234 745 228 807 q 244 605 239 684 q 249 447 249 526 l 249 0 l 102 0 l 102 983 l 316 983 l 630 146 q 621 234 626 176 q 611 369 615 291 q 606 535 606 447 l 606 983 l 753 983 l 753 0 l 538 0 z "},"Ŋ":{"ha":855,"x_min":102,"x_max":753,"o":"m 538 0 l 225 836 q 234 745 228 807 q 244 605 239 684 q 249 447 249 526 l 249 0 l 102 0 l 102 983 l 316 983 l 630 146 q 621 234 626 176 q 611 369 615 291 q 606 535 606 447 l 606 983 l 753 983 l 753 -69 q 689 -250 753 -189 q 516 -311 626 -311 q 415 -293 457 -311 q 343 -254 374 -276 l 405 -153 q 450 -175 428 -167 q 505 -184 472 -184 q 566 -160 544 -184 q 588 -81 588 -135 l 588 0 l 538 0 z "},"O":{"ha":855,"x_min":53,"x_max":801,"o":"m 801 491 q 759 225 801 340 q 634 45 717 110 q 427 -19 551 -19 q 221 43 304 -19 q 95 221 137 106 q 53 490 53 335 q 95 757 53 642 q 221 938 137 873 q 427 1003 304 1003 q 634 939 551 1003 q 759 761 717 876 q 801 491 801 646 m 630 491 q 583 778 630 682 q 427 874 536 874 q 271 777 318 874 q 224 490 224 681 q 273 205 224 300 q 427 110 321 110 q 583 205 536 110 q 630 491 630 301 z "},"Ó":{"ha":855,"x_min":53,"x_max":801,"o":"m 801 491 q 759 225 801 340 q 634 45 717 110 q 427 -19 551 -19 q 221 43 304 -19 q 95 221 137 106 q 53 490 53 335 q 95 757 53 642 q 221 938 137 873 q 427 1003 304 1003 q 634 939 551 1003 q 759 761 717 876 q 801 491 801 646 m 630 491 q 583 778 630 682 q 427 874 536 874 q 271 777 318 874 q 224 490 224 681 q 273 205 224 300 q 427 110 321 110 q 583 205 536 110 q 630 491 630 301 m 543 1316 l 608 1189 l 291 1074 l 251 1157 l 543 1316 z "},"Ŏ":{"ha":855,"x_min":53,"x_max":801,"o":"m 801 491 q 759 225 801 340 q 634 45 717 110 q 427 -19 551 -19 q 221 43 304 -19 q 95 221 137 106 q 53 490 53 335 q 95 757 53 642 q 221 938 137 873 q 427 1003 304 1003 q 634 939 551 1003 q 759 761 717 876 q 801 491 801 646 m 630 491 q 583 778 630 682 q 427 874 536 874 q 271 777 318 874 q 224 490 224 681 q 273 205 224 300 q 427 110 321 110 q 583 205 536 110 q 630 491 630 301 m 426 1077 q 271 1130 330 1077 q 202 1266 212 1183 l 301 1285 q 345 1218 316 1241 q 426 1194 375 1194 q 507 1218 476 1194 q 553 1285 539 1241 l 652 1266 q 582 1130 643 1183 q 426 1077 521 1077 z "},"Ô":{"ha":855,"x_min":53,"x_max":801,"o":"m 801 491 q 759 225 801 340 q 634 45 717 110 q 427 -19 551 -19 q 221 43 304 -19 q 95 221 137 106 q 53 490 53 335 q 95 757 53 642 q 221 938 137 873 q 427 1003 304 1003 q 634 939 551 1003 q 759 761 717 876 q 801 491 801 646 m 630 491 q 583 778 630 682 q 427 874 536 874 q 271 777 318 874 q 224 490 224 681 q 273 205 224 300 q 427 110 321 110 q 583 205 536 110 q 630 491 630 301 m 479 1315 l 674 1149 l 611 1077 l 427 1194 l 245 1077 l 180 1149 l 377 1315 l 479 1315 z "},"Ö":{"ha":855,"x_min":53,"x_max":801,"o":"m 801 491 q 759 225 801 340 q 634 45 717 110 q 427 -19 551 -19 q 221 43 304 -19 q 95 221 137 106 q 53 490 53 335 q 95 757 53 642 q 221 938 137 873 q 427 1003 304 1003 q 634 939 551 1003 q 759 761 717 876 q 801 491 801 646 m 630 491 q 583 778 630 682 q 427 874 536 874 q 271 777 318 874 q 224 490 224 681 q 273 205 224 300 q 427 110 321 110 q 583 205 536 110 q 630 491 630 301 z "},"Ò":{"ha":855,"x_min":53,"x_max":801,"o":"m 801 491 q 759 225 801 340 q 634 45 717 110 q 427 -19 551 -19 q 221 43 304 -19 q 95 221 137 106 q 53 490 53 335 q 95 757 53 642 q 221 938 137 873 q 427 1003 304 1003 q 634 939 551 1003 q 759 761 717 876 q 801 491 801 646 m 630 491 q 583 778 630 682 q 427 874 536 874 q 271 777 318 874 q 224 490 224 681 q 273 205 224 300 q 427 110 321 110 q 583 205 536 110 q 630 491 630 301 m 324 1319 l 604 1157 l 561 1074 l 251 1192 l 324 1319 z "},"Ő":{"ha":855,"x_min":53,"x_max":801,"o":"m 801 491 q 759 225 801 340 q 634 45 717 110 q 427 -19 551 -19 q 221 43 304 -19 q 95 221 137 106 q 53 490 53 335 q 95 757 53 642 q 221 938 137 873 q 427 1003 304 1003 q 634 939 551 1003 q 759 761 717 876 q 801 491 801 646 m 630 491 q 583 778 630 682 q 427 874 536 874 q 271 777 318 874 q 224 490 224 681 q 273 205 224 300 q 427 110 321 110 q 583 205 536 110 q 630 491 630 301 z "},"Ō":{"ha":855,"x_min":53,"x_max":801,"o":"m 801 491 q 759 225 801 340 q 634 45 717 110 q 427 -19 551 -19 q 221 43 304 -19 q 95 221 137 106 q 53 490 53 335 q 95 757 53 642 q 221 938 137 873 q 427 1003 304 1003 q 634 939 551 1003 q 759 761 717 876 q 801 491 801 646 m 630 491 q 583 778 630 682 q 427 874 536 874 q 271 777 318 874 q 224 490 224 681 q 273 205 224 300 q 427 110 321 110 q 583 205 536 110 q 630 491 630 301 z "},"Ø":{"ha":855,"x_min":53,"x_max":801,"o":"m 427 1003 q 512 994 472 1003 l 556 1144 l 683 1109 l 630 939 q 757 762 714 877 q 801 491 801 647 q 759 225 801 340 q 634 45 717 110 q 427 -19 551 -19 q 343 -11 383 -19 l 299 -156 l 173 -121 l 224 43 q 97 220 141 105 q 53 490 53 335 q 95 757 53 642 q 221 938 137 873 q 427 1003 304 1003 m 427 875 q 270 778 318 875 q 222 490 222 682 q 286 172 222 257 l 488 868 q 427 875 461 875 m 633 491 q 570 812 633 727 l 368 116 q 427 109 395 109 q 585 205 538 109 q 633 491 633 301 z "},"Ǿ":{"ha":855,"x_min":53,"x_max":801,"o":"m 427 1003 q 512 994 472 1003 l 556 1144 l 683 1109 l 630 939 q 757 762 714 877 q 801 491 801 647 q 759 225 801 340 q 634 45 717 110 q 427 -19 551 -19 q 343 -11 383 -19 l 299 -156 l 173 -121 l 224 43 q 97 220 141 105 q 53 490 53 335 q 95 757 53 642 q 221 938 137 873 q 427 1003 304 1003 m 427 875 q 270 778 318 875 q 222 490 222 682 q 286 172 222 257 l 488 868 q 427 875 461 875 m 633 491 q 570 812 633 727 l 368 116 q 427 109 395 109 q 585 205 538 109 q 633 491 633 301 m 543 1316 l 608 1189 l 291 1074 l 251 1157 l 543 1316 z "},"Õ":{"ha":855,"x_min":53,"x_max":801,"o":"m 801 491 q 759 225 801 340 q 634 45 717 110 q 427 -19 551 -19 q 221 43 304 -19 q 95 221 137 106 q 53 490 53 335 q 95 757 53 642 q 221 938 137 873 q 427 1003 304 1003 q 634 939 551 1003 q 759 761 717 876 q 801 491 801 646 m 630 491 q 583 778 630 682 q 427 874 536 874 q 271 777 318 874 q 224 490 224 681 q 273 205 224 300 q 427 110 321 110 q 583 205 536 110 q 630 491 630 301 z "},"Œ":{"ha":855,"x_min":4,"x_max":868,"o":"m 308 1003 q 367 998 340 1003 q 423 983 394 993 l 860 983 l 842 861 l 528 861 q 581 740 561 814 q 606 560 601 666 l 808 560 l 808 437 l 607 437 q 581 249 603 327 q 522 123 559 172 l 868 123 l 868 0 l 418 0 q 366 -14 392 -8 q 308 -19 340 -19 q 78 111 152 -19 q 4 490 4 241 q 78 869 4 735 q 308 1003 152 1003 m 309 879 q 196 789 231 879 q 162 490 162 699 q 198 192 162 281 q 309 103 234 103 q 423 193 388 103 q 459 491 459 282 q 425 791 459 702 q 309 879 390 879 z "},"P":{"ha":855,"x_min":136,"x_max":804,"o":"m 804 675 q 755 488 804 560 q 619 384 706 417 q 420 350 533 350 l 301 350 l 301 0 l 136 0 l 136 983 l 409 983 q 699 907 594 983 q 804 675 804 831 m 630 673 q 573 817 630 774 q 420 859 516 859 l 301 859 l 301 476 l 422 476 q 572 519 514 476 q 630 673 630 562 z "},"Þ":{"ha":855,"x_min":127,"x_max":803,"o":"m 292 983 l 292 820 l 410 820 q 699 743 595 820 q 803 505 803 666 q 755 318 803 390 q 621 211 707 245 q 421 177 536 177 l 292 177 l 292 0 l 127 0 l 127 983 l 292 983 m 421 696 l 292 696 l 292 302 l 425 302 q 573 345 517 302 q 630 503 630 387 q 573 651 630 605 q 421 696 517 696 z "},"Q":{"ha":855,"x_min":58,"x_max":866,"o":"m 800 491 q 755 223 800 339 q 595 45 709 106 q 766 -26 703 25 q 866 -190 829 -78 l 713 -246 q 646 -120 683 -172 q 554 -42 609 -68 q 413 -16 499 -16 q 217 46 296 -16 q 98 222 138 108 q 58 490 58 335 q 99 757 58 642 q 223 938 141 873 q 429 1003 306 1003 q 634 939 552 1003 q 758 761 717 876 q 800 491 800 646 m 628 491 q 583 777 628 682 q 429 873 538 873 q 275 777 320 873 q 229 490 229 680 q 276 205 229 300 q 429 110 323 110 q 583 205 538 110 q 628 491 628 301 z "},"R":{"ha":855,"x_min":121,"x_max":833,"o":"m 778 699 q 714 523 778 590 q 555 428 649 456 l 833 0 l 641 0 l 394 405 l 286 405 l 286 0 l 121 0 l 121 983 l 395 983 q 681 912 584 983 q 778 699 778 841 m 605 699 q 556 822 605 784 q 405 860 506 860 l 286 860 l 286 526 l 408 526 q 554 566 502 526 q 605 699 605 606 z "},"Ŕ":{"ha":855,"x_min":121,"x_max":833,"o":"m 778 699 q 714 523 778 590 q 555 428 649 456 l 833 0 l 641 0 l 394 405 l 286 405 l 286 0 l 121 0 l 121 983 l 395 983 q 681 912 584 983 q 778 699 778 841 m 605 699 q 556 822 605 784 q 405 860 506 860 l 286 860 l 286 526 l 408 526 q 554 566 502 526 q 605 699 605 606 m 543 1316 l 608 1189 l 291 1074 l 251 1157 l 543 1316 z "},"Ř":{"ha":855,"x_min":121,"x_max":833,"o":"m 778 699 q 714 523 778 590 q 555 428 649 456 l 833 0 l 641 0 l 394 405 l 286 405 l 286 0 l 121 0 l 121 983 l 395 983 q 681 912 584 983 q 778 699 778 841 m 605 699 q 556 822 605 784 q 405 860 506 860 l 286 860 l 286 526 l 408 526 q 554 566 502 526 q 605 699 605 606 m 611 1311 l 674 1239 l 479 1073 l 377 1073 l 180 1239 l 245 1311 l 427 1194 l 611 1311 z "},"Ŗ":{"ha":855,"x_min":121,"x_max":833,"o":"m 778 699 q 714 523 778 590 q 555 428 649 456 l 833 0 l 641 0 l 394 405 l 286 405 l 286 0 l 121 0 l 121 983 l 395 983 q 681 912 584 983 q 778 699 778 841 m 605 699 q 556 822 605 784 q 405 860 506 860 l 286 860 l 286 526 l 408 526 q 554 566 502 526 q 605 699 605 606 z "},"S":{"ha":855,"x_min":45,"x_max":781,"o":"m 781 278 q 737 123 781 190 q 609 19 692 56 q 407 -19 525 -19 q 197 16 286 -19 q 45 113 107 52 l 135 214 q 254 138 187 165 q 406 111 320 111 q 550 151 489 111 q 610 270 610 190 q 592 343 610 313 q 530 397 574 373 q 408 444 486 421 q 172 556 252 491 q 91 737 91 622 q 135 877 91 817 q 255 970 179 937 q 429 1003 332 1003 q 615 972 536 1003 q 758 885 695 941 l 671 786 q 559 852 619 831 q 439 873 500 873 q 312 842 363 873 q 261 746 261 810 q 282 681 261 708 q 353 631 303 655 q 491 582 403 608 q 639 522 573 558 q 743 428 705 486 q 781 278 781 370 z "},"Ś":{"ha":855,"x_min":45,"x_max":781,"o":"m 781 278 q 737 123 781 190 q 609 19 692 56 q 407 -19 525 -19 q 197 16 286 -19 q 45 113 107 52 l 135 214 q 254 138 187 165 q 406 111 320 111 q 550 151 489 111 q 610 270 610 190 q 592 343 610 313 q 530 397 574 373 q 408 444 486 421 q 172 556 252 491 q 91 737 91 622 q 135 877 91 817 q 255 970 179 937 q 429 1003 332 1003 q 615 972 536 1003 q 758 885 695 941 l 671 786 q 559 852 619 831 q 439 873 500 873 q 312 842 363 873 q 261 746 261 810 q 282 681 261 708 q 353 631 303 655 q 491 582 403 608 q 639 522 573 558 q 743 428 705 486 q 781 278 781 370 m 553 1316 l 618 1189 l 301 1074 l 261 1157 l 553 1316 z "},"Š":{"ha":855,"x_min":45,"x_max":781,"o":"m 781 278 q 737 123 781 190 q 609 19 692 56 q 407 -19 525 -19 q 197 16 286 -19 q 45 113 107 52 l 135 214 q 254 138 187 165 q 406 111 320 111 q 550 151 489 111 q 610 270 610 190 q 592 343 610 313 q 530 397 574 373 q 408 444 486 421 q 172 556 252 491 q 91 737 91 622 q 135 877 91 817 q 255 970 179 937 q 429 1003 332 1003 q 615 972 536 1003 q 758 885 695 941 l 671 786 q 559 852 619 831 q 439 873 500 873 q 312 842 363 873 q 261 746 261 810 q 282 681 261 708 q 353 631 303 655 q 491 582 403 608 q 639 522 573 558 q 743 428 705 486 q 781 278 781 370 m 621 1311 l 684 1239 l 489 1073 l 387 1073 l 190 1239 l 255 1311 l 437 1194 l 621 1311 z "},"Ş":{"ha":855,"x_min":45,"x_max":781,"o":"m 781 278 q 737 123 781 190 q 609 19 692 56 q 407 -19 525 -19 q 197 16 286 -19 q 45 113 107 52 l 135 214 q 254 138 187 165 q 406 111 320 111 q 550 151 489 111 q 610 270 610 190 q 592 343 610 313 q 530 397 574 373 q 408 444 486 421 q 172 556 252 491 q 91 737 91 622 q 135 877 91 817 q 255 970 179 937 q 429 1003 332 1003 q 615 972 536 1003 q 758 885 695 941 l 671 786 q 559 852 619 831 q 439 873 500 873 q 312 842 363 873 q 261 746 261 810 q 282 681 261 708 q 353 631 303 655 q 491 582 403 608 q 639 522 573 558 q 743 428 705 486 q 781 278 781 370 z "},"Ŝ":{"ha":855,"x_min":45,"x_max":781,"o":"m 781 278 q 737 123 781 190 q 609 19 692 56 q 407 -19 525 -19 q 197 16 286 -19 q 45 113 107 52 l 135 214 q 254 138 187 165 q 406 111 320 111 q 550 151 489 111 q 610 270 610 190 q 592 343 610 313 q 530 397 574 373 q 408 444 486 421 q 172 556 252 491 q 91 737 91 622 q 135 877 91 817 q 255 970 179 937 q 429 1003 332 1003 q 615 972 536 1003 q 758 885 695 941 l 671 786 q 559 852 619 831 q 439 873 500 873 q 312 842 363 873 q 261 746 261 810 q 282 681 261 708 q 353 631 303 655 q 491 582 403 608 q 639 522 573 558 q 743 428 705 486 q 781 278 781 370 m 489 1315 l 684 1149 l 621 1077 l 437 1194 l 255 1077 l 190 1149 l 387 1315 l 489 1315 z "},"Ș":{"ha":855,"x_min":45,"x_max":781,"o":"m 781 278 q 737 123 781 190 q 609 19 692 56 q 407 -19 525 -19 q 197 16 286 -19 q 45 113 107 52 l 135 214 q 254 138 187 165 q 406 111 320 111 q 550 151 489 111 q 610 270 610 190 q 592 343 610 313 q 530 397 574 373 q 408 444 486 421 q 172 556 252 491 q 91 737 91 622 q 135 877 91 817 q 255 970 179 937 q 429 1003 332 1003 q 615 972 536 1003 q 758 885 695 941 l 671 786 q 559 852 619 831 q 439 873 500 873 q 312 842 363 873 q 261 746 261 810 q 282 681 261 708 q 353 631 303 655 q 491 582 403 608 q 639 522 573 558 q 743 428 705 486 q 781 278 781 370 z "},"ẞ":{"ha":855,"x_min":83,"x_max":843,"o":"m 406 1012 q 607 983 517 1012 q 778 913 697 954 l 778 829 l 540 564 q 762 479 682 546 q 843 283 843 411 q 801 123 843 188 q 686 24 759 58 q 521 -10 613 -10 q 421 0 466 -10 q 346 26 377 9 l 395 136 q 442 122 417 127 q 504 116 468 116 q 626 157 580 116 q 672 285 672 199 q 604 423 672 377 q 395 477 536 469 l 395 575 l 628 842 q 527 875 580 862 q 415 888 474 888 q 288 845 332 888 q 245 707 245 801 l 245 10 l 83 10 l 83 706 q 166 931 83 850 q 406 1012 249 1012 z "},"T":{"ha":855,"x_min":48,"x_max":810,"o":"m 508 850 l 508 0 l 343 0 l 343 850 l 48 850 l 48 983 l 810 983 l 793 850 l 508 850 z "},"Ŧ":{"ha":855,"x_min":48,"x_max":810,"o":"m 165 479 l 165 588 l 343 588 l 343 850 l 48 850 l 48 983 l 810 983 l 793 850 l 508 850 l 508 588 l 688 588 l 688 479 l 508 479 l 508 0 l 343 0 l 343 479 l 165 479 z "},"Ť":{"ha":855,"x_min":48,"x_max":810,"o":"m 508 850 l 508 0 l 343 0 l 343 850 l 48 850 l 48 983 l 810 983 l 793 850 l 508 850 m 610 1311 l 672 1239 l 478 1073 l 375 1073 l 179 1239 l 244 1311 l 426 1194 l 610 1311 z "},"Ţ":{"ha":855,"x_min":48,"x_max":810,"o":"m 508 850 l 508 0 l 343 0 l 343 850 l 48 850 l 48 983 l 810 983 l 793 850 l 508 850 z "},"Ț":{"ha":855,"x_min":48,"x_max":810,"o":"m 508 850 l 508 0 l 343 0 l 343 850 l 48 850 l 48 983 l 810 983 l 793 850 l 508 850 z "},"U":{"ha":855,"x_min":87,"x_max":768,"o":"m 768 983 l 768 323 q 728 145 768 222 q 611 25 687 68 q 427 -19 534 -19 q 241 24 317 -19 q 126 144 165 67 q 87 323 87 221 l 87 983 l 252 983 l 252 353 q 293 173 252 233 q 427 113 335 113 q 560 173 519 113 q 602 353 602 233 l 602 983 l 768 983 z "},"Ú":{"ha":855,"x_min":87,"x_max":768,"o":"m 768 983 l 768 323 q 728 145 768 222 q 611 25 687 68 q 427 -19 534 -19 q 241 24 317 -19 q 126 144 165 67 q 87 323 87 221 l 87 983 l 252 983 l 252 353 q 293 173 252 233 q 427 113 335 113 q 560 173 519 113 q 602 353 602 233 l 602 983 l 768 983 m 543 1316 l 608 1189 l 291 1074 l 251 1157 l 543 1316 z "},"Ŭ":{"ha":855,"x_min":87,"x_max":768,"o":"m 768 983 l 768 323 q 728 145 768 222 q 611 25 687 68 q 427 -19 534 -19 q 241 24 317 -19 q 126 144 165 67 q 87 323 87 221 l 87 983 l 252 983 l 252 353 q 293 173 252 233 q 427 113 335 113 q 560 173 519 113 q 602 353 602 233 l 602 983 l 768 983 m 426 1077 q 271 1130 330 1077 q 202 1266 212 1183 l 301 1285 q 345 1218 316 1241 q 426 1194 375 1194 q 507 1218 476 1194 q 553 1285 539 1241 l 652 1266 q 582 1130 643 1183 q 426 1077 521 1077 z "},"Û":{"ha":855,"x_min":87,"x_max":768,"o":"m 768 983 l 768 323 q 728 145 768 222 q 611 25 687 68 q 427 -19 534 -19 q 241 24 317 -19 q 126 144 165 67 q 87 323 87 221 l 87 983 l 252 983 l 252 353 q 293 173 252 233 q 427 113 335 113 q 560 173 519 113 q 602 353 602 233 l 602 983 l 768 983 m 479 1315 l 674 1149 l 611 1077 l 427 1194 l 245 1077 l 180 1149 l 377 1315 l 479 1315 z "},"Ü":{"ha":855,"x_min":87,"x_max":768,"o":"m 768 983 l 768 323 q 728 145 768 222 q 611 25 687 68 q 427 -19 534 -19 q 241 24 317 -19 q 126 144 165 67 q 87 323 87 221 l 87 983 l 252 983 l 252 353 q 293 173 252 233 q 427 113 335 113 q 560 173 519 113 q 602 353 602 233 l 602 983 l 768 983 z "},"Ù":{"ha":855,"x_min":87,"x_max":768,"o":"m 768 983 l 768 323 q 728 145 768 222 q 611 25 687 68 q 427 -19 534 -19 q 241 24 317 -19 q 126 144 165 67 q 87 323 87 221 l 87 983 l 252 983 l 252 353 q 293 173 252 233 q 427 113 335 113 q 560 173 519 113 q 602 353 602 233 l 602 983 l 768 983 m 324 1319 l 604 1157 l 561 1074 l 251 1192 l 324 1319 z "},"Ű":{"ha":855,"x_min":87,"x_max":768,"o":"m 768 983 l 768 323 q 728 145 768 222 q 611 25 687 68 q 427 -19 534 -19 q 241 24 317 -19 q 126 144 165 67 q 87 323 87 221 l 87 983 l 252 983 l 252 353 q 293 173 252 233 q 427 113 335 113 q 560 173 519 113 q 602 353 602 233 l 602 983 l 768 983 z "},"Ū":{"ha":855,"x_min":87,"x_max":768,"o":"m 768 983 l 768 323 q 728 145 768 222 q 611 25 687 68 q 427 -19 534 -19 q 241 24 317 -19 q 126 144 165 67 q 87 323 87 221 l 87 983 l 252 983 l 252 353 q 293 173 252 233 q 427 113 335 113 q 560 173 519 113 q 602 353 602 233 l 602 983 l 768 983 z "},"Ų":{"ha":855,"x_min":87,"x_max":768,"o":"m 768 983 l 768 323 q 728 145 768 222 q 611 25 687 68 q 427 -19 534 -19 q 241 24 317 -19 q 126 144 165 67 q 87 323 87 221 l 87 983 l 252 983 l 252 353 q 293 173 252 233 q 427 113 335 113 q 560 173 519 113 q 602 353 602 233 l 602 983 l 768 983 m 529 55 l 551 0 q 443 -56 480 -29 q 392 -108 406 -83 q 379 -161 379 -134 q 459 -229 379 -229 q 501 -227 482 -229 q 543 -219 520 -224 l 529 -329 q 488 -337 509 -334 q 442 -340 468 -340 q 304 -297 357 -340 q 252 -186 252 -255 q 324 -41 252 -97 q 529 55 395 16 z "},"Ů":{"ha":855,"x_min":87,"x_max":768,"o":"m 768 983 l 768 323 q 728 145 768 222 q 611 25 687 68 q 427 -19 534 -19 q 241 24 317 -19 q 126 144 165 67 q 87 323 87 221 l 87 983 l 252 983 l 252 353 q 293 173 252 233 q 427 113 335 113 q 560 173 519 113 q 602 353 602 233 l 602 983 l 768 983 z "},"Ũ":{"ha":855,"x_min":87,"x_max":768,"o":"m 768 983 l 768 323 q 728 145 768 222 q 611 25 687 68 q 427 -19 534 -19 q 241 24 317 -19 q 126 144 165 67 q 87 323 87 221 l 87 983 l 252 983 l 252 353 q 293 173 252 233 q 427 113 335 113 q 560 173 519 113 q 602 353 602 233 l 602 983 l 768 983 z "},"V":{"ha":855,"x_min":21,"x_max":833,"o":"m 431 157 l 666 983 l 833 983 l 522 0 l 333 0 l 21 983 l 198 983 l 431 157 z "},"W":{"ha":855,"x_min":3,"x_max":852,"o":"m 852 983 l 716 0 l 523 0 l 426 727 l 325 0 l 128 0 l 3 983 l 162 983 l 240 160 l 344 869 l 514 869 l 613 160 l 704 983 l 852 983 z "},"Ẃ":{"ha":855,"x_min":3,"x_max":852,"o":"m 852 983 l 716 0 l 523 0 l 426 727 l 325 0 l 128 0 l 3 983 l 162 983 l 240 160 l 344 869 l 514 869 l 613 160 l 704 983 l 852 983 m 543 1316 l 608 1189 l 291 1074 l 251 1157 l 543 1316 z "},"Ŵ":{"ha":855,"x_min":3,"x_max":852,"o":"m 852 983 l 716 0 l 523 0 l 426 727 l 325 0 l 128 0 l 3 983 l 162 983 l 240 160 l 344 869 l 514 869 l 613 160 l 704 983 l 852 983 m 479 1315 l 674 1149 l 611 1077 l 427 1194 l 245 1077 l 180 1149 l 377 1315 l 479 1315 z "},"Ẅ":{"ha":855,"x_min":3,"x_max":852,"o":"m 852 983 l 716 0 l 523 0 l 426 727 l 325 0 l 128 0 l 3 983 l 162 983 l 240 160 l 344 869 l 514 869 l 613 160 l 704 983 l 852 983 z "},"Ẁ":{"ha":855,"x_min":3,"x_max":852,"o":"m 852 983 l 716 0 l 523 0 l 426 727 l 325 0 l 128 0 l 3 983 l 162 983 l 240 160 l 344 869 l 514 869 l 613 160 l 704 983 l 852 983 m 324 1319 l 604 1157 l 561 1074 l 251 1192 l 324 1319 z "},"X":{"ha":855,"x_min":29,"x_max":825,"o":"m 54 983 l 237 983 l 427 629 l 620 983 l 796 983 l 524 531 l 825 0 l 642 0 l 425 418 l 206 0 l 29 0 l 327 524 l 54 983 z "},"Y":{"ha":855,"x_min":16,"x_max":838,"o":"m 511 375 l 511 0 l 344 0 l 344 374 l 16 983 l 198 983 l 431 517 l 665 983 l 838 983 l 511 375 z "},"Ý":{"ha":855,"x_min":16,"x_max":838,"o":"m 511 375 l 511 0 l 344 0 l 344 374 l 16 983 l 198 983 l 431 517 l 665 983 l 838 983 l 511 375 m 546 1316 l 611 1189 l 294 1074 l 254 1157 l 546 1316 z "},"Ŷ":{"ha":855,"x_min":16,"x_max":838,"o":"m 511 375 l 511 0 l 344 0 l 344 374 l 16 983 l 198 983 l 431 517 l 665 983 l 838 983 l 511 375 m 482 1315 l 677 1149 l 614 1077 l 430 1194 l 248 1077 l 183 1149 l 380 1315 l 482 1315 z "},"Ÿ":{"ha":855,"x_min":16,"x_max":838,"o":"m 511 375 l 511 0 l 344 0 l 344 374 l 16 983 l 198 983 l 431 517 l 665 983 l 838 983 l 511 375 z "},"Ỳ":{"ha":855,"x_min":16,"x_max":838,"o":"m 511 375 l 511 0 l 344 0 l 344 374 l 16 983 l 198 983 l 431 517 l 665 983 l 838 983 l 511 375 m 327 1319 l 607 1157 l 563 1074 l 254 1192 l 327 1319 z "},"Z":{"ha":855,"x_min":84,"x_max":770,"o":"m 273 137 l 770 137 l 751 0 l 84 0 l 84 128 l 584 849 l 135 849 l 135 983 l 766 983 l 766 853 l 273 137 z "},"Ź":{"ha":855,"x_min":84,"x_max":770,"o":"m 273 137 l 770 137 l 751 0 l 84 0 l 84 128 l 584 849 l 135 849 l 135 983 l 766 983 l 766 853 l 273 137 m 566 1316 l 631 1189 l 314 1074 l 274 1157 l 566 1316 z "},"Ž":{"ha":855,"x_min":84,"x_max":770,"o":"m 273 137 l 770 137 l 751 0 l 84 0 l 84 128 l 584 849 l 135 849 l 135 983 l 766 983 l 766 853 l 273 137 m 635 1311 l 697 1239 l 503 1073 l 400 1073 l 204 1239 l 269 1311 l 451 1194 l 635 1311 z "},"Ż":{"ha":855,"x_min":84,"x_max":770,"o":"m 273 137 l 770 137 l 751 0 l 84 0 l 84 128 l 584 849 l 135 849 l 135 983 l 766 983 l 766 853 l 273 137 z "},"a":{"ha":855,"x_min":80,"x_max":759,"o":"m 702 184 q 715 120 702 140 q 759 90 729 100 l 723 -19 q 627 12 667 -12 q 567 85 587 36 q 462 7 526 33 q 327 -19 399 -19 q 146 45 212 -19 q 80 214 80 110 q 172 397 80 333 q 437 462 265 462 l 545 462 l 545 511 q 501 616 545 584 q 377 647 457 647 q 288 638 340 647 q 177 608 235 628 l 138 721 q 276 760 209 747 q 402 772 344 772 q 627 705 553 772 q 702 520 702 638 l 702 184 m 375 98 q 470 124 424 98 q 545 196 516 150 l 545 362 l 457 362 q 296 324 344 362 q 247 222 247 287 q 375 98 247 98 z "},"á":{"ha":855,"x_min":80,"x_max":759,"o":"m 702 184 q 715 120 702 140 q 759 90 729 100 l 723 -19 q 627 12 667 -12 q 567 85 587 36 q 462 7 526 33 q 327 -19 399 -19 q 146 45 212 -19 q 80 214 80 110 q 172 397 80 333 q 437 462 265 462 l 545 462 l 545 511 q 501 616 545 584 q 377 647 457 647 q 288 638 340 647 q 177 608 235 628 l 138 721 q 276 760 209 747 q 402 772 344 772 q 627 705 553 772 q 702 520 702 638 l 702 184 m 375 98 q 470 124 424 98 q 545 196 516 150 l 545 362 l 457 362 q 296 324 344 362 q 247 222 247 287 q 375 98 247 98 m 532 1156 l 599 1028 l 287 902 l 240 985 l 532 1156 z "},"ă":{"ha":855,"x_min":80,"x_max":759,"o":"m 702 184 q 715 120 702 140 q 759 90 729 100 l 723 -19 q 627 12 667 -12 q 567 85 587 36 q 462 7 526 33 q 327 -19 399 -19 q 146 45 212 -19 q 80 214 80 110 q 172 397 80 333 q 437 462 265 462 l 545 462 l 545 511 q 501 616 545 584 q 377 647 457 647 q 288 638 340 647 q 177 608 235 628 l 138 721 q 276 760 209 747 q 402 772 344 772 q 627 705 553 772 q 702 520 702 638 l 702 184 m 375 98 q 470 124 424 98 q 545 196 516 150 l 545 362 l 457 362 q 296 324 344 362 q 247 222 247 287 q 375 98 247 98 m 415 887 q 297 920 345 887 q 223 1002 249 952 q 192 1102 197 1051 l 290 1121 q 334 1036 304 1068 q 415 1003 365 1003 q 497 1036 465 1003 q 543 1121 528 1068 l 641 1102 q 609 1002 635 1051 q 533 920 582 952 q 415 887 485 887 z "},"â":{"ha":855,"x_min":80,"x_max":759,"o":"m 702 184 q 715 120 702 140 q 759 90 729 100 l 723 -19 q 627 12 667 -12 q 567 85 587 36 q 462 7 526 33 q 327 -19 399 -19 q 146 45 212 -19 q 80 214 80 110 q 172 397 80 333 q 437 462 265 462 l 545 462 l 545 511 q 501 616 545 584 q 377 647 457 647 q 288 638 340 647 q 177 608 235 628 l 138 721 q 276 760 209 747 q 402 772 344 772 q 627 705 553 772 q 702 520 702 638 l 702 184 m 375 98 q 470 124 424 98 q 545 196 516 150 l 545 362 l 457 362 q 296 324 344 362 q 247 222 247 287 q 375 98 247 98 m 236 887 l 170 958 l 366 1138 l 469 1138 l 663 958 l 599 887 l 417 1017 l 236 887 z "},"ä":{"ha":855,"x_min":80,"x_max":759,"o":"m 702 184 q 715 120 702 140 q 759 90 729 100 l 723 -19 q 627 12 667 -12 q 567 85 587 36 q 462 7 526 33 q 327 -19 399 -19 q 146 45 212 -19 q 80 214 80 110 q 172 397 80 333 q 437 462 265 462 l 545 462 l 545 511 q 501 616 545 584 q 377 647 457 647 q 288 638 340 647 q 177 608 235 628 l 138 721 q 276 760 209 747 q 402 772 344 772 q 627 705 553 772 q 702 520 702 638 l 702 184 m 375 98 q 470 124 424 98 q 545 196 516 150 l 545 362 l 457 362 q 296 324 344 362 q 247 222 247 287 q 375 98 247 98 m 263 917 q 196 943 223 917 q 170 1008 170 969 q 196 1072 170 1046 q 263 1098 223 1098 q 328 1072 301 1098 q 355 1008 355 1046 q 328 943 355 969 q 263 917 301 917 m 570 917 q 505 943 531 917 q 478 1008 478 969 q 505 1072 478 1046 q 570 1098 531 1098 q 636 1072 609 1098 q 663 1008 663 1046 q 636 943 663 969 q 570 917 609 917 z "},"à":{"ha":855,"x_min":80,"x_max":759,"o":"m 702 184 q 715 120 702 140 q 759 90 729 100 l 723 -19 q 627 12 667 -12 q 567 85 587 36 q 462 7 526 33 q 327 -19 399 -19 q 146 45 212 -19 q 80 214 80 110 q 172 397 80 333 q 437 462 265 462 l 545 462 l 545 511 q 501 616 545 584 q 377 647 457 647 q 288 638 340 647 q 177 608 235 628 l 138 721 q 276 760 209 747 q 402 772 344 772 q 627 705 553 772 q 702 520 702 638 l 702 184 m 375 98 q 470 124 424 98 q 545 196 516 150 l 545 362 l 457 362 q 296 324 344 362 q 247 222 247 287 q 375 98 247 98 m 546 886 l 240 1019 l 313 1147 l 594 970 l 546 886 z "},"ā":{"ha":855,"x_min":80,"x_max":759,"o":"m 702 184 q 715 120 702 140 q 759 90 729 100 l 723 -19 q 627 12 667 -12 q 567 85 587 36 q 462 7 526 33 q 327 -19 399 -19 q 146 45 212 -19 q 80 214 80 110 q 172 397 80 333 q 437 462 265 462 l 545 462 l 545 511 q 501 616 545 584 q 377 647 457 647 q 288 638 340 647 q 177 608 235 628 l 138 721 q 276 760 209 747 q 402 772 344 772 q 627 705 553 772 q 702 520 702 638 l 702 184 m 375 98 q 470 124 424 98 q 545 196 516 150 l 545 362 l 457 362 q 296 324 344 362 q 247 222 247 287 q 375 98 247 98 m 618 953 l 215 953 l 215 1069 l 618 1069 l 618 953 z "},"ą":{"ha":855,"x_min":80,"x_max":759,"o":"m 702 184 q 715 120 702 140 q 759 90 729 100 l 723 -19 q 627 12 667 -12 q 567 85 587 36 q 462 7 526 33 q 327 -19 399 -19 q 146 45 212 -19 q 80 214 80 110 q 172 397 80 333 q 437 462 265 462 l 545 462 l 545 511 q 501 616 545 584 q 377 647 457 647 q 288 638 340 647 q 177 608 235 628 l 138 721 q 276 760 209 747 q 402 772 344 772 q 627 705 553 772 q 702 520 702 638 l 702 184 m 375 98 q 470 124 424 98 q 545 196 516 150 l 545 362 l 457 362 q 296 324 344 362 q 247 222 247 287 q 375 98 247 98 m 701 36 l 722 -19 q 615 -74 652 -48 q 564 -127 578 -101 q 551 -179 551 -152 q 631 -248 551 -248 q 673 -245 654 -248 q 715 -238 692 -243 l 701 -348 q 660 -355 680 -353 q 613 -358 640 -358 q 476 -316 528 -358 q 424 -204 424 -274 q 495 -59 424 -115 q 701 36 567 -3 z "},"å":{"ha":855,"x_min":80,"x_max":759,"o":"m 702 184 q 715 120 702 140 q 759 90 729 100 l 723 -19 q 627 12 667 -12 q 567 85 587 36 q 462 7 526 33 q 327 -19 399 -19 q 146 45 212 -19 q 80 214 80 110 q 172 397 80 333 q 437 462 265 462 l 545 462 l 545 511 q 501 616 545 584 q 377 647 457 647 q 288 638 340 647 q 177 608 235 628 l 138 721 q 276 760 209 747 q 402 772 344 772 q 627 705 553 772 q 702 520 702 638 l 702 184 m 375 98 q 470 124 424 98 q 545 196 516 150 l 545 362 l 457 362 q 296 324 344 362 q 247 222 247 287 q 375 98 247 98 m 416 1195 q 542 1148 494 1195 q 590 1033 590 1100 q 542 920 590 967 q 416 873 494 873 q 291 920 339 873 q 244 1033 244 967 q 291 1148 244 1100 q 416 1195 339 1195 m 416 1110 q 364 1090 384 1110 q 345 1033 345 1070 q 364 976 345 996 q 416 957 384 957 q 469 976 449 957 q 489 1033 489 996 q 469 1090 489 1070 q 416 1110 449 1110 z "},"ã":{"ha":855,"x_min":80,"x_max":759,"o":"m 702 184 q 715 120 702 140 q 759 90 729 100 l 723 -19 q 627 12 667 -12 q 567 85 587 36 q 462 7 526 33 q 327 -19 399 -19 q 146 45 212 -19 q 80 214 80 110 q 172 397 80 333 q 437 462 265 462 l 545 462 l 545 511 q 501 616 545 584 q 377 647 457 647 q 288 638 340 647 q 177 608 235 628 l 138 721 q 276 760 209 747 q 402 772 344 772 q 627 705 553 772 q 702 520 702 638 l 702 184 m 375 98 q 470 124 424 98 q 545 196 516 150 l 545 362 l 457 362 q 296 324 344 362 q 247 222 247 287 q 375 98 247 98 m 499 925 q 432 942 459 925 q 382 975 405 959 q 334 992 359 992 q 292 976 309 992 q 259 927 276 959 l 169 972 q 235 1070 194 1029 q 333 1110 276 1110 q 401 1094 374 1110 q 450 1060 428 1077 q 498 1043 472 1043 q 537 1059 520 1043 q 573 1105 554 1074 l 663 1061 q 593 961 635 997 q 499 925 551 925 z "},"æ":{"ha":855,"x_min":-9,"x_max":860,"o":"m 615 772 q 803 673 746 772 q 860 396 860 573 q 858 328 860 358 l 489 328 q 536 155 499 210 q 641 99 572 99 q 711 113 680 99 q 776 152 742 127 l 843 58 q 750 2 800 24 q 635 -19 700 -19 q 505 14 558 -19 q 413 111 452 46 q 324 11 370 41 q 207 -19 278 -19 q 50 46 108 -19 q -9 216 -9 110 q 67 397 -9 334 q 291 460 142 460 l 353 460 l 353 511 q 319 622 353 587 q 224 657 286 657 q 157 649 187 657 q 81 620 126 640 l 42 723 q 141 759 93 746 q 239 772 189 772 q 365 740 321 772 q 432 656 409 709 q 501 741 455 709 q 615 772 548 772 m 610 657 q 525 607 553 657 q 489 432 496 558 l 724 432 q 698 600 722 544 q 610 657 675 657 m 353 363 l 303 363 q 178 325 213 363 q 142 224 142 287 q 167 127 142 160 q 233 94 191 94 q 305 123 274 94 q 365 210 336 152 q 353 363 353 283 z "},"ǽ":{"ha":855,"x_min":-9,"x_max":860,"o":"m 615 772 q 803 673 746 772 q 860 396 860 573 q 858 328 860 358 l 489 328 q 536 155 499 210 q 641 99 572 99 q 711 113 680 99 q 776 152 742 127 l 843 58 q 750 2 800 24 q 635 -19 700 -19 q 505 14 558 -19 q 413 111 452 46 q 324 11 370 41 q 207 -19 278 -19 q 50 46 108 -19 q -9 216 -9 110 q 67 397 -9 334 q 291 460 142 460 l 353 460 l 353 511 q 319 622 353 587 q 224 657 286 657 q 157 649 187 657 q 81 620 126 640 l 42 723 q 141 759 93 746 q 239 772 189 772 q 365 740 321 772 q 432 656 409 709 q 501 741 455 709 q 615 772 548 772 m 610 657 q 525 607 553 657 q 489 432 496 558 l 724 432 q 698 600 722 544 q 610 657 675 657 m 353 363 l 303 363 q 178 325 213 363 q 142 224 142 287 q 167 127 142 160 q 233 94 191 94 q 305 123 274 94 q 365 210 336 152 q 353 363 353 283 m 551 1156 l 618 1028 l 306 902 l 259 985 l 551 1156 z "},"b":{"ha":855,"x_min":127,"x_max":773,"o":"m 286 662 q 377 743 325 714 q 493 772 430 772 q 653 723 592 772 q 744 586 715 675 q 773 377 773 497 q 739 173 773 263 q 638 32 704 83 q 474 -19 571 -19 q 276 74 348 -19 l 267 0 l 127 0 l 127 1054 l 286 1072 l 286 662 m 434 103 q 559 169 515 103 q 604 377 604 235 q 564 585 604 521 q 449 649 524 649 q 355 617 396 649 q 286 541 314 585 l 286 189 q 350 126 313 149 q 434 103 387 103 z "},"c":{"ha":855,"x_min":118,"x_max":749,"o":"m 489 112 q 588 130 542 112 q 675 177 633 149 l 749 75 q 629 7 699 33 q 484 -19 559 -19 q 287 30 369 -19 q 161 166 204 78 q 118 373 118 254 q 162 577 118 487 q 288 720 206 667 q 487 772 371 772 q 748 682 638 772 l 675 581 q 584 628 630 612 q 490 644 538 644 q 344 578 400 644 q 288 373 288 513 q 345 172 288 231 q 489 112 402 112 z "},"ć":{"ha":855,"x_min":118,"x_max":749,"o":"m 489 112 q 588 130 542 112 q 675 177 633 149 l 749 75 q 629 7 699 33 q 484 -19 559 -19 q 287 30 369 -19 q 161 166 204 78 q 118 373 118 254 q 162 577 118 487 q 288 720 206 667 q 487 772 371 772 q 748 682 638 772 l 675 581 q 584 628 630 612 q 490 644 538 644 q 344 578 400 644 q 288 373 288 513 q 345 172 288 231 q 489 112 402 112 m 605 1142 l 672 1014 l 360 888 l 313 971 l 605 1142 z "},"č":{"ha":855,"x_min":118,"x_max":749,"o":"m 489 112 q 588 130 542 112 q 675 177 633 149 l 749 75 q 629 7 699 33 q 484 -19 559 -19 q 287 30 369 -19 q 161 166 204 78 q 118 373 118 254 q 162 577 118 487 q 288 720 206 667 q 487 772 371 772 q 748 682 638 772 l 675 581 q 584 628 630 612 q 490 644 538 644 q 344 578 400 644 q 288 373 288 513 q 345 172 288 231 q 489 112 402 112 m 672 1124 l 736 1053 l 542 873 l 439 873 l 243 1053 l 310 1124 l 491 993 l 672 1124 z "},"ç":{"ha":855,"x_min":118,"x_max":749,"o":"m 489 112 q 588 130 542 112 q 675 177 633 149 l 749 75 q 629 7 699 33 q 484 -19 559 -19 q 287 30 369 -19 q 161 166 204 78 q 118 373 118 254 q 162 577 118 487 q 288 720 206 667 q 487 772 371 772 q 748 682 638 772 l 675 581 q 584 628 630 612 q 490 644 538 644 q 344 578 400 644 q 288 373 288 513 q 345 172 288 231 q 489 112 402 112 m 529 -202 q 496 -157 529 -168 q 403 -147 463 -147 l 418 23 l 516 23 l 516 -76 q 621 -119 588 -83 q 655 -204 655 -155 q 600 -314 655 -275 q 466 -353 545 -353 q 379 -342 420 -353 q 310 -314 338 -330 l 354 -232 q 448 -256 398 -256 q 507 -244 484 -256 q 529 -202 529 -231 z "},"ĉ":{"ha":855,"x_min":118,"x_max":749,"o":"m 489 112 q 588 130 542 112 q 675 177 633 149 l 749 75 q 629 7 699 33 q 484 -19 559 -19 q 287 30 369 -19 q 161 166 204 78 q 118 373 118 254 q 162 577 118 487 q 288 720 206 667 q 487 772 371 772 q 748 682 638 772 l 675 581 q 584 628 630 612 q 490 644 538 644 q 344 578 400 644 q 288 373 288 513 q 345 172 288 231 q 489 112 402 112 m 310 873 l 243 944 l 439 1124 l 542 1124 l 736 944 l 672 873 l 491 1003 l 310 873 z "},"ċ":{"ha":855,"x_min":118,"x_max":749,"o":"m 489 112 q 588 130 542 112 q 675 177 633 149 l 749 75 q 629 7 699 33 q 484 -19 559 -19 q 287 30 369 -19 q 161 166 204 78 q 118 373 118 254 q 162 577 118 487 q 288 720 206 667 q 487 772 371 772 q 748 682 638 772 l 675 581 q 584 628 630 612 q 490 644 538 644 q 344 578 400 644 q 288 373 288 513 q 345 172 288 231 q 489 112 402 112 m 489 1106 q 565 1078 536 1106 q 594 1006 594 1049 q 565 934 594 964 q 489 905 536 905 q 414 934 443 905 q 385 1006 385 964 q 414 1078 385 1049 q 489 1106 443 1106 z "},"d":{"ha":855,"x_min":82,"x_max":728,"o":"m 568 1072 l 728 1054 l 728 0 l 588 0 l 576 93 q 484 10 538 39 q 365 -19 431 -19 q 205 30 268 -19 q 113 169 143 80 q 82 376 82 258 q 118 580 82 491 q 219 721 153 670 q 379 772 286 772 q 568 690 495 772 l 568 1072 m 421 650 q 296 583 340 650 q 251 376 251 516 q 292 168 251 232 q 407 103 333 103 q 501 135 461 103 q 568 210 541 166 l 568 566 q 504 628 541 606 q 421 650 467 650 z "},"ð":{"ha":855,"x_min":80,"x_max":771,"o":"m 218 806 l 321 913 q 250 938 288 927 q 168 958 212 949 l 202 1072 q 316 1045 263 1060 q 412 1009 368 1029 l 514 1115 l 602 1038 l 519 952 q 710 723 650 864 q 771 382 771 582 q 729 173 771 264 q 608 32 687 83 q 420 -19 529 -19 q 249 22 325 -19 q 126 142 172 63 q 80 334 80 222 q 123 519 80 439 q 234 642 165 598 q 385 686 303 686 q 505 663 454 686 q 597 598 557 640 q 530 746 575 681 q 425 856 486 811 l 325 754 l 218 806 m 610 375 q 609 425 610 401 q 607 472 608 448 q 417 566 539 566 q 295 511 345 566 q 244 339 244 457 q 293 162 244 221 q 420 103 342 103 q 560 171 510 103 q 610 375 610 239 z "},"ď":{"ha":855,"x_min":36,"x_max":917,"o":"m 522 1072 l 682 1054 l 682 0 l 541 0 l 530 93 q 438 10 491 39 q 318 -19 385 -19 q 159 30 222 -19 q 66 169 97 80 q 36 376 36 258 q 71 580 36 491 q 173 721 107 670 q 333 772 239 772 q 522 690 449 772 l 522 1072 m 375 650 q 249 583 294 650 q 204 376 204 516 q 245 168 204 232 q 360 103 286 103 q 454 135 415 103 q 522 210 494 166 l 522 566 q 457 628 494 606 q 375 650 420 650 m 775 1073 l 917 1056 l 828 774 l 733 788 l 775 1073 z "},"đ":{"ha":855,"x_min":74,"x_max":833,"o":"m 720 958 l 833 958 l 833 849 l 720 849 l 720 0 l 579 0 l 568 93 q 476 10 530 39 q 357 -19 423 -19 q 197 30 260 -19 q 104 169 135 80 q 74 376 74 258 q 109 580 74 491 q 211 721 145 670 q 371 772 278 772 q 561 690 487 772 l 561 849 l 343 849 l 343 958 l 561 958 l 561 1072 l 720 1054 l 720 958 m 413 650 q 288 583 333 650 q 243 376 243 516 q 284 168 243 232 q 399 103 325 103 q 493 135 453 103 q 561 210 532 166 l 561 566 q 496 628 533 606 q 413 650 459 650 z "},"e":{"ha":855,"x_min":94,"x_max":761,"o":"m 259 325 q 324 157 266 209 q 464 105 382 105 q 567 122 519 105 q 662 170 614 139 l 731 75 q 608 6 678 32 q 457 -19 537 -19 q 258 31 339 -19 q 136 170 177 80 q 94 375 94 259 q 135 578 94 489 q 254 720 177 667 q 437 772 330 772 q 674 672 587 772 q 761 396 761 571 q 760 358 761 377 q 758 325 759 339 l 259 325 m 439 654 q 315 600 364 654 q 259 434 266 547 l 607 434 q 562 597 605 540 q 439 654 519 654 z "},"é":{"ha":855,"x_min":94,"x_max":761,"o":"m 259 325 q 324 157 266 209 q 464 105 382 105 q 567 122 519 105 q 662 170 614 139 l 731 75 q 608 6 678 32 q 457 -19 537 -19 q 258 31 339 -19 q 136 170 177 80 q 94 375 94 259 q 135 578 94 489 q 254 720 177 667 q 437 772 330 772 q 674 672 587 772 q 761 396 761 571 q 760 358 761 377 q 758 325 759 339 l 259 325 m 439 654 q 315 600 364 654 q 259 434 266 547 l 607 434 q 562 597 605 540 q 439 654 519 654 m 556 1156 l 623 1028 l 311 902 l 264 985 l 556 1156 z "},"ĕ":{"ha":855,"x_min":94,"x_max":761,"o":"m 259 325 q 324 157 266 209 q 464 105 382 105 q 567 122 519 105 q 662 170 614 139 l 731 75 q 608 6 678 32 q 457 -19 537 -19 q 258 31 339 -19 q 136 170 177 80 q 94 375 94 259 q 135 578 94 489 q 254 720 177 667 q 437 772 330 772 q 674 672 587 772 q 761 396 761 571 q 760 358 761 377 q 758 325 759 339 l 259 325 m 439 654 q 315 600 364 654 q 259 434 266 547 l 607 434 q 562 597 605 540 q 439 654 519 654 m 438 887 q 321 920 368 887 q 247 1002 273 952 q 215 1102 221 1051 l 313 1121 q 358 1036 328 1068 q 438 1003 388 1003 q 520 1036 489 1003 q 566 1121 552 1068 l 665 1102 q 632 1002 659 1051 q 557 920 605 952 q 438 887 509 887 z "},"ě":{"ha":855,"x_min":94,"x_max":761,"o":"m 259 325 q 324 157 266 209 q 464 105 382 105 q 567 122 519 105 q 662 170 614 139 l 731 75 q 608 6 678 32 q 457 -19 537 -19 q 258 31 339 -19 q 136 170 177 80 q 94 375 94 259 q 135 578 94 489 q 254 720 177 667 q 437 772 330 772 q 674 672 587 772 q 761 396 761 571 q 760 358 761 377 q 758 325 759 339 l 259 325 m 439 654 q 315 600 364 654 q 259 434 266 547 l 607 434 q 562 597 605 540 q 439 654 519 654 m 623 1138 l 687 1067 l 492 887 l 390 887 l 193 1067 l 260 1138 l 441 1007 l 623 1138 z "},"ê":{"ha":855,"x_min":94,"x_max":761,"o":"m 259 325 q 324 157 266 209 q 464 105 382 105 q 567 122 519 105 q 662 170 614 139 l 731 75 q 608 6 678 32 q 457 -19 537 -19 q 258 31 339 -19 q 136 170 177 80 q 94 375 94 259 q 135 578 94 489 q 254 720 177 667 q 437 772 330 772 q 674 672 587 772 q 761 396 761 571 q 760 358 761 377 q 758 325 759 339 l 259 325 m 439 654 q 315 600 364 654 q 259 434 266 547 l 607 434 q 562 597 605 540 q 439 654 519 654 m 260 887 l 193 958 l 390 1138 l 492 1138 l 687 958 l 623 887 l 441 1017 l 260 887 z "},"ë":{"ha":855,"x_min":94,"x_max":761,"o":"m 259 325 q 324 157 266 209 q 464 105 382 105 q 567 122 519 105 q 662 170 614 139 l 731 75 q 608 6 678 32 q 457 -19 537 -19 q 258 31 339 -19 q 136 170 177 80 q 94 375 94 259 q 135 578 94 489 q 254 720 177 667 q 437 772 330 772 q 674 672 587 772 q 761 396 761 571 q 760 358 761 377 q 758 325 759 339 l 259 325 m 439 654 q 315 600 364 654 q 259 434 266 547 l 607 434 q 562 597 605 540 q 439 654 519 654 m 286 917 q 220 943 246 917 q 193 1008 193 969 q 220 1072 193 1046 q 286 1098 246 1098 q 351 1072 325 1098 q 378 1008 378 1046 q 351 943 378 969 q 286 917 325 917 m 593 917 q 528 943 555 917 q 501 1008 501 969 q 528 1072 501 1046 q 593 1098 555 1098 q 660 1072 632 1098 q 687 1008 687 1046 q 660 943 687 969 q 593 917 632 917 z "},"ė":{"ha":855,"x_min":94,"x_max":761,"o":"m 259 325 q 324 157 266 209 q 464 105 382 105 q 567 122 519 105 q 662 170 614 139 l 731 75 q 608 6 678 32 q 457 -19 537 -19 q 258 31 339 -19 q 136 170 177 80 q 94 375 94 259 q 135 578 94 489 q 254 720 177 667 q 437 772 330 772 q 674 672 587 772 q 761 396 761 571 q 760 358 761 377 q 758 325 759 339 l 259 325 m 439 654 q 315 600 364 654 q 259 434 266 547 l 607 434 q 562 597 605 540 q 439 654 519 654 m 439 1120 q 515 1092 486 1120 q 544 1021 544 1063 q 515 949 544 978 q 439 920 486 920 q 364 949 393 920 q 335 1021 335 978 q 364 1092 335 1063 q 439 1120 393 1120 z "},"è":{"ha":855,"x_min":94,"x_max":761,"o":"m 259 325 q 324 157 266 209 q 464 105 382 105 q 567 122 519 105 q 662 170 614 139 l 731 75 q 608 6 678 32 q 457 -19 537 -19 q 258 31 339 -19 q 136 170 177 80 q 94 375 94 259 q 135 578 94 489 q 254 720 177 667 q 437 772 330 772 q 674 672 587 772 q 761 396 761 571 q 760 358 761 377 q 758 325 759 339 l 259 325 m 439 654 q 315 600 364 654 q 259 434 266 547 l 607 434 q 562 597 605 540 q 439 654 519 654 m 570 886 l 264 1019 l 337 1147 l 618 970 l 570 886 z "},"ē":{"ha":855,"x_min":94,"x_max":761,"o":"m 259 325 q 324 157 266 209 q 464 105 382 105 q 567 122 519 105 q 662 170 614 139 l 731 75 q 608 6 678 32 q 457 -19 537 -19 q 258 31 339 -19 q 136 170 177 80 q 94 375 94 259 q 135 578 94 489 q 254 720 177 667 q 437 772 330 772 q 674 672 587 772 q 761 396 761 571 q 760 358 761 377 q 758 325 759 339 l 259 325 m 439 654 q 315 600 364 654 q 259 434 266 547 l 607 434 q 562 597 605 540 q 439 654 519 654 m 641 953 l 239 953 l 239 1069 l 641 1069 l 641 953 z "},"ę":{"ha":855,"x_min":94,"x_max":761,"o":"m 259 325 q 324 157 266 209 q 464 105 382 105 q 567 122 519 105 q 662 170 614 139 l 731 75 q 586 -1 668 24 q 480 -56 516 -29 q 429 -109 443 -83 q 416 -161 416 -135 q 497 -229 416 -229 q 538 -227 519 -229 q 581 -219 558 -224 l 566 -329 q 526 -337 546 -334 q 479 -340 506 -340 q 342 -297 394 -340 q 290 -186 290 -255 q 322 -90 290 -132 q 412 -17 353 -48 q 176 104 257 -3 q 94 375 94 212 q 135 578 94 489 q 254 720 177 667 q 437 772 330 772 q 674 672 587 772 q 761 396 761 571 q 760 358 761 377 q 758 325 759 339 l 259 325 m 439 654 q 315 600 364 654 q 259 434 266 547 l 607 434 q 562 597 605 540 q 439 654 519 654 z "},"f":{"ha":855,"x_min":125,"x_max":808,"o":"m 584 1072 q 708 1060 653 1072 q 808 1028 762 1048 l 761 918 q 683 941 724 934 q 600 948 642 948 q 454 831 454 948 l 454 698 l 706 698 l 689 580 l 454 580 l 454 0 l 296 0 l 296 580 l 125 580 l 125 698 l 296 698 l 296 833 q 375 1006 296 939 q 584 1072 454 1072 z "},"g":{"ha":855,"x_min":75,"x_max":803,"o":"m 760 848 l 803 715 q 704 695 758 700 q 584 690 650 690 q 686 614 652 660 q 720 499 720 567 q 684 368 720 426 q 582 278 649 311 q 424 245 516 245 q 367 248 391 245 q 321 257 343 251 q 287 195 287 235 q 306 156 287 172 q 381 139 325 139 l 512 139 q 654 111 593 139 q 751 37 716 84 q 786 -71 786 -11 q 689 -245 786 -183 q 410 -307 593 -307 q 208 -281 281 -307 q 105 -202 135 -254 q 75 -75 75 -150 l 218 -75 q 233 -140 218 -115 q 291 -178 249 -166 q 412 -191 333 -191 q 578 -162 529 -191 q 626 -81 626 -133 q 586 -10 626 -35 q 479 14 546 14 l 350 14 q 194 58 244 14 q 145 159 145 101 q 229 295 145 240 q 130 381 161 330 q 99 505 99 432 q 139 645 99 585 q 250 738 179 704 q 413 771 321 771 q 564 781 504 771 q 670 808 625 791 q 760 848 715 825 m 415 662 q 300 619 338 662 q 261 506 261 575 q 301 392 261 435 q 417 349 340 349 q 525 390 487 349 q 562 508 562 432 q 415 662 562 662 z "},"ğ":{"ha":855,"x_min":75,"x_max":803,"o":"m 760 848 l 803 715 q 704 695 758 700 q 584 690 650 690 q 686 614 652 660 q 720 499 720 567 q 684 368 720 426 q 582 278 649 311 q 424 245 516 245 q 367 248 391 245 q 321 257 343 251 q 287 195 287 235 q 306 156 287 172 q 381 139 325 139 l 512 139 q 654 111 593 139 q 751 37 716 84 q 786 -71 786 -11 q 689 -245 786 -183 q 410 -307 593 -307 q 208 -281 281 -307 q 105 -202 135 -254 q 75 -75 75 -150 l 218 -75 q 233 -140 218 -115 q 291 -178 249 -166 q 412 -191 333 -191 q 578 -162 529 -191 q 626 -81 626 -133 q 586 -10 626 -35 q 479 14 546 14 l 350 14 q 194 58 244 14 q 145 159 145 101 q 229 295 145 240 q 130 381 161 330 q 99 505 99 432 q 139 645 99 585 q 250 738 179 704 q 413 771 321 771 q 564 781 504 771 q 670 808 625 791 q 760 848 715 825 m 415 662 q 300 619 338 662 q 261 506 261 575 q 301 392 261 435 q 417 349 340 349 q 525 390 487 349 q 562 508 562 432 q 415 662 562 662 m 420 887 q 302 920 350 887 q 228 1002 254 952 q 197 1102 202 1051 l 295 1121 q 339 1036 309 1068 q 420 1003 370 1003 q 502 1036 470 1003 q 548 1121 533 1068 l 646 1102 q 614 1002 640 1051 q 538 920 587 952 q 420 887 490 887 z "},"ĝ":{"ha":855,"x_min":75,"x_max":803,"o":"m 760 848 l 803 715 q 704 695 758 700 q 584 690 650 690 q 686 614 652 660 q 720 499 720 567 q 684 368 720 426 q 582 278 649 311 q 424 245 516 245 q 367 248 391 245 q 321 257 343 251 q 287 195 287 235 q 306 156 287 172 q 381 139 325 139 l 512 139 q 654 111 593 139 q 751 37 716 84 q 786 -71 786 -11 q 689 -245 786 -183 q 410 -307 593 -307 q 208 -281 281 -307 q 105 -202 135 -254 q 75 -75 75 -150 l 218 -75 q 233 -140 218 -115 q 291 -178 249 -166 q 412 -191 333 -191 q 578 -162 529 -191 q 626 -81 626 -133 q 586 -10 626 -35 q 479 14 546 14 l 350 14 q 194 58 244 14 q 145 159 145 101 q 229 295 145 240 q 130 381 161 330 q 99 505 99 432 q 139 645 99 585 q 250 738 179 704 q 413 771 321 771 q 564 781 504 771 q 670 808 625 791 q 760 848 715 825 m 415 662 q 300 619 338 662 q 261 506 261 575 q 301 392 261 435 q 417 349 340 349 q 525 390 487 349 q 562 508 562 432 q 415 662 562 662 m 241 887 l 175 958 l 371 1138 l 474 1138 l 668 958 l 604 887 l 422 1017 l 241 887 z "},"ģ":{"ha":855,"x_min":75,"x_max":803,"o":"m 760 848 l 803 715 q 704 695 758 700 q 584 690 650 690 q 686 614 652 660 q 720 499 720 567 q 684 368 720 426 q 582 278 649 311 q 424 245 516 245 q 367 248 391 245 q 321 257 343 251 q 287 195 287 235 q 306 156 287 172 q 381 139 325 139 l 512 139 q 654 111 593 139 q 751 37 716 84 q 786 -71 786 -11 q 689 -245 786 -183 q 410 -307 593 -307 q 208 -281 281 -307 q 105 -202 135 -254 q 75 -75 75 -150 l 218 -75 q 233 -140 218 -115 q 291 -178 249 -166 q 412 -191 333 -191 q 578 -162 529 -191 q 626 -81 626 -133 q 586 -10 626 -35 q 479 14 546 14 l 350 14 q 194 58 244 14 q 145 159 145 101 q 229 295 145 240 q 130 381 161 330 q 99 505 99 432 q 139 645 99 585 q 250 738 179 704 q 413 771 321 771 q 564 781 504 771 q 670 808 625 791 q 760 848 715 825 m 415 662 q 300 619 338 662 q 261 506 261 575 q 301 392 261 435 q 417 349 340 349 q 525 390 487 349 q 562 508 562 432 q 415 662 562 662 m 419 850 q 355 875 381 850 q 328 939 328 900 q 355 1032 328 976 l 425 1179 l 514 1179 l 473 1014 q 500 981 489 1000 q 510 939 510 962 q 484 875 510 901 q 419 850 457 850 z "},"ġ":{"ha":855,"x_min":75,"x_max":803,"o":"m 760 848 l 803 715 q 704 695 758 700 q 584 690 650 690 q 686 614 652 660 q 720 499 720 567 q 684 368 720 426 q 582 278 649 311 q 424 245 516 245 q 367 248 391 245 q 321 257 343 251 q 287 195 287 235 q 306 156 287 172 q 381 139 325 139 l 512 139 q 654 111 593 139 q 751 37 716 84 q 786 -71 786 -11 q 689 -245 786 -183 q 410 -307 593 -307 q 208 -281 281 -307 q 105 -202 135 -254 q 75 -75 75 -150 l 218 -75 q 233 -140 218 -115 q 291 -178 249 -166 q 412 -191 333 -191 q 578 -162 529 -191 q 626 -81 626 -133 q 586 -10 626 -35 q 479 14 546 14 l 350 14 q 194 58 244 14 q 145 159 145 101 q 229 295 145 240 q 130 381 161 330 q 99 505 99 432 q 139 645 99 585 q 250 738 179 704 q 413 771 321 771 q 564 781 504 771 q 670 808 625 791 q 760 848 715 825 m 415 662 q 300 619 338 662 q 261 506 261 575 q 301 392 261 435 q 417 349 340 349 q 525 390 487 349 q 562 508 562 432 q 415 662 562 662 m 421 1120 q 496 1092 467 1120 q 526 1021 526 1063 q 496 949 526 978 q 421 920 467 920 q 345 949 375 920 q 316 1021 316 978 q 345 1092 316 1063 q 421 1120 375 1120 z "},"h":{"ha":855,"x_min":127,"x_max":729,"o":"m 286 1070 l 286 660 q 393 744 332 716 q 519 772 454 772 q 677 713 625 772 q 729 548 729 654 l 729 0 l 570 0 l 570 524 q 544 621 570 591 q 462 650 519 650 q 363 616 408 650 q 286 538 317 581 l 286 0 l 127 0 l 127 1053 l 286 1070 z "},"ħ":{"ha":855,"x_min":21,"x_max":729,"o":"m 511 958 l 511 849 l 286 849 l 286 660 q 393 744 332 716 q 519 772 454 772 q 677 713 625 772 q 729 548 729 654 l 729 0 l 570 0 l 570 524 q 544 621 570 591 q 462 650 519 650 q 363 616 408 650 q 286 538 317 581 l 286 0 l 127 0 l 127 849 l 21 849 l 21 958 l 127 958 l 127 1053 l 286 1070 l 286 958 l 511 958 z "},"ĥ":{"ha":855,"x_min":127,"x_max":729,"o":"m 286 1070 l 286 660 q 393 744 332 716 q 519 772 454 772 q 677 713 625 772 q 729 548 729 654 l 729 0 l 570 0 l 570 524 q 544 621 570 591 q 462 650 519 650 q 363 616 408 650 q 286 538 317 581 l 286 0 l 127 0 l 127 1053 l 286 1070 m 479 1385 l 674 1219 l 611 1147 l 427 1264 l 245 1147 l 180 1219 l 377 1385 l 479 1385 z "},"i":{"ha":855,"x_min":153,"x_max":742,"o":"m 427 1120 q 502 1092 474 1120 q 531 1021 531 1063 q 502 949 531 978 q 427 920 474 920 q 352 949 381 920 q 323 1021 323 978 q 352 1092 323 1063 q 427 1120 381 1120 m 538 752 l 538 117 l 742 117 l 742 0 l 153 0 l 153 117 l 378 117 l 378 635 l 160 635 l 160 752 l 538 752 z "},"ı":{"ha":855,"x_min":153,"x_max":742,"o":"m 538 752 l 538 117 l 742 117 l 742 0 l 153 0 l 153 117 l 378 117 l 378 635 l 160 635 l 160 752 l 538 752 z "},"í":{"ha":855,"x_min":153,"x_max":742,"o":"m 538 752 l 538 117 l 742 117 l 742 0 l 153 0 l 153 117 l 378 117 l 378 635 l 160 635 l 160 752 l 538 752 m 543 1156 l 610 1028 l 298 902 l 251 985 l 543 1156 z "},"ĭ":{"ha":855,"x_min":153,"x_max":742,"o":"m 538 752 l 538 117 l 742 117 l 742 0 l 153 0 l 153 117 l 378 117 l 378 635 l 160 635 l 160 752 l 538 752 m 426 887 q 308 920 356 887 q 235 1002 261 952 q 203 1102 209 1051 l 301 1121 q 346 1036 316 1068 q 426 1003 376 1003 q 508 1036 476 1003 q 554 1121 540 1068 l 652 1102 q 620 1002 647 1051 q 545 920 593 952 q 426 887 496 887 z "},"î":{"ha":855,"x_min":153,"x_max":742,"o":"m 538 752 l 538 117 l 742 117 l 742 0 l 153 0 l 153 117 l 378 117 l 378 635 l 160 635 l 160 752 l 538 752 m 248 887 l 181 958 l 377 1138 l 480 1138 l 675 958 l 610 887 l 429 1017 l 248 887 z "},"ï":{"ha":855,"x_min":153,"x_max":742,"o":"m 538 752 l 538 117 l 742 117 l 742 0 l 153 0 l 153 117 l 378 117 l 378 635 l 160 635 l 160 752 l 538 752 m 274 917 q 208 943 234 917 q 181 1008 181 969 q 208 1072 181 1046 q 274 1098 234 1098 q 339 1072 313 1098 q 366 1008 366 1046 q 339 943 366 969 q 274 917 313 917 m 581 917 q 516 943 543 917 q 489 1008 489 969 q 516 1072 489 1046 q 581 1098 543 1098 q 647 1072 620 1098 q 675 1008 675 1046 q 647 943 675 969 q 581 917 620 917 z "},"ì":{"ha":855,"x_min":153,"x_max":742,"o":"m 538 752 l 538 117 l 742 117 l 742 0 l 153 0 l 153 117 l 378 117 l 378 635 l 160 635 l 160 752 l 538 752 m 558 886 l 251 1019 l 325 1147 l 605 970 l 558 886 z "},"ĳ":{"ha":855,"x_min":62,"x_max":748,"o":"m 261 1120 q 337 1092 308 1120 q 367 1021 367 1063 q 337 949 367 978 q 261 920 308 920 q 186 949 215 920 q 157 1021 157 978 q 186 1092 157 1063 q 261 1120 215 1120 m 642 1120 q 718 1092 689 1120 q 748 1021 748 1063 q 718 949 748 978 q 642 920 689 920 q 568 949 597 920 q 538 1021 538 978 q 568 1092 538 1063 q 642 1120 597 1120 m 736 752 l 736 114 q 687 -87 736 -6 q 550 -219 637 -167 q 349 -307 462 -271 l 298 -187 q 440 -125 376 -160 q 542 -36 504 -90 q 580 103 580 18 l 580 637 l 338 637 l 338 117 l 450 117 l 450 0 l 62 0 l 62 117 l 182 117 l 182 637 l 69 637 l 69 752 l 736 752 z "},"ī":{"ha":855,"x_min":153,"x_max":742,"o":"m 538 752 l 538 117 l 742 117 l 742 0 l 153 0 l 153 117 l 378 117 l 378 635 l 160 635 l 160 752 l 538 752 m 629 953 l 226 953 l 226 1069 l 629 1069 l 629 953 z "},"į":{"ha":855,"x_min":153,"x_max":742,"o":"m 538 752 l 538 117 l 742 117 l 742 0 l 153 0 l 153 117 l 378 117 l 378 635 l 160 635 l 160 752 l 538 752 m 427 1120 q 503 1092 474 1120 q 532 1021 532 1063 q 503 949 532 978 q 427 920 474 920 q 352 949 381 920 q 323 1021 323 978 q 352 1092 323 1063 q 427 1120 381 1120 m 516 55 l 538 0 q 430 -56 467 -29 q 380 -108 393 -83 q 366 -161 366 -134 q 447 -229 366 -229 q 488 -227 469 -229 q 531 -219 507 -224 l 516 -329 q 475 -337 496 -334 q 429 -340 455 -340 q 292 -297 344 -340 q 239 -186 239 -255 q 311 -41 239 -97 q 516 55 382 16 z "},"ĩ":{"ha":855,"x_min":153,"x_max":742,"o":"m 538 752 l 538 117 l 742 117 l 742 0 l 153 0 l 153 117 l 378 117 l 378 635 l 160 635 l 160 752 l 538 752 m 510 925 q 443 942 471 925 q 393 975 416 959 q 345 992 370 992 q 304 976 321 992 q 270 927 287 959 l 180 972 q 246 1070 205 1029 q 344 1110 287 1110 q 412 1094 385 1110 q 462 1060 439 1077 q 509 1043 484 1043 q 548 1059 531 1043 q 585 1105 566 1074 l 675 1061 q 605 961 647 997 q 510 925 563 925 z "},"j":{"ha":855,"x_min":123,"x_max":649,"o":"m 524 1120 q 600 1092 571 1120 q 629 1021 629 1063 q 600 949 629 978 q 524 920 571 920 q 449 949 478 920 q 420 1021 420 978 q 449 1092 420 1063 q 524 1120 478 1120 m 649 752 l 649 158 q 590 -75 649 18 q 420 -223 532 -167 q 148 -307 308 -278 l 123 -184 q 317 -125 234 -163 q 444 -22 400 -88 q 489 147 489 43 l 489 635 l 192 635 l 192 752 l 649 752 z "},"ȷ":{"ha":855,"x_min":123,"x_max":649,"o":"m 649 752 l 649 158 q 590 -75 649 18 q 420 -223 532 -167 q 148 -307 308 -278 l 123 -184 q 317 -125 234 -163 q 444 -22 400 -88 q 489 147 489 43 l 489 635 l 192 635 l 192 752 l 649 752 z "},"ĵ":{"ha":855,"x_min":123,"x_max":771,"o":"m 649 752 l 649 158 q 590 -75 649 18 q 420 -223 532 -167 q 148 -307 308 -278 l 123 -184 q 317 -125 234 -163 q 444 -22 400 -88 q 489 147 489 43 l 489 635 l 192 635 l 192 752 l 649 752 m 345 887 l 278 958 l 474 1138 l 577 1138 l 771 958 l 707 887 l 526 1017 l 345 887 z "},"k":{"ha":855,"x_min":132,"x_max":821,"o":"m 291 1072 l 291 0 l 132 0 l 132 1054 l 291 1072 m 789 752 l 485 416 l 821 0 l 626 0 l 303 412 l 603 752 l 789 752 z "},"ķ":{"ha":855,"x_min":132,"x_max":821,"o":"m 291 1072 l 291 0 l 132 0 l 132 1054 l 291 1072 m 789 752 l 485 416 l 821 0 l 626 0 l 303 412 l 603 752 l 789 752 m 435 -98 q 499 -123 473 -98 q 526 -187 526 -148 q 499 -280 526 -224 l 429 -427 l 340 -427 l 381 -261 q 354 -229 365 -248 q 344 -187 344 -210 q 370 -123 344 -149 q 435 -98 397 -98 z "},"ĸ":{"ha":855,"x_min":127,"x_max":816,"o":"m 784 752 l 478 410 l 816 0 l 621 0 l 298 399 l 598 752 l 784 752 m 286 752 l 286 0 l 127 0 l 127 752 l 286 752 z "},"l":{"ha":855,"x_min":71,"x_max":731,"o":"m 457 1054 l 457 205 q 489 131 457 153 q 571 110 521 110 q 633 116 603 110 q 690 135 662 123 l 731 24 q 649 -6 697 6 q 537 -19 600 -19 q 361 45 424 -19 q 298 219 298 109 l 298 937 l 71 937 l 71 1054 l 457 1054 z "},"ĺ":{"ha":855,"x_min":71,"x_max":731,"o":"m 457 1054 l 457 205 q 489 131 457 153 q 571 110 521 110 q 633 116 603 110 q 690 135 662 123 l 731 24 q 649 -6 697 6 q 537 -19 600 -19 q 361 45 424 -19 q 298 219 298 109 l 298 937 l 71 937 l 71 1054 l 457 1054 m 488 1457 l 555 1329 l 243 1204 l 196 1286 l 488 1457 z "},"ľ":{"ha":855,"x_min":71,"x_max":731,"o":"m 457 1054 l 457 205 q 489 131 457 153 q 571 110 521 110 q 633 116 603 110 q 690 135 662 123 l 731 24 q 649 -6 697 6 q 537 -19 600 -19 q 361 45 424 -19 q 298 219 298 109 l 298 937 l 71 937 l 71 1054 l 457 1054 m 564 1073 l 706 1056 l 617 774 l 522 788 l 564 1073 z "},"ļ":{"ha":855,"x_min":71,"x_max":731,"o":"m 457 1054 l 457 205 q 489 131 457 153 q 571 110 521 110 q 633 116 603 110 q 690 135 662 123 l 731 24 q 649 -6 697 6 q 537 -19 600 -19 q 361 45 424 -19 q 298 219 298 109 l 298 937 l 71 937 l 71 1054 l 457 1054 m 514 -98 q 578 -123 551 -98 q 604 -187 604 -148 q 578 -280 604 -224 l 507 -427 l 419 -427 l 459 -261 q 433 -229 443 -248 q 422 -187 422 -210 q 449 -123 422 -149 q 514 -98 475 -98 z "},"ŀ":{"ha":855,"x_min":71,"x_max":907,"o":"m 457 1054 l 457 205 q 489 131 457 153 q 571 110 521 110 q 633 116 603 110 q 690 135 662 123 l 731 24 q 649 -6 697 6 q 537 -19 600 -19 q 361 45 424 -19 q 298 219 298 109 l 298 937 l 71 937 l 71 1054 l 457 1054 m 803 645 q 878 616 849 645 q 907 545 907 588 q 878 473 907 502 q 803 444 849 444 q 727 473 756 444 q 698 545 698 502 q 727 616 698 588 q 803 645 756 645 z "},"ł":{"ha":855,"x_min":71,"x_max":731,"o":"m 570 712 l 632 615 l 457 509 l 457 205 q 489 131 457 153 q 571 110 521 110 q 633 116 603 110 q 690 135 662 123 l 731 24 q 649 -6 697 6 q 537 -19 600 -19 q 361 45 424 -19 q 298 219 298 109 l 298 411 l 213 359 l 151 454 l 298 545 l 298 937 l 71 937 l 71 1054 l 457 1054 l 457 642 l 570 712 z "},"m":{"ha":855,"x_min":59,"x_max":796,"o":"m 645 772 q 722 754 688 772 q 776 688 756 735 q 796 559 796 642 l 796 0 l 654 0 l 654 537 q 646 622 654 596 q 603 647 637 647 q 548 631 576 647 q 492 573 520 614 l 492 0 l 363 0 l 363 537 q 355 622 363 596 q 313 647 347 647 q 257 631 285 647 q 202 573 229 614 l 202 0 l 59 0 l 59 752 l 179 752 l 190 671 q 260 744 222 716 q 351 772 297 772 q 429 751 394 772 q 480 676 464 730 q 551 745 512 719 q 645 772 590 772 z "},"n":{"ha":855,"x_min":127,"x_max":729,"o":"m 127 0 l 127 752 l 264 752 l 276 655 q 387 742 323 712 q 519 772 452 772 q 677 713 625 772 q 729 548 729 654 l 729 0 l 570 0 l 570 469 q 550 609 570 567 q 462 650 531 650 q 362 616 407 650 q 286 540 317 583 l 286 0 l 127 0 z "},"ń":{"ha":855,"x_min":127,"x_max":729,"o":"m 127 0 l 127 752 l 264 752 l 276 655 q 387 742 323 712 q 519 772 452 772 q 677 713 625 772 q 729 548 729 654 l 729 0 l 570 0 l 570 469 q 550 609 570 567 q 462 650 531 650 q 362 616 407 650 q 286 540 317 583 l 286 0 l 127 0 m 543 1156 l 610 1028 l 298 902 l 251 985 l 543 1156 z "},"ŉ":{"ha":855,"x_min":-3,"x_max":747,"o":"m 88 1077 q 152 1052 126 1077 q 177 989 177 1027 q 170 946 177 969 q 142 881 162 923 l 83 761 l -3 761 l 35 916 q 8 947 19 929 q -3 989 -3 966 q 24 1052 -3 1026 q 88 1077 50 1077 m 145 0 l 145 752 l 283 752 l 294 655 q 406 742 342 712 q 537 772 469 772 q 695 713 642 772 q 747 548 747 654 l 747 0 l 588 0 l 588 469 q 568 609 588 567 q 480 650 549 650 q 380 616 425 650 q 304 540 335 583 l 304 0 l 145 0 z "},"ň":{"ha":855,"x_min":127,"x_max":729,"o":"m 127 0 l 127 752 l 264 752 l 276 655 q 387 742 323 712 q 519 772 452 772 q 677 713 625 772 q 729 548 729 654 l 729 0 l 570 0 l 570 469 q 550 609 570 567 q 462 650 531 650 q 362 616 407 650 q 286 540 317 583 l 286 0 l 127 0 m 610 1138 l 675 1067 l 480 887 l 377 887 l 181 1067 l 248 1138 l 429 1007 l 610 1138 z "},"ņ":{"ha":855,"x_min":127,"x_max":729,"o":"m 127 0 l 127 752 l 264 752 l 276 655 q 387 742 323 712 q 519 772 452 772 q 677 713 625 772 q 729 548 729 654 l 729 0 l 570 0 l 570 469 q 550 609 570 567 q 462 650 531 650 q 362 616 407 650 q 286 540 317 583 l 286 0 l 127 0 m 432 -98 q 496 -123 469 -98 q 522 -187 522 -148 q 496 -280 522 -224 l 425 -427 l 337 -427 l 377 -261 q 351 -229 361 -248 q 340 -187 340 -210 q 367 -123 340 -149 q 432 -98 393 -98 z "},"ñ":{"ha":855,"x_min":127,"x_max":729,"o":"m 127 0 l 127 752 l 264 752 l 276 655 q 387 742 323 712 q 519 772 452 772 q 677 713 625 772 q 729 548 729 654 l 729 0 l 570 0 l 570 469 q 550 609 570 567 q 462 650 531 650 q 362 616 407 650 q 286 540 317 583 l 286 0 l 127 0 m 510 925 q 443 942 471 925 q 393 975 416 959 q 345 992 370 992 q 304 976 321 992 q 270 927 287 959 l 180 972 q 246 1070 205 1029 q 344 1110 287 1110 q 412 1094 385 1110 q 462 1060 439 1077 q 509 1043 484 1043 q 548 1059 531 1043 q 585 1105 566 1074 l 675 1061 q 605 961 647 997 q 510 925 563 925 z "},"ŋ":{"ha":855,"x_min":127,"x_max":729,"o":"m 729 58 q 700 -123 729 -56 q 614 -230 670 -189 q 478 -306 558 -271 l 420 -189 q 502 -142 469 -167 q 553 -73 536 -117 q 570 48 570 -29 l 570 469 q 551 609 570 567 q 462 650 531 650 q 363 616 408 650 q 286 538 317 581 l 286 0 l 127 0 l 127 752 l 264 752 l 276 655 q 388 742 323 712 q 519 772 452 772 q 677 713 625 772 q 729 548 729 654 l 729 58 z "},"o":{"ha":855,"x_min":88,"x_max":767,"o":"m 428 772 q 680 665 593 772 q 767 377 767 557 q 728 169 767 258 q 612 30 688 80 q 427 -19 536 -19 q 175 87 263 -19 q 88 376 88 194 q 127 582 88 493 q 243 722 167 672 q 428 772 319 772 m 428 648 q 298 582 342 648 q 255 376 255 516 q 298 170 255 236 q 427 104 341 104 q 557 170 514 104 q 600 377 600 236 q 557 582 600 516 q 428 648 514 648 z "},"ó":{"ha":855,"x_min":88,"x_max":767,"o":"m 428 772 q 680 665 593 772 q 767 377 767 557 q 728 169 767 258 q 612 30 688 80 q 427 -19 536 -19 q 175 87 263 -19 q 88 376 88 194 q 127 582 88 493 q 243 722 167 672 q 428 772 319 772 m 428 648 q 298 582 342 648 q 255 376 255 516 q 298 170 255 236 q 427 104 341 104 q 557 170 514 104 q 600 377 600 236 q 557 582 600 516 q 428 648 514 648 m 543 1156 l 610 1028 l 298 902 l 251 985 l 543 1156 z "},"ŏ":{"ha":855,"x_min":88,"x_max":767,"o":"m 428 772 q 680 665 593 772 q 767 377 767 557 q 728 169 767 258 q 612 30 688 80 q 427 -19 536 -19 q 175 87 263 -19 q 88 376 88 194 q 127 582 88 493 q 243 722 167 672 q 428 772 319 772 m 428 648 q 298 582 342 648 q 255 376 255 516 q 298 170 255 236 q 427 104 341 104 q 557 170 514 104 q 600 377 600 236 q 557 582 600 516 q 428 648 514 648 m 425 887 q 308 920 355 887 q 234 1002 260 952 q 202 1102 208 1051 l 301 1121 q 345 1036 315 1068 q 425 1003 375 1003 q 507 1036 476 1003 q 553 1121 539 1068 l 652 1102 q 619 1002 646 1051 q 544 920 593 952 q 425 887 496 887 z "},"ô":{"ha":855,"x_min":88,"x_max":767,"o":"m 428 772 q 680 665 593 772 q 767 377 767 557 q 728 169 767 258 q 612 30 688 80 q 427 -19 536 -19 q 175 87 263 -19 q 88 376 88 194 q 127 582 88 493 q 243 722 167 672 q 428 772 319 772 m 428 648 q 298 582 342 648 q 255 376 255 516 q 298 170 255 236 q 427 104 341 104 q 557 170 514 104 q 600 377 600 236 q 557 582 600 516 q 428 648 514 648 m 247 887 l 180 958 l 377 1138 l 479 1138 l 674 958 l 610 887 l 428 1017 l 247 887 z "},"ö":{"ha":855,"x_min":88,"x_max":767,"o":"m 428 772 q 680 665 593 772 q 767 377 767 557 q 728 169 767 258 q 612 30 688 80 q 427 -19 536 -19 q 175 87 263 -19 q 88 376 88 194 q 127 582 88 493 q 243 722 167 672 q 428 772 319 772 m 428 648 q 298 582 342 648 q 255 376 255 516 q 298 170 255 236 q 427 104 341 104 q 557 170 514 104 q 600 377 600 236 q 557 582 600 516 q 428 648 514 648 m 274 917 q 207 943 234 917 q 180 1008 180 969 q 207 1072 180 1046 q 274 1098 234 1098 q 339 1072 312 1098 q 365 1008 365 1046 q 339 943 365 969 q 274 917 312 917 m 580 917 q 515 943 542 917 q 489 1008 489 969 q 515 1072 489 1046 q 580 1098 542 1098 q 647 1072 620 1098 q 674 1008 674 1046 q 647 943 674 969 q 580 917 620 917 z "},"ò":{"ha":855,"x_min":88,"x_max":767,"o":"m 428 772 q 680 665 593 772 q 767 377 767 557 q 728 169 767 258 q 612 30 688 80 q 427 -19 536 -19 q 175 87 263 -19 q 88 376 88 194 q 127 582 88 493 q 243 722 167 672 q 428 772 319 772 m 428 648 q 298 582 342 648 q 255 376 255 516 q 298 170 255 236 q 427 104 341 104 q 557 170 514 104 q 600 377 600 236 q 557 582 600 516 q 428 648 514 648 m 557 886 l 251 1019 l 324 1147 l 605 970 l 557 886 z "},"ő":{"ha":855,"x_min":88,"x_max":767,"o":"m 428 772 q 680 665 593 772 q 767 377 767 557 q 728 169 767 258 q 612 30 688 80 q 427 -19 536 -19 q 175 87 263 -19 q 88 376 88 194 q 127 582 88 493 q 243 722 167 672 q 428 772 319 772 m 428 648 q 298 582 342 648 q 255 376 255 516 q 298 170 255 236 q 427 104 341 104 q 557 170 514 104 q 600 377 600 236 q 557 582 600 516 q 428 648 514 648 m 243 942 l 365 1202 l 489 1144 l 335 900 l 243 942 m 476 944 l 608 1202 l 730 1140 l 566 898 l 476 944 z "},"ō":{"ha":855,"x_min":88,"x_max":767,"o":"m 428 772 q 680 665 593 772 q 767 377 767 557 q 728 169 767 258 q 612 30 688 80 q 427 -19 536 -19 q 175 87 263 -19 q 88 376 88 194 q 127 582 88 493 q 243 722 167 672 q 428 772 319 772 m 428 648 q 298 582 342 648 q 255 376 255 516 q 298 170 255 236 q 427 104 341 104 q 557 170 514 104 q 600 377 600 236 q 557 582 600 516 q 428 648 514 648 m 628 953 l 226 953 l 226 1069 l 628 1069 l 628 953 z "},"ø":{"ha":855,"x_min":88,"x_max":767,"o":"m 428 772 q 489 767 459 772 l 543 937 l 667 900 l 609 724 q 726 587 685 677 q 767 377 767 498 q 728 169 767 258 q 612 30 688 80 q 427 -19 536 -19 q 366 -15 395 -19 l 313 -189 l 189 -152 l 248 26 q 129 163 171 73 q 88 376 88 253 q 127 582 88 493 q 243 722 167 672 q 428 772 319 772 m 428 650 q 298 583 341 650 q 254 376 254 517 q 309 146 254 205 l 466 647 q 428 650 449 650 m 600 377 q 547 605 600 545 l 391 105 q 427 103 407 103 q 558 169 515 103 q 600 377 600 235 z "},"ǿ":{"ha":855,"x_min":88,"x_max":767,"o":"m 428 772 q 489 767 459 772 l 543 937 l 667 900 l 609 724 q 726 587 685 677 q 767 377 767 498 q 728 169 767 258 q 612 30 688 80 q 427 -19 536 -19 q 366 -15 395 -19 l 313 -189 l 189 -152 l 248 26 q 129 163 171 73 q 88 376 88 253 q 127 582 88 493 q 243 722 167 672 q 428 772 319 772 m 428 650 q 298 583 341 650 q 254 376 254 517 q 309 146 254 205 l 466 647 q 428 650 449 650 m 600 377 q 547 605 600 545 l 391 105 q 427 103 407 103 q 558 169 515 103 q 600 377 600 235 m 543 1156 l 610 1028 l 298 902 l 251 985 l 543 1156 z "},"õ":{"ha":855,"x_min":88,"x_max":767,"o":"m 428 772 q 680 665 593 772 q 767 377 767 557 q 728 169 767 258 q 612 30 688 80 q 427 -19 536 -19 q 175 87 263 -19 q 88 376 88 194 q 127 582 88 493 q 243 722 167 672 q 428 772 319 772 m 428 648 q 298 582 342 648 q 255 376 255 516 q 298 170 255 236 q 427 104 341 104 q 557 170 514 104 q 600 377 600 236 q 557 582 600 516 q 428 648 514 648 m 509 925 q 443 942 470 925 q 392 975 415 959 q 345 992 370 992 q 303 976 320 992 q 269 927 286 959 l 179 972 q 245 1070 204 1029 q 343 1110 286 1110 q 412 1094 385 1110 q 461 1060 439 1077 q 509 1043 483 1043 q 548 1059 531 1043 q 584 1105 565 1074 l 674 1061 q 604 961 646 997 q 509 925 562 925 z "},"œ":{"ha":855,"x_min":-6,"x_max":871,"o":"m 634 772 q 816 673 761 772 q 871 396 871 573 q 870 360 871 377 q 868 328 870 343 l 509 328 q 553 154 518 209 q 656 99 588 99 q 723 113 694 99 q 787 152 753 127 l 853 58 q 762 2 811 24 q 651 -19 714 -19 q 520 16 574 -19 q 436 113 467 51 q 365 17 410 53 q 243 -19 321 -19 q 54 87 114 -19 q -6 376 -6 194 q 20 582 -6 493 q 100 722 46 672 q 243 772 155 772 q 369 735 325 772 q 439 635 413 698 q 511 733 465 694 q 634 772 558 772 m 628 657 q 544 607 573 657 q 508 432 516 558 l 734 432 q 711 600 732 544 q 628 657 689 657 m 255 649 q 169 583 194 649 q 143 376 143 518 q 169 167 143 229 q 255 104 194 104 q 340 165 316 104 q 365 377 365 226 q 340 584 365 519 q 255 649 315 649 z "},"p":{"ha":855,"x_min":127,"x_max":767,"o":"m 494 772 q 653 723 593 772 q 740 586 713 675 q 767 377 767 497 q 734 173 767 263 q 637 32 702 83 q 477 -19 573 -19 q 286 64 359 -19 l 286 -289 l 127 -307 l 127 752 l 266 752 l 276 655 q 375 743 318 713 q 494 772 431 772 m 449 649 q 355 617 396 649 q 286 541 314 585 l 286 189 q 435 105 343 105 q 558 170 516 105 q 600 377 600 235 q 562 585 600 521 q 449 649 525 649 z "},"þ":{"ha":855,"x_min":127,"x_max":767,"o":"m 286 1072 l 286 666 q 494 772 366 772 q 653 723 593 772 q 740 586 713 675 q 767 377 767 497 q 734 173 767 263 q 637 32 702 83 q 477 -19 573 -19 q 286 64 359 -19 l 286 -289 l 127 -307 l 127 1054 l 286 1072 m 449 649 q 355 617 396 649 q 286 541 314 585 l 286 189 q 435 105 343 105 q 558 170 516 105 q 600 377 600 235 q 562 585 600 521 q 449 649 525 649 z "},"q":{"ha":855,"x_min":88,"x_max":728,"o":"m 380 772 q 580 679 505 772 l 590 752 l 728 752 l 728 -307 l 568 -289 l 568 83 q 364 -19 491 -19 q 204 30 264 -19 q 115 168 143 79 q 88 376 88 257 q 121 580 88 491 q 220 721 155 670 q 380 772 286 772 m 421 650 q 297 583 339 650 q 255 376 255 516 q 294 169 255 232 q 407 105 333 105 q 500 136 460 105 q 568 210 541 166 l 568 566 q 504 628 542 606 q 421 650 467 650 z "},"r":{"ha":855,"x_min":134,"x_max":774,"o":"m 134 0 l 134 114 l 244 114 l 244 639 l 134 639 l 134 752 l 366 752 l 395 578 q 500 722 437 672 q 660 771 562 771 q 720 766 694 771 q 774 752 747 761 l 746 475 l 632 475 l 632 628 q 495 564 553 625 q 404 393 437 504 l 404 114 l 556 114 l 556 0 l 134 0 z "},"ŕ":{"ha":855,"x_min":134,"x_max":774,"o":"m 134 0 l 134 114 l 244 114 l 244 639 l 134 639 l 134 752 l 366 752 l 395 578 q 500 722 437 672 q 660 771 562 771 q 720 766 694 771 q 774 752 747 761 l 746 475 l 632 475 l 632 628 q 495 564 553 625 q 404 393 437 504 l 404 114 l 556 114 l 556 0 l 134 0 m 583 1156 l 650 1028 l 338 902 l 291 985 l 583 1156 z "},"ř":{"ha":855,"x_min":134,"x_max":774,"o":"m 134 0 l 134 114 l 244 114 l 244 639 l 134 639 l 134 752 l 366 752 l 395 578 q 500 722 437 672 q 660 771 562 771 q 720 766 694 771 q 774 752 747 761 l 746 475 l 632 475 l 632 628 q 495 564 553 625 q 404 393 437 504 l 404 114 l 556 114 l 556 0 l 134 0 m 650 1138 l 714 1067 l 520 887 l 417 887 l 221 1067 l 288 1138 l 469 1007 l 650 1138 z "},"ŗ":{"ha":855,"x_min":134,"x_max":774,"o":"m 134 0 l 134 114 l 244 114 l 244 639 l 134 639 l 134 752 l 366 752 l 395 578 q 500 722 437 672 q 660 771 562 771 q 720 766 694 771 q 774 752 747 761 l 746 475 l 632 475 l 632 628 q 495 564 553 625 q 404 393 437 504 l 404 114 l 556 114 l 556 0 l 134 0 m 327 -98 q 391 -123 365 -98 q 417 -187 417 -148 q 391 -280 417 -224 l 321 -427 l 232 -427 l 273 -261 q 246 -229 256 -248 q 236 -187 236 -210 q 262 -123 236 -149 q 327 -98 288 -98 z "},"s":{"ha":855,"x_min":91,"x_max":732,"o":"m 400 103 q 519 130 475 103 q 563 204 563 157 q 551 256 563 234 q 499 296 538 277 q 382 334 461 314 q 252 380 308 353 q 166 448 197 406 q 135 556 135 490 q 216 713 135 653 q 436 772 297 772 q 601 747 531 772 q 722 685 672 722 l 655 585 q 558 632 610 614 q 440 651 506 651 q 331 628 364 651 q 298 568 298 605 q 314 521 298 539 q 373 486 331 502 q 489 449 414 469 q 617 402 563 429 q 702 330 672 375 q 732 214 732 286 q 685 82 732 133 q 563 5 638 30 q 400 -19 487 -19 q 219 11 296 -19 q 91 87 143 41 l 176 184 q 277 126 220 148 q 400 103 334 103 z "},"ś":{"ha":855,"x_min":91,"x_max":732,"o":"m 400 103 q 519 130 475 103 q 563 204 563 157 q 551 256 563 234 q 499 296 538 277 q 382 334 461 314 q 252 380 308 353 q 166 448 197 406 q 135 556 135 490 q 216 713 135 653 q 436 772 297 772 q 601 747 531 772 q 722 685 672 722 l 655 585 q 558 632 610 614 q 440 651 506 651 q 331 628 364 651 q 298 568 298 605 q 314 521 298 539 q 373 486 331 502 q 489 449 414 469 q 617 402 563 429 q 702 330 672 375 q 732 214 732 286 q 685 82 732 133 q 563 5 638 30 q 400 -19 487 -19 q 219 11 296 -19 q 91 87 143 41 l 176 184 q 277 126 220 148 q 400 103 334 103 m 556 1156 l 623 1028 l 311 902 l 264 985 l 556 1156 z "},"š":{"ha":855,"x_min":91,"x_max":732,"o":"m 400 103 q 519 130 475 103 q 563 204 563 157 q 551 256 563 234 q 499 296 538 277 q 382 334 461 314 q 252 380 308 353 q 166 448 197 406 q 135 556 135 490 q 216 713 135 653 q 436 772 297 772 q 601 747 531 772 q 722 685 672 722 l 655 585 q 558 632 610 614 q 440 651 506 651 q 331 628 364 651 q 298 568 298 605 q 314 521 298 539 q 373 486 331 502 q 489 449 414 469 q 617 402 563 429 q 702 330 672 375 q 732 214 732 286 q 685 82 732 133 q 563 5 638 30 q 400 -19 487 -19 q 219 11 296 -19 q 91 87 143 41 l 176 184 q 277 126 220 148 q 400 103 334 103 m 623 1138 l 687 1067 l 493 887 l 390 887 l 194 1067 l 261 1138 l 442 1007 l 623 1138 z "},"ş":{"ha":855,"x_min":91,"x_max":732,"o":"m 400 103 q 519 130 475 103 q 563 204 563 157 q 551 256 563 234 q 499 296 538 277 q 382 334 461 314 q 252 380 308 353 q 166 448 197 406 q 135 556 135 490 q 216 713 135 653 q 436 772 297 772 q 601 747 531 772 q 722 685 672 722 l 655 585 q 558 632 610 614 q 440 651 506 651 q 331 628 364 651 q 298 568 298 605 q 314 521 298 539 q 373 486 331 502 q 489 449 414 469 q 617 402 563 429 q 702 330 672 375 q 732 214 732 286 q 685 82 732 133 q 563 5 638 30 q 400 -19 487 -19 q 219 11 296 -19 q 91 87 143 41 l 176 184 q 277 126 220 148 q 400 103 334 103 m 471 -202 q 438 -157 471 -168 q 345 -147 405 -147 l 360 23 l 458 23 l 458 -76 q 563 -119 530 -83 q 596 -204 596 -155 q 541 -314 596 -275 q 407 -353 486 -353 q 321 -342 362 -353 q 251 -314 280 -330 l 296 -232 q 390 -256 340 -256 q 448 -244 426 -256 q 471 -202 471 -231 z "},"ŝ":{"ha":855,"x_min":91,"x_max":732,"o":"m 400 103 q 519 130 475 103 q 563 204 563 157 q 551 256 563 234 q 499 296 538 277 q 382 334 461 314 q 252 380 308 353 q 166 448 197 406 q 135 556 135 490 q 216 713 135 653 q 436 772 297 772 q 601 747 531 772 q 722 685 672 722 l 655 585 q 558 632 610 614 q 440 651 506 651 q 331 628 364 651 q 298 568 298 605 q 314 521 298 539 q 373 486 331 502 q 489 449 414 469 q 617 402 563 429 q 702 330 672 375 q 732 214 732 286 q 685 82 732 133 q 563 5 638 30 q 400 -19 487 -19 q 219 11 296 -19 q 91 87 143 41 l 176 184 q 277 126 220 148 q 400 103 334 103 m 261 887 l 194 958 l 390 1138 l 493 1138 l 687 958 l 623 887 l 442 1017 l 261 887 z "},"ș":{"ha":855,"x_min":91,"x_max":732,"o":"m 400 103 q 519 130 475 103 q 563 204 563 157 q 551 256 563 234 q 499 296 538 277 q 382 334 461 314 q 252 380 308 353 q 166 448 197 406 q 135 556 135 490 q 216 713 135 653 q 436 772 297 772 q 601 747 531 772 q 722 685 672 722 l 655 585 q 558 632 610 614 q 440 651 506 651 q 331 628 364 651 q 298 568 298 605 q 314 521 298 539 q 373 486 331 502 q 489 449 414 469 q 617 402 563 429 q 702 330 672 375 q 732 214 732 286 q 685 82 732 133 q 563 5 638 30 q 400 -19 487 -19 q 219 11 296 -19 q 91 87 143 41 l 176 184 q 277 126 220 148 q 400 103 334 103 m 428 -98 q 492 -123 466 -98 q 519 -187 519 -148 q 492 -280 519 -224 l 422 -427 l 333 -427 l 374 -261 q 347 -229 358 -248 q 337 -187 337 -210 q 363 -123 337 -149 q 428 -98 390 -98 z "},"ß":{"ha":855,"x_min":118,"x_max":806,"o":"m 420 1072 q 611 1012 541 1072 q 682 861 682 952 q 660 777 682 810 q 608 719 637 744 q 556 670 578 694 q 533 613 533 645 q 561 551 533 577 q 629 500 588 525 q 710 441 670 474 q 778 360 750 408 q 806 239 806 311 q 769 98 806 155 q 669 10 731 40 q 531 -19 607 -19 q 431 -7 476 -19 q 349 28 386 5 l 406 136 q 459 115 431 123 q 514 107 487 107 q 608 139 574 107 q 642 234 642 170 q 616 319 642 286 q 552 379 590 353 q 475 432 514 405 q 411 496 437 459 q 385 588 385 533 q 407 671 385 638 q 457 730 429 704 q 507 783 486 756 q 529 850 529 811 q 504 920 529 887 q 417 953 479 953 q 312 910 347 953 q 277 767 277 866 l 277 0 l 118 0 l 118 759 q 196 991 118 910 q 420 1072 275 1072 z "},"t":{"ha":855,"x_min":101,"x_max":755,"o":"m 755 40 q 656 -3 714 14 q 536 -19 598 -19 q 337 49 405 -19 q 269 228 269 117 l 269 636 l 101 636 l 101 752 l 269 752 l 269 920 l 428 939 l 428 752 l 682 752 l 664 636 l 428 636 l 428 229 q 458 139 428 169 q 558 110 489 110 q 634 120 599 110 q 697 145 668 130 l 755 40 z "},"ŧ":{"ha":855,"x_min":101,"x_max":755,"o":"m 755 40 q 656 -3 714 14 q 536 -19 598 -19 q 337 49 405 -19 q 269 228 269 117 l 269 396 l 118 396 l 118 506 l 269 506 l 269 636 l 101 636 l 101 752 l 269 752 l 269 920 l 428 939 l 428 752 l 682 752 l 664 636 l 428 636 l 428 506 l 665 506 l 665 396 l 428 396 l 428 229 q 458 139 428 169 q 558 110 489 110 q 634 120 599 110 q 697 145 668 130 l 755 40 z "},"ť":{"ha":855,"x_min":101,"x_max":755,"o":"m 755 40 q 656 -3 714 14 q 536 -19 598 -19 q 337 49 405 -19 q 269 228 269 117 l 269 636 l 101 636 l 101 752 l 269 752 l 269 920 l 428 939 l 428 752 l 682 752 l 664 636 l 428 636 l 428 229 q 458 139 428 169 q 558 110 489 110 q 634 120 599 110 q 697 145 668 130 l 755 40 m 536 1123 l 678 1105 l 589 823 l 494 838 l 536 1123 z "},"ţ":{"ha":855,"x_min":101,"x_max":755,"o":"m 755 40 q 656 -3 714 14 q 536 -19 598 -19 q 337 49 405 -19 q 269 228 269 117 l 269 636 l 101 636 l 101 752 l 269 752 l 269 920 l 428 939 l 428 752 l 682 752 l 664 636 l 428 636 l 428 229 q 458 139 428 169 q 558 110 489 110 q 634 120 599 110 q 697 145 668 130 l 755 40 m 569 -202 q 536 -157 569 -168 q 443 -147 503 -147 l 458 23 l 556 23 l 556 -76 q 661 -119 628 -83 q 694 -204 694 -155 q 640 -314 694 -275 q 506 -353 585 -353 q 419 -342 460 -353 q 350 -314 378 -330 l 394 -232 q 488 -256 438 -256 q 547 -244 524 -256 q 569 -202 569 -231 z "},"ț":{"ha":855,"x_min":101,"x_max":755,"o":"m 755 40 q 656 -3 714 14 q 536 -19 598 -19 q 337 49 405 -19 q 269 228 269 117 l 269 636 l 101 636 l 101 752 l 269 752 l 269 920 l 428 939 l 428 752 l 682 752 l 664 636 l 428 636 l 428 229 q 458 139 428 169 q 558 110 489 110 q 634 120 599 110 q 697 145 668 130 l 755 40 m 526 -98 q 590 -123 564 -98 q 617 -187 617 -148 q 590 -280 617 -224 l 520 -427 l 432 -427 l 472 -261 q 446 -229 456 -248 q 435 -187 435 -210 q 462 -123 435 -149 q 526 -98 488 -98 z "},"u":{"ha":855,"x_min":127,"x_max":728,"o":"m 286 752 l 286 226 q 313 131 286 160 q 394 103 340 103 q 493 133 445 103 q 568 208 541 164 l 568 752 l 728 752 l 728 0 l 590 0 l 580 96 q 474 10 538 40 q 343 -19 410 -19 q 180 41 234 -19 q 127 207 127 101 l 127 752 l 286 752 z "},"ú":{"ha":855,"x_min":127,"x_max":728,"o":"m 286 752 l 286 226 q 313 131 286 160 q 394 103 340 103 q 493 133 445 103 q 568 208 541 164 l 568 752 l 728 752 l 728 0 l 590 0 l 580 96 q 474 10 538 40 q 343 -19 410 -19 q 180 41 234 -19 q 127 207 127 101 l 127 752 l 286 752 m 543 1156 l 610 1028 l 298 902 l 251 985 l 543 1156 z "},"ŭ":{"ha":855,"x_min":127,"x_max":728,"o":"m 286 752 l 286 226 q 313 131 286 160 q 394 103 340 103 q 493 133 445 103 q 568 208 541 164 l 568 752 l 728 752 l 728 0 l 590 0 l 580 96 q 474 10 538 40 q 343 -19 410 -19 q 180 41 234 -19 q 127 207 127 101 l 127 752 l 286 752 m 425 887 q 308 920 355 887 q 234 1002 260 952 q 202 1102 208 1051 l 301 1121 q 345 1036 315 1068 q 425 1003 375 1003 q 507 1036 476 1003 q 553 1121 539 1068 l 652 1102 q 619 1002 646 1051 q 544 920 593 952 q 425 887 496 887 z "},"û":{"ha":855,"x_min":127,"x_max":728,"o":"m 286 752 l 286 226 q 313 131 286 160 q 394 103 340 103 q 493 133 445 103 q 568 208 541 164 l 568 752 l 728 752 l 728 0 l 590 0 l 580 96 q 474 10 538 40 q 343 -19 410 -19 q 180 41 234 -19 q 127 207 127 101 l 127 752 l 286 752 m 247 887 l 180 958 l 377 1138 l 479 1138 l 674 958 l 610 887 l 428 1017 l 247 887 z "},"ü":{"ha":855,"x_min":127,"x_max":728,"o":"m 286 752 l 286 226 q 313 131 286 160 q 394 103 340 103 q 493 133 445 103 q 568 208 541 164 l 568 752 l 728 752 l 728 0 l 590 0 l 580 96 q 474 10 538 40 q 343 -19 410 -19 q 180 41 234 -19 q 127 207 127 101 l 127 752 l 286 752 m 274 917 q 207 943 234 917 q 180 1008 180 969 q 207 1072 180 1046 q 274 1098 234 1098 q 339 1072 312 1098 q 365 1008 365 1046 q 339 943 365 969 q 274 917 312 917 m 580 917 q 515 943 542 917 q 489 1008 489 969 q 515 1072 489 1046 q 580 1098 542 1098 q 647 1072 620 1098 q 674 1008 674 1046 q 647 943 674 969 q 580 917 620 917 z "},"ù":{"ha":855,"x_min":127,"x_max":728,"o":"m 286 752 l 286 226 q 313 131 286 160 q 394 103 340 103 q 493 133 445 103 q 568 208 541 164 l 568 752 l 728 752 l 728 0 l 590 0 l 580 96 q 474 10 538 40 q 343 -19 410 -19 q 180 41 234 -19 q 127 207 127 101 l 127 752 l 286 752 m 557 886 l 251 1019 l 324 1147 l 605 970 l 557 886 z "},"ű":{"ha":855,"x_min":127,"x_max":730,"o":"m 286 752 l 286 226 q 313 131 286 160 q 394 103 340 103 q 493 133 445 103 q 568 208 541 164 l 568 752 l 728 752 l 728 0 l 590 0 l 580 96 q 474 10 538 40 q 343 -19 410 -19 q 180 41 234 -19 q 127 207 127 101 l 127 752 l 286 752 m 243 942 l 365 1202 l 489 1144 l 335 900 l 243 942 m 476 944 l 608 1202 l 730 1140 l 566 898 l 476 944 z "},"ū":{"ha":855,"x_min":127,"x_max":728,"o":"m 286 752 l 286 226 q 313 131 286 160 q 394 103 340 103 q 493 133 445 103 q 568 208 541 164 l 568 752 l 728 752 l 728 0 l 590 0 l 580 96 q 474 10 538 40 q 343 -19 410 -19 q 180 41 234 -19 q 127 207 127 101 l 127 752 l 286 752 m 628 953 l 226 953 l 226 1069 l 628 1069 l 628 953 z "},"ų":{"ha":855,"x_min":127,"x_max":728,"o":"m 286 752 l 286 226 q 313 131 286 160 q 394 103 340 103 q 493 133 445 103 q 568 208 541 164 l 568 752 l 728 752 l 728 0 l 590 0 l 580 96 q 474 10 538 40 q 343 -19 410 -19 q 180 41 234 -19 q 127 207 127 101 l 127 752 l 286 752 m 707 55 l 728 0 q 620 -56 657 -29 q 570 -108 583 -83 q 556 -161 556 -134 q 637 -229 556 -229 q 678 -227 660 -229 q 721 -219 697 -224 l 707 -329 q 666 -337 686 -334 q 619 -340 645 -340 q 482 -297 534 -340 q 429 -186 429 -255 q 501 -41 429 -97 q 707 55 573 16 z "},"ů":{"ha":855,"x_min":127,"x_max":728,"o":"m 286 752 l 286 226 q 313 131 286 160 q 394 103 340 103 q 493 133 445 103 q 568 208 541 164 l 568 752 l 728 752 l 728 0 l 590 0 l 580 96 q 474 10 538 40 q 343 -19 410 -19 q 180 41 234 -19 q 127 207 127 101 l 127 752 l 286 752 m 427 1195 q 553 1148 505 1195 q 600 1033 600 1100 q 553 920 600 967 q 427 873 505 873 q 302 920 350 873 q 254 1033 254 967 q 302 1148 254 1100 q 427 1195 350 1195 m 427 1110 q 375 1090 395 1110 q 355 1033 355 1070 q 375 976 355 996 q 427 957 395 957 q 480 976 460 957 q 499 1033 499 996 q 480 1090 499 1070 q 427 1110 460 1110 z "},"ũ":{"ha":855,"x_min":127,"x_max":728,"o":"m 286 752 l 286 226 q 313 131 286 160 q 394 103 340 103 q 493 133 445 103 q 568 208 541 164 l 568 752 l 728 752 l 728 0 l 590 0 l 580 96 q 474 10 538 40 q 343 -19 410 -19 q 180 41 234 -19 q 127 207 127 101 l 127 752 l 286 752 m 509 925 q 443 942 470 925 q 392 975 415 959 q 345 992 370 992 q 303 976 320 992 q 269 927 286 959 l 179 972 q 245 1070 204 1029 q 343 1110 286 1110 q 412 1094 385 1110 q 461 1060 439 1077 q 509 1043 483 1043 q 548 1059 531 1043 q 584 1105 565 1074 l 674 1061 q 604 961 646 997 q 509 925 562 925 z "},"v":{"ha":855,"x_min":69,"x_max":786,"o":"m 786 752 l 521 0 l 334 0 l 69 752 l 240 752 l 431 132 l 623 752 l 786 752 z "},"w":{"ha":855,"x_min":17,"x_max":838,"o":"m 715 0 l 516 0 l 431 534 l 340 0 l 145 0 l 17 752 l 171 752 l 249 99 l 354 657 l 514 657 l 611 99 l 689 752 l 838 752 l 715 0 z "},"ẃ":{"ha":855,"x_min":17,"x_max":838,"o":"m 715 0 l 516 0 l 431 534 l 340 0 l 145 0 l 17 752 l 171 752 l 249 99 l 354 657 l 514 657 l 611 99 l 689 752 l 838 752 l 715 0 m 543 1156 l 610 1028 l 298 902 l 251 985 l 543 1156 z "},"ŵ":{"ha":855,"x_min":17,"x_max":838,"o":"m 715 0 l 516 0 l 431 534 l 340 0 l 145 0 l 17 752 l 171 752 l 249 99 l 354 657 l 514 657 l 611 99 l 689 752 l 838 752 l 715 0 m 247 887 l 180 958 l 377 1138 l 479 1138 l 674 958 l 610 887 l 428 1017 l 247 887 z "},"ẅ":{"ha":855,"x_min":17,"x_max":838,"o":"m 715 0 l 516 0 l 431 534 l 340 0 l 145 0 l 17 752 l 171 752 l 249 99 l 354 657 l 514 657 l 611 99 l 689 752 l 838 752 l 715 0 m 274 917 q 207 943 234 917 q 180 1008 180 969 q 207 1072 180 1046 q 274 1098 234 1098 q 339 1072 312 1098 q 365 1008 365 1046 q 339 943 365 969 q 274 917 312 917 m 580 917 q 515 943 542 917 q 489 1008 489 969 q 515 1072 489 1046 q 580 1098 542 1098 q 647 1072 620 1098 q 674 1008 674 1046 q 647 943 674 969 q 580 917 620 917 z "},"ẁ":{"ha":855,"x_min":17,"x_max":838,"o":"m 715 0 l 516 0 l 431 534 l 340 0 l 145 0 l 17 752 l 171 752 l 249 99 l 354 657 l 514 657 l 611 99 l 689 752 l 838 752 l 715 0 m 557 886 l 251 1019 l 324 1147 l 605 970 l 557 886 z "},"x":{"ha":855,"x_min":61,"x_max":793,"o":"m 238 0 l 61 0 l 331 397 l 91 752 l 275 752 l 429 487 l 583 752 l 758 752 l 523 403 l 793 0 l 606 0 l 422 307 l 238 0 z "},"y":{"ha":855,"x_min":70,"x_max":785,"o":"m 785 752 l 526 -3 q 451 -154 496 -88 q 334 -259 405 -219 q 157 -308 263 -298 l 137 -188 q 258 -153 213 -176 q 330 -92 303 -130 q 377 0 357 -55 l 323 0 l 70 752 l 239 752 l 429 111 l 621 752 l 785 752 z "},"ý":{"ha":855,"x_min":70,"x_max":785,"o":"m 785 752 l 526 -3 q 451 -154 496 -88 q 334 -259 405 -219 q 157 -308 263 -298 l 137 -188 q 258 -153 213 -176 q 330 -92 303 -130 q 377 0 357 -55 l 323 0 l 70 752 l 239 752 l 429 111 l 621 752 l 785 752 m 543 1156 l 610 1028 l 298 902 l 251 985 l 543 1156 z "},"ŷ":{"ha":855,"x_min":70,"x_max":785,"o":"m 785 752 l 526 -3 q 451 -154 496 -88 q 334 -259 405 -219 q 157 -308 263 -298 l 137 -188 q 258 -153 213 -176 q 330 -92 303 -130 q 377 0 357 -55 l 323 0 l 70 752 l 239 752 l 429 111 l 621 752 l 785 752 m 247 887 l 180 958 l 377 1138 l 479 1138 l 674 958 l 610 887 l 428 1017 l 247 887 z "},"ÿ":{"ha":855,"x_min":70,"x_max":785,"o":"m 785 752 l 526 -3 q 451 -154 496 -88 q 334 -259 405 -219 q 157 -308 263 -298 l 137 -188 q 258 -153 213 -176 q 330 -92 303 -130 q 377 0 357 -55 l 323 0 l 70 752 l 239 752 l 429 111 l 621 752 l 785 752 m 274 917 q 207 943 234 917 q 180 1008 180 969 q 207 1072 180 1046 q 274 1098 234 1098 q 339 1072 312 1098 q 365 1008 365 1046 q 339 943 365 969 q 274 917 312 917 m 580 917 q 515 943 542 917 q 489 1008 489 969 q 515 1072 489 1046 q 580 1098 542 1098 q 647 1072 620 1098 q 674 1008 674 1046 q 647 943 674 969 q 580 917 620 917 z "},"ỳ":{"ha":855,"x_min":70,"x_max":785,"o":"m 785 752 l 526 -3 q 451 -154 496 -88 q 334 -259 405 -219 q 157 -308 263 -298 l 137 -188 q 258 -153 213 -176 q 330 -92 303 -130 q 377 0 357 -55 l 323 0 l 70 752 l 239 752 l 429 111 l 621 752 l 785 752 m 557 886 l 251 1019 l 324 1147 l 605 970 l 557 886 z "},"z":{"ha":855,"x_min":130,"x_max":724,"o":"m 321 128 l 724 128 l 707 0 l 130 0 l 130 117 l 530 624 l 162 624 l 162 752 l 719 752 l 719 635 l 321 128 z "},"ź":{"ha":855,"x_min":130,"x_max":724,"o":"m 321 128 l 724 128 l 707 0 l 130 0 l 130 117 l 530 624 l 162 624 l 162 752 l 719 752 l 719 635 l 321 128 m 556 1156 l 623 1028 l 311 902 l 264 985 l 556 1156 z "},"ž":{"ha":855,"x_min":130,"x_max":724,"o":"m 321 128 l 724 128 l 707 0 l 130 0 l 130 117 l 530 624 l 162 624 l 162 752 l 719 752 l 719 635 l 321 128 m 623 1138 l 687 1067 l 492 887 l 390 887 l 193 1067 l 260 1138 l 441 1007 l 623 1138 z "},"ż":{"ha":855,"x_min":130,"x_max":724,"o":"m 321 128 l 724 128 l 707 0 l 130 0 l 130 117 l 530 624 l 162 624 l 162 752 l 719 752 l 719 635 l 321 128 m 439 1120 q 515 1092 486 1120 q 544 1021 544 1063 q 515 949 544 978 q 439 920 486 920 q 364 949 393 920 q 335 1021 335 978 q 364 1092 335 1063 q 439 1120 393 1120 z "},"ⁿ":{"ha":855,"x_min":230,"x_max":625,"o":"m 483 1030 q 590 991 555 1030 q 625 883 625 953 l 625 538 l 501 538 l 501 835 q 491 911 501 887 q 448 934 481 934 q 397 916 422 934 q 355 873 373 897 l 355 538 l 230 538 l 230 1019 l 342 1019 l 347 964 q 412 1015 376 999 q 483 1030 448 1030 z "},"ª":{"ha":855,"x_min":135,"x_max":718,"o":"m 414 1072 q 604 1018 544 1072 q 664 866 664 964 l 664 603 q 675 556 664 571 q 709 533 687 540 l 677 437 q 593 462 625 442 q 543 521 561 481 q 458 458 508 479 q 353 436 407 436 q 195 489 255 436 q 135 628 135 542 q 217 776 135 724 q 444 828 298 828 l 525 828 l 525 862 q 492 940 525 918 q 393 962 459 962 q 319 954 364 962 q 222 929 274 946 l 184 1029 q 307 1062 249 1053 q 414 1072 365 1072 m 525 734 l 457 734 q 327 709 367 734 q 287 634 287 683 q 314 563 287 587 q 390 538 341 538 q 464 559 429 538 q 525 614 500 579 l 525 734 m 718 125 l 718 0 l 147 0 l 147 125 l 718 125 z "},"º":{"ha":855,"x_min":127,"x_max":726,"o":"m 427 1072 q 587 1032 519 1072 q 690 921 654 992 q 726 755 726 850 q 690 589 726 661 q 586 476 653 517 q 427 436 519 436 q 267 476 335 436 q 164 587 200 516 q 127 755 127 659 q 164 918 127 847 q 268 1031 201 990 q 427 1072 335 1072 m 427 962 q 317 913 358 962 q 276 755 276 863 q 317 596 276 646 q 427 546 358 546 q 537 596 497 546 q 578 755 578 646 q 537 913 578 863 q 427 962 497 962 m 713 125 l 713 0 l 142 0 l 142 125 l 713 125 z "},"А":{"ha":855,"x_min":12,"x_max":843,"o":"m 600 236 l 249 236 l 180 0 l 12 0 l 325 983 l 530 983 l 843 0 l 668 0 l 600 236 m 283 364 l 565 364 l 425 855 l 283 364 z "},"Б":{"ha":855,"x_min":120,"x_max":786,"o":"m 695 983 l 679 852 l 285 852 l 285 611 l 400 611 q 683 540 580 611 q 786 313 786 468 q 738 133 786 202 q 603 32 689 64 q 405 0 516 0 l 120 0 l 120 983 l 695 983 m 405 487 l 285 487 l 285 128 l 406 128 q 516 144 469 128 q 589 200 563 160 q 615 311 615 239 q 558 447 615 406 q 405 487 501 487 z "},"В":{"ha":855,"x_min":115,"x_max":786,"o":"m 786 283 q 754 147 786 202 q 667 59 722 92 q 544 14 612 27 q 403 0 476 0 l 115 0 l 115 983 l 384 983 q 517 971 453 983 q 632 931 581 959 q 713 854 683 902 q 743 734 743 806 q 717 629 743 672 q 650 559 692 585 q 561 521 608 532 q 666 487 615 511 q 752 413 718 462 q 786 283 786 365 m 575 721 q 529 827 575 795 q 399 859 483 859 l 281 859 l 281 575 l 409 575 q 533 609 491 575 q 575 721 575 644 m 613 284 q 588 386 613 350 q 519 438 562 423 q 421 452 475 452 l 281 452 l 281 128 l 414 128 q 507 140 461 128 q 583 185 553 152 q 613 284 613 219 z "},"Г":{"ha":855,"x_min":169,"x_max":783,"o":"m 783 983 l 766 846 l 334 846 l 334 0 l 169 0 l 169 983 l 783 983 z "},"Ѓ":{"ha":855,"x_min":169,"x_max":783,"o":"m 783 983 l 766 846 l 334 846 l 334 0 l 169 0 l 169 983 l 783 983 m 603 1316 l 669 1189 l 352 1074 l 311 1157 l 603 1316 z "},"Ґ":{"ha":855,"x_min":169,"x_max":783,"o":"m 783 983 l 766 846 l 334 846 l 334 0 l 169 0 l 169 983 l 627 983 l 627 1196 l 783 1196 l 783 983 z "},"Ӷ":{"ha":855,"x_min":169,"x_max":783,"o":"m 423 130 l 423 -224 l 295 -224 l 271 0 l 169 0 l 169 983 l 783 983 l 766 846 l 334 846 l 334 130 l 423 130 z "},"Ғ":{"ha":855,"x_min":79,"x_max":823,"o":"m 591 617 l 591 505 l 374 505 l 374 0 l 209 0 l 209 505 l 79 505 l 79 617 l 209 617 l 209 983 l 823 983 l 807 846 l 374 846 l 374 617 l 591 617 z "},"Ҕ":{"ha":855,"x_min":98,"x_max":791,"o":"m 555 -309 q 454 -292 496 -309 q 382 -252 412 -275 l 444 -152 q 489 -174 467 -165 q 543 -182 510 -182 q 604 -158 583 -182 q 626 -80 626 -134 l 626 1 l 627 1 l 627 332 q 465 519 627 519 q 349 494 397 519 q 263 429 301 470 l 263 0 l 98 0 l 98 983 l 677 983 l 657 852 l 263 852 l 263 558 q 368 627 309 602 q 503 652 426 652 q 715 568 639 652 q 791 333 791 484 l 791 0 l 791 0 l 791 -68 q 728 -249 791 -188 q 555 -309 665 -309 z "},"Д":{"ha":855,"x_min":-5,"x_max":811,"o":"m -5 130 l 53 130 q 99 194 80 157 q 131 292 118 231 q 159 449 145 353 q 190 691 172 546 l 224 983 l 738 983 l 738 130 l 811 130 l 811 -224 l 682 -224 l 658 -1 l 147 0 l 124 -224 l -5 -224 l -5 130 m 578 855 l 365 855 l 348 692 q 321 459 334 554 q 292 302 308 364 q 253 199 276 239 q 197 130 230 159 l 578 130 l 578 855 z "},"Е":{"ha":855,"x_min":161,"x_max":760,"o":"m 326 858 l 326 562 l 682 562 l 682 437 l 326 437 l 326 125 l 760 125 l 760 0 l 161 0 l 161 983 l 752 983 l 734 858 l 326 858 z "},"Ѐ":{"ha":855,"x_min":161,"x_max":760,"o":"m 326 858 l 326 562 l 682 562 l 682 437 l 326 437 l 326 125 l 760 125 l 760 0 l 161 0 l 161 983 l 752 983 l 734 858 l 326 858 m 353 1319 l 633 1157 l 590 1074 l 280 1192 l 353 1319 z "},"Ё":{"ha":855,"x_min":161,"x_max":760,"o":"m 326 858 l 326 562 l 682 562 l 682 437 l 326 437 l 326 125 l 760 125 l 760 0 l 161 0 l 161 983 l 752 983 l 734 858 l 326 858 z "},"Ж":{"ha":855,"x_min":12,"x_max":843,"o":"m 366 462 l 296 462 l 162 0 l 12 0 l 178 527 l 30 983 l 177 983 l 298 568 l 366 568 l 366 983 l 489 983 l 489 568 l 557 568 l 679 983 l 825 983 l 677 527 l 843 0 l 690 0 l 557 462 l 489 462 l 489 0 l 366 0 l 366 462 z "},"З":{"ha":855,"x_min":35,"x_max":782,"o":"m 401 1003 q 586 970 508 1003 q 707 879 665 937 q 750 744 750 821 q 691 600 750 654 q 539 531 631 546 q 661 495 606 524 q 749 415 717 467 q 782 288 782 363 q 735 129 782 199 q 601 20 689 60 q 392 -19 514 -19 q 190 17 281 -19 q 35 121 99 53 l 127 209 q 249 135 183 161 q 390 110 314 110 q 553 158 495 110 q 611 289 611 206 q 551 420 611 379 q 397 461 491 461 l 226 461 l 246 589 l 390 589 q 527 624 469 589 q 584 734 584 659 q 530 840 584 804 q 391 876 476 876 q 255 853 315 876 q 142 788 194 829 l 56 879 q 401 1003 202 1003 z "},"И":{"ha":855,"x_min":102,"x_max":753,"o":"m 102 0 l 102 983 l 259 983 l 259 548 q 256 386 259 456 q 246 259 252 316 q 231 145 239 202 l 556 983 l 753 983 l 753 0 l 595 0 l 595 433 q 604 657 595 557 q 623 833 613 756 l 301 0 l 102 0 z "},"Й":{"ha":855,"x_min":102,"x_max":753,"o":"m 102 0 l 102 983 l 259 983 l 259 548 q 256 386 259 456 q 246 259 252 316 q 231 145 239 202 l 556 983 l 753 983 l 753 0 l 595 0 l 595 433 q 604 657 595 557 q 623 833 613 756 l 301 0 l 102 0 z "},"Ѝ":{"ha":855,"x_min":102,"x_max":753,"o":"m 102 0 l 102 983 l 259 983 l 259 548 q 256 386 259 456 q 246 259 252 316 q 231 145 239 202 l 556 983 l 753 983 l 753 0 l 595 0 l 595 433 q 604 657 595 557 q 623 833 613 756 l 301 0 l 102 0 m 324 1319 l 604 1157 l 561 1074 l 251 1192 l 324 1319 z "},"Ҋ":{"ha":855,"x_min":102,"x_max":881,"o":"m 425 1082 q 270 1133 330 1082 q 202 1265 210 1184 l 301 1284 q 425 1199 326 1199 q 553 1284 528 1199 l 652 1265 q 582 1133 643 1184 q 425 1082 521 1082 m 102 0 l 102 983 l 259 983 l 259 548 q 256 386 259 456 q 246 259 252 316 q 231 145 239 202 l 556 983 l 753 983 l 753 143 l 881 143 l 759 -224 l 626 -224 l 678 0 l 595 0 l 595 433 q 604 657 595 557 q 623 833 613 756 l 301 0 l 102 0 z "},"К":{"ha":855,"x_min":112,"x_max":848,"o":"m 381 451 l 277 451 l 277 0 l 112 0 l 112 983 l 277 983 l 277 580 l 382 580 l 651 983 l 821 983 l 520 527 l 848 0 l 658 0 l 381 451 z "},"Ќ":{"ha":855,"x_min":112,"x_max":848,"o":"m 381 451 l 277 451 l 277 0 l 112 0 l 112 983 l 277 983 l 277 580 l 382 580 l 651 983 l 821 983 l 520 527 l 848 0 l 658 0 l 381 451 m 573 1316 l 638 1189 l 321 1074 l 281 1157 l 573 1316 z "},"Л":{"ha":855,"x_min":6,"x_max":753,"o":"m 753 983 l 753 0 l 588 0 l 588 850 l 365 850 l 338 609 q 306 375 323 471 q 267 214 288 278 q 219 108 246 150 q 157 36 192 66 q 75 -21 121 6 l 6 95 q 58 144 35 117 q 102 220 82 170 q 140 359 123 270 q 175 596 158 449 l 221 983 l 753 983 z "},"М":{"ha":855,"x_min":36,"x_max":818,"o":"m 763 983 l 818 0 l 667 0 l 644 479 q 640 680 639 586 q 643 838 640 774 l 499 173 l 355 173 l 199 838 q 205 678 204 776 q 204 477 207 580 l 184 0 l 36 0 l 92 983 l 290 983 l 430 324 l 564 983 l 763 983 z "},"Н":{"ha":855,"x_min":102,"x_max":753,"o":"m 588 0 l 588 447 l 267 447 l 267 0 l 102 0 l 102 983 l 267 983 l 267 583 l 588 583 l 588 983 l 753 983 l 753 0 l 588 0 z "},"О":{"ha":855,"x_min":53,"x_max":801,"o":"m 801 491 q 759 225 801 340 q 634 45 717 110 q 427 -19 551 -19 q 221 43 304 -19 q 95 221 137 106 q 53 490 53 335 q 95 757 53 642 q 221 938 137 873 q 427 1003 304 1003 q 634 939 551 1003 q 759 761 717 876 q 801 491 801 646 m 630 491 q 583 778 630 682 q 427 874 536 874 q 271 777 318 874 q 224 490 224 681 q 273 205 224 300 q 427 110 321 110 q 583 205 536 110 q 630 491 630 301 z "},"П":{"ha":855,"x_min":102,"x_max":753,"o":"m 588 0 l 588 848 l 267 848 l 267 0 l 102 0 l 102 983 l 753 983 l 753 0 l 588 0 z "},"Р":{"ha":855,"x_min":136,"x_max":804,"o":"m 804 675 q 755 488 804 560 q 619 384 706 417 q 420 350 533 350 l 301 350 l 301 0 l 136 0 l 136 983 l 409 983 q 699 907 594 983 q 804 675 804 831 m 630 673 q 573 817 630 774 q 420 859 516 859 l 301 859 l 301 476 l 422 476 q 572 519 514 476 q 630 673 630 562 z "},"С":{"ha":855,"x_min":74,"x_max":821,"o":"m 510 1003 q 678 977 610 1003 q 806 902 746 951 l 720 800 q 518 873 632 873 q 382 835 444 873 q 283 715 321 798 q 246 493 246 632 q 281 274 246 357 q 379 152 317 190 q 518 115 440 115 q 649 141 597 115 q 741 199 701 167 l 821 98 q 696 15 771 50 q 512 -19 620 -19 q 288 39 387 -19 q 131 212 189 98 q 74 493 74 326 q 133 772 74 658 q 291 944 192 885 q 510 1003 390 1003 z "},"Т":{"ha":855,"x_min":48,"x_max":810,"o":"m 508 850 l 508 0 l 343 0 l 343 850 l 48 850 l 48 983 l 810 983 l 793 850 l 508 850 z "},"У":{"ha":855,"x_min":21,"x_max":841,"o":"m 841 983 l 560 286 q 473 125 520 188 q 353 27 425 61 q 165 -19 280 -7 l 142 103 q 264 130 217 112 q 341 180 311 147 q 397 266 371 213 l 338 266 l 21 983 l 192 983 l 445 367 l 674 983 l 841 983 z "},"Ў":{"ha":855,"x_min":21,"x_max":841,"o":"m 841 983 l 560 286 q 473 125 520 188 q 353 27 425 61 q 165 -19 280 -7 l 142 103 q 264 130 217 112 q 341 180 311 147 q 397 266 371 213 l 338 266 l 21 983 l 192 983 l 445 367 l 674 983 l 841 983 m 440 1077 q 285 1130 345 1077 q 217 1266 226 1183 l 315 1285 q 360 1218 330 1241 q 440 1194 390 1194 q 522 1218 490 1194 q 568 1285 553 1241 l 666 1266 q 597 1130 657 1183 q 440 1077 536 1077 z "},"Ф":{"ha":855,"x_min":14,"x_max":841,"o":"m 496 1028 l 496 937 q 756 815 672 925 q 841 496 841 705 q 753 170 841 282 q 496 48 665 58 l 496 -46 l 359 -46 l 359 48 q 101 168 189 56 q 14 496 14 281 q 98 815 14 705 q 359 937 183 925 l 359 1028 l 496 1028 m 365 833 q 220 751 266 828 q 175 496 175 675 q 218 243 175 323 q 365 154 261 162 l 365 833 m 489 833 l 489 154 q 637 243 593 162 q 680 496 680 323 q 635 751 680 675 q 489 833 590 828 z "},"Х":{"ha":855,"x_min":29,"x_max":825,"o":"m 54 983 l 237 983 l 427 629 l 620 983 l 796 983 l 524 531 l 825 0 l 642 0 l 425 418 l 206 0 l 29 0 l 327 524 l 54 983 z "},"Ч":{"ha":855,"x_min":58,"x_max":753,"o":"m 224 983 l 224 618 q 267 477 224 521 q 395 434 311 434 q 510 455 463 434 q 588 506 556 476 l 588 983 l 753 983 l 753 0 l 588 0 l 588 380 q 478 320 533 340 q 352 301 424 301 q 138 382 217 301 q 58 608 58 464 l 58 983 l 224 983 z "},"Ц":{"ha":855,"x_min":102,"x_max":833,"o":"m 102 0 l 102 983 l 267 983 l 267 132 l 588 132 l 588 983 l 753 983 l 753 130 l 833 130 l 833 -224 l 704 -224 l 681 0 l 102 0 z "},"Ш":{"ha":855,"x_min":60,"x_max":795,"o":"m 795 983 l 795 0 l 60 0 l 60 983 l 202 983 l 202 125 l 362 125 l 362 983 l 493 983 l 493 125 l 652 125 l 652 983 l 795 983 z "},"Щ":{"ha":855,"x_min":60,"x_max":875,"o":"m 875 130 l 875 -224 l 746 -224 l 723 0 l 60 0 l 60 983 l 202 983 l 202 125 l 362 125 l 362 983 l 493 983 l 493 125 l 652 125 l 652 983 l 795 983 l 795 130 l 875 130 z "},"Џ":{"ha":855,"x_min":102,"x_max":753,"o":"m 102 0 l 102 983 l 267 983 l 267 132 l 588 132 l 588 983 l 753 983 l 753 0 l 506 0 l 489 -224 l 366 -224 l 349 0 l 102 0 z "},"Ь":{"ha":855,"x_min":113,"x_max":799,"o":"m 278 983 l 278 631 l 407 631 q 694 557 590 631 q 799 323 799 484 q 750 138 799 209 q 614 33 701 67 q 413 0 527 0 l 113 0 l 113 983 l 278 983 m 415 507 l 278 507 l 278 127 l 417 127 q 526 144 479 127 q 599 204 573 161 q 625 322 625 246 q 568 465 625 422 q 415 507 511 507 z "},"Ы":{"ha":855,"x_min":39,"x_max":816,"o":"m 189 983 l 189 632 l 250 632 q 516 554 426 632 q 607 323 607 475 q 512 79 607 158 q 253 0 418 0 l 39 0 l 39 983 l 189 983 m 816 983 l 816 0 l 666 0 l 666 983 l 816 983 m 266 514 l 189 514 l 189 123 l 261 123 q 401 167 352 123 q 450 322 450 211 q 266 514 450 514 z "},"Ъ":{"ha":855,"x_min":-1,"x_max":831,"o":"m 317 983 l 317 631 l 439 631 q 726 557 622 631 q 831 323 831 484 q 782 137 831 208 q 646 33 733 66 q 446 0 558 0 l 157 0 l 157 851 l -1 851 l -1 983 l 317 983 m 449 509 l 317 509 l 317 126 l 443 126 q 556 142 507 126 q 633 201 605 159 q 661 322 661 244 q 603 465 661 422 q 449 509 546 509 z "},"Љ":{"ha":855,"x_min":-6,"x_max":855,"o":"m 511 983 l 511 631 q 767 556 680 631 q 855 323 855 481 q 764 76 855 152 q 518 0 673 0 l 368 0 l 368 864 l 254 864 l 226 439 q 204 231 217 310 q 172 106 191 152 q 126 32 153 60 q 65 -21 100 5 l -6 80 q 22 119 9 97 q 47 179 36 140 q 67 282 58 217 q 83 451 76 348 l 120 983 l 511 983 m 530 516 l 511 516 l 511 119 l 532 119 q 659 164 616 119 q 702 322 702 209 q 660 470 702 425 q 530 516 617 516 z "},"Њ":{"ha":855,"x_min":52,"x_max":855,"o":"m 513 983 l 513 600 q 767 530 679 600 q 855 311 855 461 q 765 73 855 145 q 516 0 676 0 l 368 0 l 368 482 l 197 482 l 197 0 l 52 0 l 52 983 l 197 983 l 197 600 l 368 600 l 368 983 l 513 983 m 530 484 l 513 484 l 513 121 l 530 121 q 660 160 616 122 q 704 309 704 198 q 660 445 704 407 q 530 484 617 483 z "},"Ѕ":{"ha":855,"x_min":45,"x_max":781,"o":"m 781 278 q 737 123 781 190 q 609 19 692 56 q 407 -19 525 -19 q 197 16 286 -19 q 45 113 107 52 l 135 214 q 254 138 187 165 q 406 111 320 111 q 550 151 489 111 q 610 270 610 190 q 592 343 610 313 q 530 397 574 373 q 408 444 486 421 q 172 556 252 491 q 91 737 91 622 q 135 877 91 817 q 255 970 179 937 q 429 1003 332 1003 q 615 972 536 1003 q 758 885 695 941 l 671 786 q 559 852 619 831 q 439 873 500 873 q 312 842 363 873 q 261 746 261 810 q 282 681 261 708 q 353 631 303 655 q 491 582 403 608 q 639 522 573 558 q 743 428 705 486 q 781 278 781 370 z "},"Є":{"ha":855,"x_min":69,"x_max":816,"o":"m 505 1003 q 673 976 604 1003 q 801 902 742 949 l 721 807 q 623 859 673 841 q 516 876 572 876 q 386 846 445 876 q 288 748 327 816 q 241 571 249 681 l 648 571 l 648 439 l 239 439 q 282 252 244 324 q 379 146 319 179 q 513 112 439 112 q 644 137 592 112 q 736 194 697 162 l 816 96 q 691 16 767 51 q 504 -19 614 -19 q 278 39 377 -19 q 125 212 180 98 q 69 493 69 326 q 128 772 69 658 q 286 944 187 885 q 505 1003 385 1003 z "},"Э":{"ha":855,"x_min":45,"x_max":779,"o":"m 378 1003 q 672 877 565 1003 q 779 502 779 752 q 728 213 779 329 q 582 39 676 97 q 362 -19 488 -19 q 183 15 264 -19 q 45 106 102 48 l 132 198 q 235 134 182 156 q 356 112 288 112 q 537 190 472 112 q 610 441 602 269 l 203 441 l 203 568 l 610 568 q 538 806 601 736 q 368 876 476 876 q 236 849 290 876 q 140 789 182 823 l 56 881 q 194 968 116 932 q 378 1003 273 1003 z "},"І":{"ha":855,"x_min":132,"x_max":723,"o":"m 723 983 l 723 857 l 511 857 l 511 127 l 723 127 l 723 0 l 132 0 l 132 127 l 344 127 l 344 857 l 132 857 l 132 983 l 723 983 z "},"Ї":{"ha":855,"x_min":132,"x_max":723,"o":"m 723 983 l 723 857 l 511 857 l 511 127 l 723 127 l 723 0 l 132 0 l 132 127 l 344 127 l 344 857 l 132 857 l 132 983 l 723 983 z "},"Ј":{"ha":855,"x_min":85,"x_max":724,"o":"m 724 983 l 724 337 q 687 161 724 242 q 572 31 651 80 q 365 -19 494 -19 q 215 5 284 -19 q 85 72 146 28 l 153 177 q 261 126 212 140 q 359 112 311 112 q 505 171 452 112 q 559 340 559 230 l 559 856 l 264 856 l 264 983 l 724 983 z "},"Ћ":{"ha":855,"x_min":-9,"x_max":815,"o":"m 603 983 l 586 856 l 369 856 l 369 575 q 453 630 406 609 q 561 652 500 652 q 815 354 815 652 l 815 0 l 655 0 l 655 356 q 625 483 655 445 q 521 521 594 521 q 430 500 466 521 q 369 457 394 479 l 369 0 l 209 0 l 209 856 l -9 856 l -9 983 l 603 983 z "},"Ю":{"ha":855,"x_min":58,"x_max":830,"o":"m 556 1003 q 771 874 712 1003 q 830 491 830 745 q 767 111 830 242 q 556 -19 705 -19 q 396 37 455 -19 q 312 199 338 94 q 283 447 286 303 l 199 447 l 199 0 l 58 0 l 58 983 l 199 983 l 199 571 l 285 571 q 355 891 293 778 q 556 1003 417 1003 m 556 882 q 485 847 511 882 q 446 726 458 811 q 434 493 434 642 q 446 258 434 343 q 485 137 458 173 q 556 102 511 102 q 626 137 600 102 q 665 257 653 172 q 677 491 677 342 q 665 726 677 641 q 626 847 653 811 q 556 882 600 882 z "},"Я":{"ha":855,"x_min":31,"x_max":753,"o":"m 753 983 l 753 0 l 588 0 l 588 380 l 406 380 l 212 0 l 31 0 l 256 415 q 86 684 86 491 q 184 906 86 829 q 470 983 282 983 l 753 983 m 588 860 l 462 860 q 260 682 260 860 q 308 546 260 588 q 448 503 357 503 l 588 503 l 588 860 z "},"Ђ":{"ha":855,"x_min":-9,"x_max":815,"o":"m 369 856 l 369 575 q 454 630 406 608 q 561 652 501 652 q 815 354 815 652 l 815 138 q 782 -35 815 32 q 689 -144 749 -103 q 549 -212 629 -184 l 507 -90 q 600 -36 568 -65 q 644 35 632 -6 q 655 140 655 77 l 655 356 q 625 483 655 445 q 521 521 594 521 q 430 500 466 521 q 369 457 394 479 l 369 0 l 209 0 l 209 856 l -9 856 l -9 983 l 603 983 l 586 856 l 369 856 z "},"Ѡ":{"ha":855,"x_min":21,"x_max":835,"o":"m 731 983 q 777 848 753 925 q 818 668 801 771 q 835 428 835 565 q 804 169 835 268 q 720 25 774 70 q 597 -21 666 -21 q 486 17 525 -21 q 428 123 448 55 q 367 17 406 55 q 262 -21 328 -21 q 144 24 199 -21 q 55 166 89 68 q 21 428 21 265 q 38 668 21 565 q 79 848 55 771 q 124 983 103 925 l 269 983 q 223 823 244 904 q 189 647 202 742 q 176 432 176 553 q 189 241 176 311 q 228 140 203 170 q 285 110 252 110 q 335 138 314 110 q 357 236 357 166 l 357 568 l 498 568 l 498 237 q 521 140 498 170 q 577 110 543 110 q 629 136 606 110 q 666 231 652 162 q 679 430 679 301 q 667 647 679 551 q 632 823 654 742 q 586 983 611 905 l 731 983 z "},"Ѣ":{"ha":855,"x_min":14,"x_max":820,"o":"m 204 0 l 204 749 l 14 749 l 14 858 l 204 858 l 204 983 l 369 983 l 369 858 l 571 858 l 571 749 l 369 749 l 369 618 l 448 618 q 718 544 615 618 q 820 320 820 470 q 771 138 820 209 q 637 34 722 68 q 442 0 552 0 l 204 0 m 369 127 l 446 127 q 589 168 533 127 q 646 317 646 209 q 592 454 646 413 q 447 494 538 494 l 369 494 l 369 127 z "},"Ѥ":{"ha":855,"x_min":47,"x_max":854,"o":"m 854 43 q 767 -2 815 16 q 650 -19 719 -19 q 397 98 489 -19 q 296 439 306 215 l 208 439 l 208 0 l 47 0 l 47 984 l 208 984 l 208 571 l 297 571 q 408 892 313 781 q 661 1003 504 1003 q 765 989 723 1003 q 848 949 808 975 l 783 847 q 726 871 754 863 q 664 879 699 879 q 524 807 577 879 q 459 568 470 736 l 746 568 l 746 441 l 457 441 q 516 187 464 266 q 659 108 568 108 q 735 119 704 108 q 794 146 766 130 l 854 43 z "},"Ѧ":{"ha":855,"x_min":12,"x_max":843,"o":"m 12 0 l 325 983 l 530 983 l 843 0 l 677 0 l 563 388 l 494 388 l 494 -1 l 357 -1 l 357 388 l 286 388 l 173 0 l 12 0 m 425 868 l 322 514 l 527 514 l 425 868 z "},"Ѩ":{"ha":855,"x_min":33,"x_max":868,"o":"m 216 0 l 307 400 l 177 400 l 177 -1 l 33 -1 l 33 983 l 177 983 l 177 511 l 332 511 l 439 983 l 644 983 l 868 0 l 724 0 l 640 400 l 598 400 l 598 -1 l 479 -1 l 479 400 l 438 400 l 355 0 l 216 0 m 538 884 l 461 511 l 617 511 l 538 884 z "},"Ѫ":{"ha":855,"x_min":35,"x_max":820,"o":"m 35 0 l 194 551 l 296 551 l 118 884 l 118 983 l 737 983 l 737 884 l 556 551 l 665 551 l 820 0 l 677 0 l 565 442 l 499 442 l 499 0 l 357 0 l 357 442 l 291 442 l 177 0 l 35 0 m 430 551 l 590 877 l 269 877 l 430 551 z "},"Ѭ":{"ha":855,"x_min":19,"x_max":886,"o":"m 19 -1 l 19 983 l 163 983 l 163 551 l 419 551 l 270 885 l 270 983 l 818 983 l 818 885 l 665 551 l 767 551 l 886 0 l 749 0 l 667 442 l 612 442 l 612 0 l 475 0 l 475 442 l 420 442 l 338 0 l 201 0 l 301 442 l 163 442 l 163 -1 l 19 -1 m 546 551 l 682 880 l 410 880 l 546 551 z "},"Ѯ":{"ha":855,"x_min":105,"x_max":749,"o":"m 586 1311 l 650 1239 l 454 1073 l 352 1073 l 155 1239 l 220 1311 l 402 1194 l 586 1311 m 331 -311 q 121 -96 121 -224 q 176 19 121 -23 q 355 82 231 61 q 520 141 461 100 q 578 268 578 182 q 531 392 578 354 q 387 429 483 429 l 226 429 l 226 535 l 513 853 l 105 853 l 105 983 l 699 983 l 699 856 l 405 541 l 429 541 q 670 467 590 540 q 749 262 749 395 q 707 109 749 170 q 595 14 664 48 q 446 -34 526 -21 q 345 -56 380 -46 q 297 -79 310 -66 q 284 -110 284 -92 q 312 -161 284 -138 q 389 -211 339 -184 l 331 -311 z "},"Ѱ":{"ha":855,"x_min":18,"x_max":837,"o":"m 350 0 l 350 269 q 98 377 177 286 q 18 608 18 469 l 18 983 l 171 983 l 171 611 q 210 458 171 514 q 356 390 249 403 l 356 983 l 500 983 l 500 392 q 644 459 604 405 q 684 611 684 514 l 684 983 l 837 983 l 837 608 q 756 379 837 470 q 506 270 675 288 l 506 0 l 350 0 z "},"Ѳ":{"ha":855,"x_min":53,"x_max":801,"o":"m 801 491 q 759 225 801 340 q 634 45 717 110 q 427 -19 551 -19 q 221 43 304 -19 q 95 221 137 106 q 53 490 53 335 q 95 757 53 642 q 221 938 137 873 q 427 1003 304 1003 q 634 939 551 1003 q 759 761 717 876 q 801 491 801 646 m 427 874 q 280 795 328 874 q 223 556 231 715 l 630 556 q 575 795 623 715 q 427 874 527 874 m 427 110 q 580 194 532 110 q 632 444 627 279 l 222 444 q 276 194 226 278 q 427 110 325 110 z "},"Ѵ":{"ha":855,"x_min":30,"x_max":848,"o":"m 812 873 q 793 878 802 875 q 774 880 784 880 q 712 816 730 880 l 499 0 l 305 0 l 30 983 l 207 983 l 402 157 l 559 832 q 626 964 580 925 q 749 1004 672 1004 q 804 998 780 1004 q 848 983 828 992 l 812 873 z "},"Ѷ":{"ha":855,"x_min":30,"x_max":848,"o":"m 812 873 q 793 878 802 875 q 774 880 784 880 q 712 816 730 880 l 499 0 l 305 0 l 30 983 l 207 983 l 402 157 l 559 832 q 626 964 580 925 q 749 1004 672 1004 q 804 998 780 1004 q 848 983 828 992 l 812 873 z "},"Ѹ":{"ha":855,"x_min":3,"x_max":847,"o":"m 228 -19 q 56 116 108 -19 q 3 490 3 251 q 26 762 3 647 q 99 940 49 877 q 228 1003 148 1003 q 358 942 309 1003 q 429 766 407 880 q 452 491 452 651 q 429 218 452 332 q 358 42 407 103 q 228 -19 309 -19 m 228 93 q 302 187 282 93 q 321 491 321 281 q 301 796 321 702 q 228 890 281 890 q 153 796 173 890 q 134 490 134 701 q 155 187 134 280 q 228 93 176 93 m 496 -308 l 473 -212 q 574 -142 536 -189 q 626 0 611 -95 l 568 0 l 456 752 l 576 752 l 652 111 l 726 752 l 847 752 l 732 -3 q 649 -213 712 -142 q 496 -308 585 -283 z "},"Җ":{"ha":855,"x_min":12,"x_max":871,"o":"m 366 462 l 296 462 l 162 0 l 12 0 l 178 527 l 30 983 l 177 983 l 298 568 l 366 568 l 366 983 l 489 983 l 489 568 l 557 568 l 679 983 l 825 983 l 677 527 l 802 130 l 871 130 l 871 -224 l 752 -224 l 731 0 l 690 0 l 557 462 l 489 462 l 489 0 l 366 0 l 366 462 z "},"Ҙ":{"ha":855,"x_min":35,"x_max":782,"o":"m 401 1003 q 586 970 508 1003 q 707 879 665 937 q 750 744 750 821 q 691 600 750 654 q 539 531 631 546 q 661 495 606 524 q 749 415 717 467 q 782 288 782 363 q 735 129 782 199 q 601 20 689 60 q 392 -19 514 -19 q 190 17 281 -19 q 35 121 99 53 l 127 209 q 249 135 183 161 q 390 110 314 110 q 553 158 495 110 q 611 289 611 206 q 551 420 611 379 q 397 461 491 461 l 226 461 l 246 589 l 390 589 q 527 624 469 589 q 584 734 584 659 q 530 840 584 804 q 391 876 476 876 q 255 853 315 876 q 142 788 194 829 l 56 879 q 401 1003 202 1003 z "},"Қ":{"ha":855,"x_min":112,"x_max":848,"o":"m 381 451 l 277 451 l 277 0 l 112 0 l 112 983 l 277 983 l 277 580 l 382 580 l 651 983 l 821 983 l 520 527 l 766 130 l 848 130 l 848 -224 l 719 -224 l 695 0 l 658 0 l 381 451 z "},"Ҝ":{"ha":855,"x_min":112,"x_max":845,"o":"m 329 212 l 329 455 l 267 455 l 267 0 l 112 0 l 112 983 l 267 983 l 267 575 l 329 575 l 329 813 l 407 813 l 407 575 l 438 575 l 653 983 l 818 983 l 564 527 l 845 0 l 667 0 l 439 455 l 407 455 l 407 212 l 329 212 z "},"Ҟ":{"ha":855,"x_min":38,"x_max":843,"o":"m 405 451 l 301 451 l 301 0 l 135 0 l 135 754 l 38 754 l 38 864 l 135 864 l 135 983 l 301 983 l 301 864 l 447 864 l 447 754 l 301 754 l 301 580 l 405 580 l 646 983 l 816 983 l 543 527 l 843 0 l 653 0 l 405 451 z "},"Ҡ":{"ha":855,"x_min":10,"x_max":857,"o":"m 420 452 l 328 452 l 328 0 l 167 0 l 167 851 l 10 851 l 10 983 l 328 983 l 328 578 l 420 578 l 663 983 l 830 983 l 555 527 l 857 0 l 670 0 l 420 452 z "},"Ң":{"ha":855,"x_min":98,"x_max":833,"o":"m 583 0 l 583 447 l 262 447 l 262 0 l 98 0 l 98 983 l 262 983 l 262 583 l 583 583 l 583 983 l 748 983 l 748 130 l 833 130 l 833 -224 l 704 -224 l 680 0 l 583 0 z "},"Ҥ":{"ha":855,"x_min":78,"x_max":869,"o":"m 503 0 l 503 446 l 243 446 l 243 0 l 78 0 l 78 983 l 243 983 l 243 583 l 503 583 l 503 983 l 869 983 l 850 850 l 667 850 l 667 0 l 503 0 z "},"Ҧ":{"ha":855,"x_min":37,"x_max":840,"o":"m 358 0 l 358 855 l 187 855 l 187 0 l 37 0 l 37 983 l 507 983 l 507 595 q 568 633 534 619 q 645 647 601 647 q 788 587 736 647 q 840 428 840 527 l 840 -76 q 777 -249 840 -189 q 619 -309 715 -309 q 517 -292 559 -309 q 446 -252 476 -275 l 506 -158 q 551 -181 528 -172 q 607 -190 573 -190 q 668 -166 647 -190 q 690 -88 690 -142 l 690 424 q 668 497 690 473 q 607 521 646 521 q 507 479 556 521 l 507 0 l 358 0 z "},"Ԥ":{"ha":855,"x_min":102,"x_max":833,"o":"m 588 0 l 588 848 l 267 848 l 267 0 l 102 0 l 102 983 l 753 983 l 753 130 l 833 130 l 833 -224 l 704 -224 l 681 0 l 588 0 z "},"Ҩ":{"ha":855,"x_min":43,"x_max":829,"o":"m 443 -21 q 234 38 324 -21 q 94 211 145 97 q 43 491 43 325 q 97 772 43 658 q 239 945 150 886 q 434 1004 328 1004 q 589 976 527 1004 q 711 901 652 949 l 629 801 q 537 856 582 838 q 439 875 491 875 q 331 838 381 875 q 249 717 281 801 q 218 491 218 633 q 247 269 218 353 q 328 146 276 184 q 446 108 379 108 q 462 108 454 108 q 398 239 422 175 q 375 373 375 304 q 437 547 375 479 q 600 615 499 615 q 766 552 703 615 q 829 377 829 489 q 784 187 829 279 q 654 39 739 95 q 708 -34 679 4 q 769 -115 737 -72 l 673 -185 q 605 -94 638 -138 q 541 -9 571 -51 q 443 -21 494 -21 m 511 375 q 531 255 511 311 q 584 143 550 199 q 684 380 684 207 q 600 500 684 500 q 534 466 556 500 q 511 375 511 432 z "},"Ҫ":{"ha":855,"x_min":74,"x_max":821,"o":"m 510 1003 q 678 977 610 1003 q 806 902 746 951 l 720 800 q 518 873 632 873 q 382 835 444 873 q 283 715 321 798 q 246 493 246 632 q 281 274 246 357 q 379 152 317 190 q 518 115 440 115 q 649 141 597 115 q 741 199 701 167 l 821 98 q 716 24 778 56 q 568 -16 654 -8 q 647 -90 618 -48 q 675 -187 675 -132 q 624 -306 675 -261 q 482 -350 572 -350 q 400 -340 435 -350 q 339 -315 365 -330 l 376 -227 q 416 -244 392 -236 q 471 -251 439 -251 q 532 -230 512 -251 q 552 -175 552 -209 q 528 -94 552 -135 q 447 -15 504 -53 q 254 62 338 -1 q 122 233 170 124 q 74 493 74 341 q 133 772 74 658 q 291 944 192 885 q 510 1003 390 1003 z "},"Ҭ":{"ha":855,"x_min":48,"x_max":810,"o":"m 588 130 l 588 -224 l 460 -224 l 437 0 l 343 0 l 343 850 l 48 850 l 48 983 l 810 983 l 793 850 l 508 850 l 508 130 l 588 130 z "},"Ү":{"ha":855,"x_min":16,"x_max":838,"o":"m 511 375 l 511 0 l 344 0 l 344 374 l 16 983 l 198 983 l 431 517 l 665 983 l 838 983 l 511 375 z "},"Ұ":{"ha":855,"x_min":16,"x_max":838,"o":"m 687 440 l 687 331 l 511 331 l 511 0 l 344 0 l 344 331 l 168 331 l 168 440 l 308 440 l 16 983 l 198 983 l 431 517 l 665 983 l 838 983 l 546 440 l 687 440 z "},"Ҳ":{"ha":855,"x_min":29,"x_max":831,"o":"m 831 130 l 831 -224 l 702 -224 l 679 0 l 642 0 l 642 1 l 425 418 l 206 0 l 29 0 l 327 524 l 54 983 l 237 983 l 427 629 l 620 983 l 796 983 l 524 531 l 751 130 l 831 130 z "},"Ҵ":{"ha":855,"x_min":0,"x_max":804,"o":"m 162 0 l 162 863 l 0 863 l 0 983 l 484 983 l 467 863 l 319 863 l 319 132 l 577 132 l 577 983 l 734 983 l 734 130 l 804 130 l 804 -224 l 684 -224 l 660 0 l 162 0 z "},"Ҷ":{"ha":855,"x_min":58,"x_max":833,"o":"m 833 130 l 833 -224 l 704 -224 l 681 0 l 588 0 l 588 380 q 478 320 533 340 q 352 301 424 301 q 138 382 217 301 q 58 608 58 464 l 58 983 l 224 983 l 224 618 q 267 477 224 521 q 395 434 311 434 q 510 455 463 434 q 588 506 556 476 l 588 983 l 753 983 l 753 130 l 833 130 z "},"Ҹ":{"ha":855,"x_min":58,"x_max":753,"o":"m 457 776 l 457 439 q 532 466 500 448 q 588 506 564 484 l 588 983 l 753 983 l 753 0 l 588 0 l 588 380 q 523 340 555 356 q 457 314 491 323 l 457 173 l 370 173 l 370 301 q 352 301 361 301 q 138 382 217 301 q 58 608 58 464 l 58 983 l 224 983 l 224 618 q 261 485 224 528 q 370 435 298 441 l 370 776 l 457 776 z "},"Һ":{"ha":855,"x_min":102,"x_max":796,"o":"m 507 652 q 719 568 643 652 q 796 333 796 484 l 796 0 l 630 0 l 630 332 q 469 519 630 519 q 353 494 400 519 q 267 429 306 470 l 267 0 l 102 0 l 102 983 l 267 983 l 267 558 q 372 627 313 602 q 507 652 430 652 z "},"Ԧ":{"ha":855,"x_min":102,"x_max":858,"o":"m 491 652 q 704 568 629 652 q 779 333 779 484 l 779 130 l 858 130 l 858 -224 l 729 -224 l 705 0 l 614 0 l 614 332 q 574 472 614 426 q 450 519 534 519 q 345 495 390 519 q 267 430 301 471 l 267 0 l 102 0 l 102 983 l 267 983 l 267 563 q 365 627 310 603 q 491 652 420 652 z "},"Ҽ":{"ha":855,"x_min":-2,"x_max":813,"o":"m -2 610 q 13 692 -2 657 q 48 756 28 727 l 144 715 q 126 669 134 692 q 119 620 119 647 q 189 546 119 546 l 194 546 q 291 883 205 763 q 516 1003 376 1003 q 736 876 660 1003 q 813 509 813 749 q 811 470 813 492 q 808 427 810 447 l 348 427 q 374 238 349 309 q 440 135 398 167 q 533 103 481 103 q 630 122 591 103 q 704 166 669 142 l 771 77 q 668 9 727 38 q 530 -19 608 -19 q 291 93 378 -19 q 193 429 203 206 q 47 482 97 429 q -2 610 -2 534 m 515 882 q 399 805 442 882 q 348 546 355 728 l 665 546 q 644 745 662 671 q 593 850 625 818 q 515 882 560 882 z "},"Ҿ":{"ha":855,"x_min":-2,"x_max":813,"o":"m -2 610 q 13 692 -2 657 q 48 756 28 727 l 144 715 q 126 669 134 692 q 119 620 119 647 q 189 546 119 546 l 194 546 q 291 883 205 763 q 516 1003 376 1003 q 736 876 660 1003 q 813 509 813 749 q 811 470 813 492 q 808 427 810 447 l 348 427 q 374 238 349 309 q 440 135 398 167 q 533 103 481 103 q 630 122 591 103 q 704 166 669 142 l 771 77 q 668 9 727 38 q 530 -19 608 -19 q 291 93 378 -19 q 193 429 203 206 q 47 482 97 429 q -2 610 -2 534 m 515 882 q 399 805 442 882 q 348 546 355 728 l 665 546 q 644 745 662 671 q 593 850 625 818 q 515 882 560 882 m 623 55 l 644 0 q 536 -56 573 -29 q 486 -108 499 -83 q 472 -161 472 -134 q 553 -229 472 -229 q 594 -227 575 -229 q 637 -219 613 -224 l 623 -329 q 582 -337 602 -334 q 535 -340 561 -340 q 398 -297 450 -340 q 345 -186 345 -255 q 417 -41 345 -97 q 623 55 489 16 z "},"Ӏ":{"ha":855,"x_min":132,"x_max":723,"o":"m 723 983 l 723 857 l 511 857 l 511 127 l 723 127 l 723 0 l 132 0 l 132 127 l 344 127 l 344 857 l 132 857 l 132 983 l 723 983 z "},"Ӂ":{"ha":855,"x_min":12,"x_max":843,"o":"m 366 462 l 296 462 l 162 0 l 12 0 l 178 527 l 30 983 l 177 983 l 298 568 l 366 568 l 366 983 l 489 983 l 489 568 l 557 568 l 679 983 l 825 983 l 677 527 l 843 0 l 690 0 l 557 462 l 489 462 l 489 0 l 366 0 l 366 462 z "},"Ӄ":{"ha":855,"x_min":102,"x_max":790,"o":"m 102 0 l 102 983 l 267 983 l 267 563 l 389 563 l 623 983 l 790 983 l 541 557 q 720 464 662 538 q 777 260 777 390 l 777 -68 q 714 -249 777 -188 q 541 -309 650 -309 q 440 -292 481 -309 q 368 -252 398 -275 l 430 -152 q 475 -174 453 -165 q 529 -182 496 -182 q 591 -158 569 -182 q 613 -80 613 -134 l 613 258 q 571 391 613 348 q 429 434 529 434 l 267 434 l 267 0 l 102 0 z "},"Ӆ":{"ha":855,"x_min":11,"x_max":843,"o":"m 843 143 l 721 -224 l 588 -224 l 640 0 l 550 0 l 550 850 l 370 850 l 343 609 q 311 375 328 471 q 272 214 293 278 q 224 108 251 150 q 162 36 197 66 q 80 -21 126 6 l 11 95 q 63 144 40 117 q 107 220 87 170 q 145 359 127 270 q 180 596 163 449 l 226 983 l 715 983 l 715 143 l 843 143 z "},"Ӈ":{"ha":855,"x_min":102,"x_max":753,"o":"m 516 -309 q 415 -292 457 -309 q 343 -252 374 -275 l 405 -152 q 450 -174 428 -165 q 505 -182 472 -182 q 566 -158 544 -182 q 588 -80 588 -134 l 588 447 l 267 447 l 267 0 l 102 0 l 102 983 l 267 983 l 267 583 l 588 583 l 588 983 l 753 983 l 753 -68 q 689 -249 753 -188 q 516 -309 626 -309 z "},"Ӊ":{"ha":855,"x_min":87,"x_max":833,"o":"m 541 0 l 541 446 l 252 446 l 252 0 l 87 0 l 87 983 l 252 983 l 252 583 l 541 583 l 541 983 l 705 983 l 705 143 l 833 143 l 712 -224 l 578 -224 l 630 0 l 541 0 z "},"Ӌ":{"ha":855,"x_min":58,"x_max":753,"o":"m 481 130 l 588 130 l 588 380 q 478 320 533 340 q 352 301 424 301 q 138 382 217 301 q 58 608 58 464 l 58 983 l 224 983 l 224 618 q 267 477 224 521 q 395 434 311 434 q 510 455 463 434 q 588 506 556 476 l 588 983 l 753 983 l 753 0 l 634 0 l 610 -224 l 481 -224 l 481 130 z "},"Ӎ":{"ha":855,"x_min":28,"x_max":875,"o":"m 875 143 l 752 -224 l 628 -224 l 680 0 l 612 0 l 588 479 q 584 681 583 586 q 588 835 585 776 l 467 173 l 323 173 l 193 835 q 198 678 197 777 q 195 477 199 580 l 176 0 l 28 0 l 83 983 l 281 983 l 398 324 l 509 983 l 707 983 l 755 143 l 875 143 z "},"Ӑ":{"ha":855,"x_min":12,"x_max":843,"o":"m 600 236 l 249 236 l 180 0 l 12 0 l 325 983 l 530 983 l 843 0 l 668 0 l 600 236 m 283 364 l 565 364 l 425 855 l 283 364 z "},"Ӓ":{"ha":855,"x_min":12,"x_max":843,"o":"m 600 236 l 249 236 l 180 0 l 12 0 l 325 983 l 530 983 l 843 0 l 668 0 l 600 236 m 283 364 l 565 364 l 425 855 l 283 364 z "},"Ӕ":{"ha":855,"x_min":-17,"x_max":863,"o":"m 461 238 l 204 238 l 146 0 l -17 0 l 256 983 l 806 983 l 788 861 l 481 861 l 543 560 l 793 560 l 793 437 l 566 437 l 631 123 l 863 123 l 863 0 l 506 0 l 461 238 m 234 363 l 438 363 l 345 863 l 234 363 z "},"Ӗ":{"ha":855,"x_min":161,"x_max":760,"o":"m 326 858 l 326 562 l 682 562 l 682 437 l 326 437 l 326 125 l 760 125 l 760 0 l 161 0 l 161 983 l 752 983 l 734 858 l 326 858 z "},"Ә":{"ha":855,"x_min":50,"x_max":799,"o":"m 50 475 q 51 513 50 492 q 56 554 53 534 l 632 554 q 568 802 627 727 q 407 877 509 877 q 286 854 336 877 q 190 796 236 830 l 110 888 q 245 971 171 939 q 417 1003 319 1003 q 700 877 602 1003 q 799 502 799 751 q 698 118 799 254 q 422 -19 598 -19 q 147 108 244 -19 q 50 475 50 236 m 424 107 q 570 183 516 107 q 632 431 624 260 l 209 431 q 269 181 214 255 q 424 107 323 107 z "},"Ӛ":{"ha":855,"x_min":50,"x_max":799,"o":"m 50 475 q 51 513 50 492 q 56 554 53 534 l 632 554 q 568 802 627 727 q 407 877 509 877 q 286 854 336 877 q 190 796 236 830 l 110 888 q 245 971 171 939 q 417 1003 319 1003 q 700 877 602 1003 q 799 502 799 751 q 698 118 799 254 q 422 -19 598 -19 q 147 108 244 -19 q 50 475 50 236 m 424 107 q 570 183 516 107 q 632 431 624 260 l 209 431 q 269 181 214 255 q 424 107 323 107 z "},"Ӝ":{"ha":855,"x_min":12,"x_max":843,"o":"m 366 462 l 296 462 l 162 0 l 12 0 l 178 527 l 30 983 l 177 983 l 298 568 l 366 568 l 366 983 l 489 983 l 489 568 l 557 568 l 679 983 l 825 983 l 677 527 l 843 0 l 690 0 l 557 462 l 489 462 l 489 0 l 366 0 l 366 462 z "},"Ӟ":{"ha":855,"x_min":35,"x_max":782,"o":"m 401 1003 q 586 970 508 1003 q 707 879 665 937 q 750 744 750 821 q 691 600 750 654 q 539 531 631 546 q 661 495 606 524 q 749 415 717 467 q 782 288 782 363 q 735 129 782 199 q 601 20 689 60 q 392 -19 514 -19 q 190 17 281 -19 q 35 121 99 53 l 127 209 q 249 135 183 161 q 390 110 314 110 q 553 158 495 110 q 611 289 611 206 q 551 420 611 379 q 397 461 491 461 l 226 461 l 246 589 l 390 589 q 527 624 469 589 q 584 734 584 659 q 530 840 584 804 q 391 876 476 876 q 255 853 315 876 q 142 788 194 829 l 56 879 q 401 1003 202 1003 z "},"Ӡ":{"ha":855,"x_min":84,"x_max":771,"o":"m 401 -21 q 215 11 286 -21 q 84 94 143 43 l 165 189 q 270 130 219 151 q 398 109 322 109 q 546 157 494 109 q 599 296 599 205 q 547 421 599 384 q 404 458 495 458 l 245 458 l 245 562 l 541 853 l 129 853 l 129 983 l 725 983 l 725 856 l 431 571 l 449 571 q 692 497 613 571 q 771 296 771 423 q 726 133 771 204 q 598 20 681 61 q 401 -21 515 -21 z "},"Ӣ":{"ha":855,"x_min":102,"x_max":753,"o":"m 102 0 l 102 983 l 259 983 l 259 548 q 256 386 259 456 q 246 259 252 316 q 231 145 239 202 l 556 983 l 753 983 l 753 0 l 595 0 l 595 433 q 604 657 595 557 q 623 833 613 756 l 301 0 l 102 0 z "},"Ӥ":{"ha":855,"x_min":102,"x_max":753,"o":"m 102 0 l 102 983 l 259 983 l 259 548 q 256 386 259 456 q 246 259 252 316 q 231 145 239 202 l 556 983 l 753 983 l 753 0 l 595 0 l 595 433 q 604 657 595 557 q 623 833 613 756 l 301 0 l 102 0 z "},"Ӧ":{"ha":855,"x_min":53,"x_max":801,"o":"m 801 491 q 759 225 801 340 q 634 45 717 110 q 427 -19 551 -19 q 221 43 304 -19 q 95 221 137 106 q 53 490 53 335 q 95 757 53 642 q 221 938 137 873 q 427 1003 304 1003 q 634 939 551 1003 q 759 761 717 876 q 801 491 801 646 m 630 491 q 583 778 630 682 q 427 874 536 874 q 271 777 318 874 q 224 490 224 681 q 273 205 224 300 q 427 110 321 110 q 583 205 536 110 q 630 491 630 301 z "},"Ө":{"ha":855,"x_min":53,"x_max":801,"o":"m 801 491 q 759 225 801 340 q 634 45 717 110 q 427 -19 551 -19 q 221 43 304 -19 q 95 221 137 106 q 53 490 53 335 q 95 757 53 642 q 221 938 137 873 q 427 1003 304 1003 q 634 939 551 1003 q 759 761 717 876 q 801 491 801 646 m 427 874 q 280 795 328 874 q 223 556 231 715 l 630 556 q 575 795 623 715 q 427 874 527 874 m 427 110 q 580 194 532 110 q 632 444 627 279 l 222 444 q 276 194 226 278 q 427 110 325 110 z "},"Ӫ":{"ha":855,"x_min":53,"x_max":801,"o":"m 801 491 q 759 225 801 340 q 634 45 717 110 q 427 -19 551 -19 q 221 43 304 -19 q 95 221 137 106 q 53 490 53 335 q 95 757 53 642 q 221 938 137 873 q 427 1003 304 1003 q 634 939 551 1003 q 759 761 717 876 q 801 491 801 646 m 427 874 q 280 795 328 874 q 223 556 231 715 l 630 556 q 575 795 623 715 q 427 874 527 874 m 427 110 q 580 194 532 110 q 632 444 627 279 l 222 444 q 276 194 226 278 q 427 110 325 110 z "},"Ӭ":{"ha":855,"x_min":45,"x_max":779,"o":"m 378 1003 q 672 877 565 1003 q 779 502 779 752 q 728 213 779 329 q 582 39 676 97 q 362 -19 488 -19 q 183 15 264 -19 q 45 106 102 48 l 132 198 q 235 134 182 156 q 356 112 288 112 q 537 190 472 112 q 610 441 602 269 l 203 441 l 203 568 l 610 568 q 538 806 601 736 q 368 876 476 876 q 236 849 290 876 q 140 789 182 823 l 56 881 q 194 968 116 932 q 378 1003 273 1003 z "},"Ӯ":{"ha":855,"x_min":21,"x_max":841,"o":"m 841 983 l 560 286 q 473 125 520 188 q 353 27 425 61 q 165 -19 280 -7 l 142 103 q 264 130 217 112 q 341 180 311 147 q 397 266 371 213 l 338 266 l 21 983 l 192 983 l 445 367 l 674 983 l 841 983 z "},"Ӱ":{"ha":855,"x_min":21,"x_max":841,"o":"m 841 983 l 560 286 q 473 125 520 188 q 353 27 425 61 q 165 -19 280 -7 l 142 103 q 264 130 217 112 q 341 180 311 147 q 397 266 371 213 l 338 266 l 21 983 l 192 983 l 445 367 l 674 983 l 841 983 z "},"Ӳ":{"ha":855,"x_min":21,"x_max":841,"o":"m 841 983 l 560 286 q 473 125 520 188 q 353 27 425 61 q 165 -19 280 -7 l 142 103 q 264 130 217 112 q 341 180 311 147 q 397 266 371 213 l 338 266 l 21 983 l 192 983 l 445 367 l 674 983 l 841 983 z "},"Ӵ":{"ha":855,"x_min":58,"x_max":753,"o":"m 224 983 l 224 618 q 267 477 224 521 q 395 434 311 434 q 510 455 463 434 q 588 506 556 476 l 588 983 l 753 983 l 753 0 l 588 0 l 588 380 q 478 320 533 340 q 352 301 424 301 q 138 382 217 301 q 58 608 58 464 l 58 983 l 224 983 z "},"Ӹ":{"ha":855,"x_min":39,"x_max":816,"o":"m 189 983 l 189 632 l 250 632 q 516 554 426 632 q 607 323 607 475 q 512 79 607 158 q 253 0 418 0 l 39 0 l 39 983 l 189 983 m 816 983 l 816 0 l 666 0 l 666 983 l 816 983 m 266 514 l 189 514 l 189 123 l 261 123 q 401 167 352 123 q 450 322 450 211 q 266 514 450 514 z "},"Ӻ":{"ha":855,"x_min":89,"x_max":855,"o":"m 261 -309 q 161 -292 202 -309 q 89 -252 119 -275 l 150 -152 q 195 -174 174 -165 q 250 -182 217 -182 q 311 -158 290 -182 q 333 -80 333 -134 l 333 0 l 240 0 l 240 505 l 110 505 l 110 617 l 240 617 l 240 983 l 855 983 l 838 846 l 405 846 l 405 617 l 622 617 l 622 505 l 405 505 l 405 130 l 498 130 l 498 -68 q 434 -249 498 -188 q 261 -309 371 -309 z "},"Ӽ":{"ha":855,"x_min":12,"x_max":839,"o":"m 603 -309 q 501 -292 543 -309 q 430 -252 460 -275 l 491 -152 q 536 -174 514 -165 q 591 -182 558 -182 q 652 -158 630 -182 q 674 -80 674 -134 l 674 0 l 625 0 l 407 418 l 189 0 l 12 0 l 310 524 l 37 983 l 220 983 l 410 629 l 603 983 l 778 983 l 506 531 l 735 130 l 839 130 l 839 -68 q 776 -249 839 -188 q 603 -309 712 -309 z "},"Ӿ":{"ha":855,"x_min":29,"x_max":825,"o":"m 54 983 l 237 983 l 427 629 l 620 983 l 796 983 l 524 531 l 825 0 l 642 0 l 425 418 l 206 0 l 29 0 l 327 524 l 54 983 m 46 467 l 46 581 l 810 581 l 810 467 l 46 467 z "},"Ԁ":{"ha":855,"x_min":56,"x_max":741,"o":"m 431 0 q 237 33 322 0 q 104 135 152 67 q 56 310 56 204 q 160 543 56 460 q 442 625 264 625 l 576 625 l 576 983 l 741 983 l 741 0 l 431 0 m 438 127 l 576 127 l 576 501 l 443 501 q 285 455 340 501 q 229 310 229 408 q 287 167 229 208 q 438 127 345 127 z "},"Ԃ":{"ha":855,"x_min":14,"x_max":833,"o":"m 237 -21 q 127 13 178 -21 q 45 113 76 46 q 14 281 14 180 q 95 527 14 439 q 321 616 176 616 l 382 616 l 382 983 l 526 983 l 526 212 q 593 98 526 98 q 661 154 634 98 q 688 352 688 210 q 686 449 688 405 q 681 538 684 494 l 825 538 q 830 452 828 496 q 833 355 833 407 q 765 68 833 158 q 589 -21 698 -21 q 414 83 469 -21 q 338 6 381 33 q 237 -21 296 -21 m 263 98 q 329 123 302 98 q 382 197 356 147 l 382 502 l 323 502 q 202 449 246 502 q 157 281 157 397 q 188 139 157 180 q 263 98 219 98 z "},"Ԅ":{"ha":855,"x_min":31,"x_max":824,"o":"m 68 405 l 68 524 l 172 524 q 318 565 267 524 q 370 699 370 605 q 319 823 370 785 q 159 861 268 861 l 31 861 l 31 983 l 160 983 q 543 699 543 983 q 490 532 543 596 q 338 436 437 468 l 441 212 q 493 130 467 154 q 556 107 519 107 q 613 130 588 107 q 652 209 638 153 q 666 363 666 265 q 664 453 666 410 q 659 541 662 496 l 816 541 q 822 455 820 499 q 824 364 824 412 q 751 71 824 162 q 557 -19 677 -19 q 396 29 458 -19 q 288 175 334 78 l 181 405 l 68 405 z "},"Ԇ":{"ha":855,"x_min":95,"x_max":796,"o":"m 796 130 l 796 -224 l 667 -224 l 644 0 l 584 0 l 337 405 l 137 405 l 137 526 l 351 526 q 497 566 446 526 q 548 699 548 606 q 499 822 548 784 q 347 860 449 860 l 95 860 l 95 983 l 338 983 q 624 912 527 983 q 722 699 722 841 q 657 523 722 590 q 498 428 592 456 l 692 130 l 796 130 z "},"Ԉ":{"ha":855,"x_min":2,"x_max":842,"o":"m 78 -21 l 2 84 q 40 132 24 105 q 71 210 57 159 q 95 351 84 261 q 117 588 106 441 l 145 983 l 535 983 l 535 212 q 603 98 535 98 q 670 154 642 98 q 697 352 697 210 q 695 449 697 405 q 690 538 693 494 l 834 538 q 840 452 838 496 q 842 355 842 407 q 775 68 842 158 q 598 -21 707 -21 q 451 38 511 -21 q 390 220 390 98 l 390 862 l 278 862 l 257 552 q 233 301 247 397 q 198 145 219 204 q 148 50 177 87 q 78 -21 118 14 z "},"Ԋ":{"ha":855,"x_min":60,"x_max":841,"o":"m 595 -21 q 446 38 508 -21 q 384 220 384 98 l 384 446 l 207 446 l 207 0 l 60 0 l 60 983 l 207 983 l 207 573 l 384 573 l 384 983 l 531 983 l 531 212 q 599 98 531 98 q 666 154 639 98 q 694 352 694 210 q 692 449 694 405 q 687 538 689 494 l 834 538 q 839 452 837 496 q 841 355 841 407 q 774 68 841 158 q 595 -21 707 -21 z "},"Ԍ":{"ha":855,"x_min":53,"x_max":783,"o":"m 453 -19 q 159 110 265 -19 q 53 493 53 239 q 112 775 53 661 q 269 946 172 888 q 481 1003 367 1003 q 649 973 582 1003 q 774 890 717 943 l 682 793 q 590 854 637 834 q 486 874 543 874 q 358 837 417 874 q 262 717 298 801 q 226 492 226 633 q 285 198 226 286 q 461 110 344 110 q 623 151 548 110 l 623 422 l 457 422 l 439 548 l 783 548 l 783 71 q 635 6 714 31 q 453 -19 556 -19 z "},"Ԏ":{"ha":855,"x_min":20,"x_max":815,"o":"m 511 -19 q 386 11 443 -19 q 296 102 329 41 q 262 254 262 162 l 262 454 l 261 454 l 261 850 l 20 850 l 20 983 l 701 983 l 684 850 l 427 850 l 427 244 q 451 137 427 170 q 518 105 475 105 q 587 129 556 105 q 637 208 618 152 q 655 359 655 264 q 653 452 655 409 q 648 540 652 496 l 808 540 q 813 454 811 499 q 815 360 815 410 q 772 144 815 227 q 659 20 729 60 q 511 -19 590 -19 z "},"Ԑ":{"ha":855,"x_min":73,"x_max":820,"o":"m 457 1003 q 643 972 561 1003 q 798 879 726 940 l 712 788 q 601 853 660 829 q 466 876 542 876 q 326 840 381 876 q 271 733 271 803 q 327 624 271 659 q 464 589 384 589 l 628 589 l 610 461 l 458 461 q 303 420 363 461 q 244 288 244 379 q 302 158 244 206 q 463 110 360 110 q 606 135 541 110 q 730 209 672 161 l 820 121 q 661 17 754 54 q 456 -19 568 -19 q 252 20 338 -19 q 119 127 166 58 q 73 284 73 195 q 105 412 73 360 q 193 493 138 464 q 316 531 249 523 q 164 597 223 546 q 105 736 105 648 q 150 875 105 816 q 275 969 195 935 q 457 1003 354 1003 z "},"Ԓ":{"ha":855,"x_min":6,"x_max":753,"o":"m 516 -309 q 415 -292 457 -309 q 343 -252 374 -275 l 405 -152 q 450 -174 428 -165 q 505 -182 472 -182 q 566 -158 544 -182 q 588 -80 588 -134 l 588 850 l 365 850 l 338 609 q 306 375 323 471 q 267 214 288 278 q 219 108 246 150 q 157 36 192 66 q 75 -21 121 6 l 6 95 q 58 144 35 117 q 102 220 82 170 q 140 359 123 270 q 175 596 158 449 l 221 983 l 753 983 l 753 -68 q 689 -249 753 -188 q 516 -309 626 -309 z "},"Ԕ":{"ha":855,"x_min":-6,"x_max":865,"o":"m 138 983 l 449 983 l 575 626 l 700 983 l 843 983 l 662 528 l 865 0 l 717 0 l 569 419 l 427 0 l 283 0 l 479 524 l 350 858 l 271 858 l 250 552 q 226 301 240 397 q 191 145 212 204 q 141 50 170 87 q 70 -21 111 14 l -6 84 q 33 132 16 105 q 63 210 50 159 q 87 351 76 261 q 109 588 98 441 l 138 983 z "},"Ԗ":{"ha":855,"x_min":60,"x_max":850,"o":"m 60 0 l 60 983 l 258 983 q 480 901 400 983 q 560 677 560 819 l 697 983 l 843 983 l 618 511 l 850 0 l 682 0 l 480 447 q 386 376 441 402 q 264 350 331 350 l 212 350 l 212 0 l 60 0 m 261 861 l 212 861 l 212 474 l 255 474 q 371 519 324 474 q 417 673 417 563 q 375 815 417 769 q 261 861 333 861 z "},"Ԙ":{"ha":855,"x_min":6,"x_max":852,"o":"m 6 0 l 187 415 q 66 520 108 454 q 24 682 24 586 q 67 841 24 774 q 187 946 110 909 q 370 983 265 983 l 844 983 l 825 860 l 565 860 l 565 561 l 778 561 l 778 438 l 565 438 l 565 124 l 852 124 l 852 0 l 408 0 l 408 380 l 330 380 l 181 0 l 6 0 m 343 501 l 408 501 l 408 863 l 360 863 q 235 817 281 863 q 189 681 189 771 q 232 545 189 588 q 343 501 275 501 z "},"Ԛ":{"ha":855,"x_min":58,"x_max":866,"o":"m 800 491 q 755 223 800 339 q 595 45 709 106 q 766 -26 703 25 q 866 -190 829 -78 l 713 -246 q 646 -120 683 -172 q 554 -42 609 -68 q 413 -16 499 -16 q 217 46 296 -16 q 98 222 138 108 q 58 490 58 335 q 99 757 58 642 q 223 938 141 873 q 429 1003 306 1003 q 634 939 552 1003 q 758 761 717 876 q 800 491 800 646 m 628 491 q 583 777 628 682 q 429 873 538 873 q 275 777 320 873 q 229 490 229 680 q 276 205 229 300 q 429 110 323 110 q 583 205 538 110 q 628 491 628 301 z "},"Ԝ":{"ha":855,"x_min":3,"x_max":852,"o":"m 852 983 l 716 0 l 523 0 l 426 727 l 325 0 l 128 0 l 3 983 l 162 983 l 240 160 l 344 869 l 514 869 l 613 160 l 704 983 l 852 983 z "},"Ԟ":{"ha":855,"x_min":107,"x_max":843,"o":"m 377 451 l 272 451 l 272 0 l 107 0 l 107 983 l 272 983 l 272 580 l 377 580 l 489 748 l 332 838 l 387 933 l 550 839 l 646 983 l 816 983 l 674 768 l 822 683 l 767 588 l 613 677 l 515 527 l 843 0 l 653 0 l 377 451 z "},"Ԡ":{"ha":855,"x_min":-16,"x_max":830,"o":"m 60 -21 l -16 84 q 23 132 6 105 q 53 210 40 159 q 77 351 66 261 q 99 588 88 441 l 128 983 l 518 983 l 518 595 q 575 633 543 619 q 649 647 607 647 q 783 588 736 647 q 830 439 830 529 l 830 -76 q 768 -249 830 -189 q 613 -309 706 -309 q 512 -292 553 -309 q 442 -252 472 -275 l 500 -160 q 545 -183 523 -174 q 601 -192 568 -192 q 663 -167 641 -192 q 684 -89 684 -142 l 684 424 q 610 521 684 521 q 518 481 563 521 l 518 0 l 373 0 l 373 862 l 261 862 l 240 552 q 216 301 230 397 q 181 145 202 204 q 130 50 160 87 q 60 -21 100 14 z "},"Ԣ":{"ha":855,"x_min":36,"x_max":839,"o":"m 360 0 l 360 446 l 184 446 l 184 0 l 36 0 l 36 983 l 184 983 l 184 573 l 360 573 l 360 983 l 508 983 l 508 595 q 568 633 534 619 q 645 647 601 647 q 787 587 736 647 q 839 428 839 527 l 839 -76 q 777 -249 839 -189 q 619 -309 714 -309 q 517 -292 559 -309 q 446 -252 476 -275 l 506 -158 q 551 -181 528 -172 q 607 -190 573 -190 q 668 -166 647 -190 q 690 -88 690 -142 l 690 424 q 668 497 690 473 q 607 521 646 521 q 508 480 556 521 l 508 0 l 360 0 z "},"Ҍ":{"ha":855,"x_min":43,"x_max":816,"o":"m 157 0 l 157 751 l 43 751 l 43 856 l 157 856 l 157 983 l 323 983 l 323 856 l 503 856 l 503 751 l 323 751 l 323 618 l 444 618 q 713 544 611 618 q 816 320 816 470 q 767 138 816 209 q 633 34 718 68 q 438 0 548 0 l 157 0 m 323 127 l 442 127 q 585 168 528 127 q 642 317 642 209 q 588 454 642 413 q 442 494 534 494 l 323 494 l 323 127 z "},"Ҏ":{"ha":855,"x_min":136,"x_max":804,"o":"m 804 672 q 768 519 804 584 q 668 414 731 454 l 775 239 l 662 239 l 580 374 q 420 350 508 350 l 301 350 l 301 0 l 136 0 l 136 983 l 409 983 q 699 907 594 983 q 804 672 804 831 m 392 682 l 504 682 l 595 533 q 635 671 635 580 q 577 816 635 774 q 424 859 519 859 l 301 859 l 301 476 l 426 476 q 512 486 476 476 l 392 682 z "},"Ԩ":{"ha":855,"x_min":-142,"x_max":753,"o":"m 31 -311 q -70 -293 -28 -311 q -142 -254 -112 -276 l -80 -152 q -36 -175 -57 -166 q 19 -183 -14 -183 q 80 -159 58 -183 q 102 -80 102 -135 l 102 983 l 267 983 l 267 583 l 588 583 l 588 983 l 753 983 l 753 0 l 588 0 l 588 447 l 267 447 l 267 -69 q 204 -250 267 -189 q 31 -311 140 -311 z "},"Ԫ":{"ha":855,"x_min":-19,"x_max":873,"o":"m -19 -224 l -19 110 l 26 110 q 51 181 39 142 q 74 280 63 221 q 95 426 85 338 q 113 640 105 514 l 135 983 l 426 983 l 426 567 l 494 567 l 494 983 l 607 983 l 607 567 l 644 567 l 734 983 l 850 983 l 744 525 l 873 0 l 745 0 l 643 459 l 607 459 l 607 0 l 517 0 l 517 -224 l 418 -224 l 398 0 l 100 0 l 78 -224 l -19 -224 m 130 110 l 311 110 l 311 877 l 244 877 l 231 634 q 217 430 226 514 q 197 287 209 346 q 168 187 184 229 q 130 110 151 145 m 494 459 l 426 459 l 426 110 l 494 110 l 494 459 z "},"Ԭ":{"ha":855,"x_min":63,"x_max":814,"o":"m 76 130 l 132 130 q 209 254 170 175 q 276 468 247 332 q 115 571 166 494 q 63 783 64 648 l 63 983 l 213 983 l 213 787 q 232 666 213 712 q 300 598 251 619 q 313 700 307 647 l 342 983 l 756 983 l 756 130 l 814 130 l 814 -224 l 686 -224 l 662 0 l 228 0 l 204 -224 l 76 -224 l 76 130 m 463 694 q 449 580 457 632 l 607 580 l 607 858 l 479 858 l 463 694 m 281 130 l 607 130 l 607 454 l 428 454 q 368 257 403 330 q 281 130 332 183 z "},"Ԯ":{"ha":855,"x_min":-1,"x_max":793,"o":"m 793 130 l 793 -224 l 665 -224 l 640 0 l 547 0 l 547 850 l 357 850 l 330 609 q 298 375 315 471 q 260 214 281 278 q 212 108 239 150 q 149 36 184 66 q 67 -21 113 6 l -1 95 q 51 144 27 117 q 94 220 74 170 q 132 359 115 270 q 167 596 150 449 l 213 983 l 712 983 l 712 130 l 793 130 z "},"а":{"ha":855,"x_min":80,"x_max":759,"o":"m 702 184 q 715 120 702 140 q 759 90 729 100 l 723 -19 q 627 12 667 -12 q 567 85 587 36 q 462 7 526 33 q 327 -19 399 -19 q 146 45 212 -19 q 80 214 80 110 q 172 397 80 333 q 437 462 265 462 l 545 462 l 545 511 q 501 616 545 584 q 377 647 457 647 q 288 638 340 647 q 177 608 235 628 l 138 721 q 276 760 209 747 q 402 772 344 772 q 627 705 553 772 q 702 520 702 638 l 702 184 m 375 98 q 470 124 424 98 q 545 196 516 150 l 545 362 l 457 362 q 296 324 344 362 q 247 222 247 287 q 375 98 247 98 z "},"б":{"ha":855,"x_min":90,"x_max":763,"o":"m 623 1073 l 687 962 q 585 906 640 931 q 448 853 531 881 q 349 803 389 832 q 286 723 309 775 q 254 580 263 672 q 350 673 292 640 q 484 706 408 706 q 628 664 566 706 q 727 543 691 622 q 763 355 763 465 q 720 150 763 234 q 601 24 677 66 q 427 -19 525 -19 q 251 26 326 -19 q 133 168 175 72 q 90 417 90 265 q 115 681 90 573 q 201 857 139 789 q 376 963 263 925 q 474 997 433 981 q 549 1031 514 1013 q 623 1073 583 1048 m 257 368 q 301 171 257 239 q 427 103 345 103 q 512 124 474 103 q 574 198 551 145 q 597 351 597 251 q 557 532 597 479 q 446 584 516 584 q 340 551 389 584 q 257 460 291 519 l 257 368 z "},"в":{"ha":855,"x_min":141,"x_max":772,"o":"m 417 772 q 647 721 560 772 q 735 574 735 670 q 699 472 735 513 q 581 410 662 430 q 772 224 772 388 q 728 94 772 144 q 609 22 683 45 q 444 0 534 0 l 141 0 l 141 744 q 276 764 208 756 q 417 772 344 772 m 417 658 q 355 656 382 658 q 301 650 328 654 l 301 450 l 433 450 q 538 474 499 450 q 576 556 576 497 q 537 634 576 610 q 417 658 497 658 m 301 116 l 440 116 q 607 230 607 116 q 584 301 607 276 q 524 337 561 327 q 443 348 486 348 l 301 348 l 301 116 z "},"г":{"ha":855,"x_min":206,"x_max":755,"o":"m 365 0 l 206 0 l 206 752 l 755 752 l 736 625 l 365 625 l 365 0 z "},"ѓ":{"ha":855,"x_min":206,"x_max":755,"o":"m 365 0 l 206 0 l 206 752 l 755 752 l 736 625 l 365 625 l 365 0 m 599 1156 l 666 1028 l 354 902 l 307 985 l 599 1156 z "},"ґ":{"ha":855,"x_min":206,"x_max":755,"o":"m 365 0 l 206 0 l 206 752 l 601 752 l 601 952 l 755 952 l 755 752 l 736 625 l 365 625 l 365 0 z "},"ӷ":{"ha":855,"x_min":206,"x_max":755,"o":"m 475 124 l 475 -224 l 350 -224 l 326 0 l 206 0 l 206 752 l 755 752 l 736 625 l 365 625 l 365 124 l 475 124 z "},"ғ":{"ha":855,"x_min":123,"x_max":796,"o":"m 406 0 l 246 0 l 246 323 l 123 323 l 123 435 l 246 435 l 246 752 l 796 752 l 778 625 l 406 625 l 406 435 l 580 435 l 580 323 l 406 323 l 406 0 z "},"ҕ":{"ha":855,"x_min":135,"x_max":729,"o":"m 135 0 l 135 752 l 627 752 l 605 631 l 294 631 l 294 393 q 389 467 333 438 q 514 496 444 496 q 670 437 610 496 q 729 266 729 377 l 729 0 l 729 0 l 729 -68 q 666 -248 729 -187 q 496 -309 603 -309 q 394 -292 436 -309 q 323 -252 353 -275 l 385 -156 q 429 -177 407 -169 q 484 -185 451 -185 q 547 -162 524 -185 q 570 -83 570 -138 l 570 1 l 570 1 l 570 254 q 542 347 570 320 q 468 374 515 374 q 370 344 412 374 q 294 271 329 314 l 294 0 l 135 0 z "},"д":{"ha":855,"x_min":31,"x_max":783,"o":"m 31 124 l 84 124 q 135 192 115 151 q 170 307 156 233 q 193 510 183 382 l 211 752 l 721 752 l 721 124 l 783 124 l 783 -224 l 657 -224 l 633 0 l 179 0 l 156 -224 l 31 -224 l 31 124 m 566 632 l 353 632 l 346 519 q 330 354 339 420 q 306 245 321 288 q 270 174 291 202 q 218 124 249 146 l 566 124 l 566 632 z "},"е":{"ha":855,"x_min":94,"x_max":761,"o":"m 259 325 q 324 157 266 209 q 464 105 382 105 q 567 122 519 105 q 662 170 614 139 l 731 75 q 608 6 678 32 q 457 -19 537 -19 q 258 31 339 -19 q 136 170 177 80 q 94 375 94 259 q 135 578 94 489 q 254 720 177 667 q 437 772 330 772 q 674 672 587 772 q 761 396 761 571 q 760 358 761 377 q 758 325 759 339 l 259 325 m 439 654 q 315 600 364 654 q 259 434 266 547 l 607 434 q 562 597 605 540 q 439 654 519 654 z "},"ѐ":{"ha":855,"x_min":94,"x_max":761,"o":"m 259 325 q 324 157 266 209 q 464 105 382 105 q 567 122 519 105 q 662 170 614 139 l 731 75 q 608 6 678 32 q 457 -19 537 -19 q 258 31 339 -19 q 136 170 177 80 q 94 375 94 259 q 135 578 94 489 q 254 720 177 667 q 437 772 330 772 q 674 672 587 772 q 761 396 761 571 q 760 358 761 377 q 758 325 759 339 l 259 325 m 439 654 q 315 600 364 654 q 259 434 266 547 l 607 434 q 562 597 605 540 q 439 654 519 654 m 570 886 l 264 1019 l 337 1147 l 618 970 l 570 886 z "},"ё":{"ha":855,"x_min":94,"x_max":761,"o":"m 259 325 q 324 157 266 209 q 464 105 382 105 q 567 122 519 105 q 662 170 614 139 l 731 75 q 608 6 678 32 q 457 -19 537 -19 q 258 31 339 -19 q 136 170 177 80 q 94 375 94 259 q 135 578 94 489 q 254 720 177 667 q 437 772 330 772 q 674 672 587 772 q 761 396 761 571 q 760 358 761 377 q 758 325 759 339 l 259 325 m 439 654 q 315 600 364 654 q 259 434 266 547 l 607 434 q 562 597 605 540 q 439 654 519 654 m 286 917 q 220 943 246 917 q 193 1008 193 969 q 220 1072 193 1046 q 286 1098 246 1098 q 351 1072 325 1098 q 378 1008 378 1046 q 351 943 378 969 q 286 917 325 917 m 593 917 q 528 943 555 917 q 501 1008 501 969 q 528 1072 501 1046 q 593 1098 555 1098 q 660 1072 632 1098 q 687 1008 687 1046 q 660 943 687 969 q 593 917 632 917 z "},"ж":{"ha":855,"x_min":14,"x_max":840,"o":"m 365 0 l 365 343 l 302 343 l 164 0 l 14 0 l 188 404 l 25 752 l 175 752 l 301 449 l 365 449 l 365 752 l 489 752 l 489 449 l 554 449 l 684 752 l 830 752 l 667 404 l 840 0 l 690 0 l 551 343 l 489 343 l 489 0 l 365 0 z "},"з":{"ha":855,"x_min":62,"x_max":747,"o":"m 261 449 l 396 449 q 505 477 466 449 q 543 551 543 505 q 502 628 543 603 q 385 653 460 653 q 269 637 328 653 q 160 590 209 621 l 88 680 q 229 748 148 724 q 393 772 309 772 q 552 749 481 772 q 665 679 623 725 q 707 566 707 634 q 662 461 707 502 q 543 400 617 420 q 688 348 630 391 q 747 222 747 305 q 700 89 747 143 q 573 8 654 36 q 391 -19 493 -19 q 198 10 279 -19 q 62 83 118 40 l 134 180 q 251 123 189 143 q 392 103 313 103 q 531 136 485 103 q 578 225 578 170 q 407 333 578 333 l 251 333 l 261 449 z "},"и":{"ha":855,"x_min":127,"x_max":728,"o":"m 728 752 l 728 0 l 573 0 l 573 309 q 580 464 573 391 q 597 593 586 537 l 305 0 l 127 0 l 127 752 l 281 752 l 281 442 q 275 290 281 365 q 257 162 269 214 l 547 752 l 728 752 z "},"й":{"ha":855,"x_min":127,"x_max":728,"o":"m 728 752 l 728 0 l 573 0 l 573 309 q 580 464 573 391 q 597 593 586 537 l 305 0 l 127 0 l 127 752 l 281 752 l 281 442 q 275 290 281 365 q 257 162 269 214 l 547 752 l 728 752 m 426 902 q 271 954 330 902 q 202 1085 211 1005 l 301 1105 q 426 1019 326 1019 q 553 1105 528 1019 l 652 1085 q 582 954 643 1005 q 426 902 521 902 z "},"ѝ":{"ha":855,"x_min":127,"x_max":728,"o":"m 728 752 l 728 0 l 573 0 l 573 309 q 580 464 573 391 q 597 593 586 537 l 305 0 l 127 0 l 127 752 l 281 752 l 281 442 q 275 290 281 365 q 257 162 269 214 l 547 752 l 728 752 m 557 886 l 251 1019 l 324 1147 l 605 970 l 557 886 z "},"ҋ":{"ha":855,"x_min":118,"x_max":823,"o":"m 407 902 q 252 954 312 902 q 184 1085 192 1005 l 282 1105 q 407 1019 308 1019 q 535 1105 509 1019 l 633 1085 q 564 954 625 1005 q 407 902 503 902 m 823 134 l 712 -224 l 581 -224 l 634 0 l 548 0 l 548 309 q 554 485 548 407 q 568 605 561 563 l 294 0 l 118 0 l 118 752 l 270 752 l 270 442 q 262 275 270 355 q 244 145 255 194 l 523 752 l 701 752 l 701 134 l 823 134 z "},"к":{"ha":855,"x_min":132,"x_max":820,"o":"m 132 0 l 132 752 l 292 752 l 292 454 l 425 454 l 622 752 l 788 752 l 552 404 l 820 0 l 640 0 l 422 338 l 292 338 l 292 0 l 132 0 z "},"ќ":{"ha":855,"x_min":132,"x_max":820,"o":"m 132 0 l 132 752 l 292 752 l 292 454 l 425 454 l 622 752 l 788 752 l 552 404 l 820 0 l 640 0 l 422 338 l 292 338 l 292 0 l 132 0 m 571 1156 l 638 1028 l 326 902 l 279 985 l 571 1156 z "},"л":{"ha":855,"x_min":45,"x_max":736,"o":"m 736 752 l 736 0 l 576 0 l 576 628 l 341 628 l 328 470 q 306 261 321 343 q 268 127 292 179 q 206 43 244 76 q 112 -21 168 9 l 45 81 q 92 120 71 98 q 129 180 113 142 q 156 286 145 219 q 177 463 168 353 l 199 752 l 736 752 z "},"м":{"ha":855,"x_min":48,"x_max":806,"o":"m 753 752 l 806 0 l 659 0 l 637 325 q 632 458 633 390 q 635 601 631 526 l 629 601 l 497 124 l 361 124 l 217 601 l 211 601 q 214 463 216 535 q 210 324 213 391 l 193 0 l 48 0 l 100 752 l 290 752 l 431 258 l 559 752 l 753 752 z "},"н":{"ha":855,"x_min":127,"x_max":728,"o":"m 568 0 l 568 322 l 286 322 l 286 0 l 127 0 l 127 752 l 286 752 l 286 446 l 568 446 l 568 752 l 728 752 l 728 0 l 568 0 z "},"о":{"ha":855,"x_min":88,"x_max":767,"o":"m 428 772 q 680 665 593 772 q 767 377 767 557 q 728 169 767 258 q 612 30 688 80 q 427 -19 536 -19 q 175 87 263 -19 q 88 376 88 194 q 127 582 88 493 q 243 722 167 672 q 428 772 319 772 m 428 648 q 298 582 342 648 q 255 376 255 516 q 298 170 255 236 q 427 104 341 104 q 557 170 514 104 q 600 377 600 236 q 557 582 600 516 q 428 648 514 648 z "},"п":{"ha":855,"x_min":127,"x_max":728,"o":"m 569 0 l 569 628 l 286 628 l 286 0 l 127 0 l 127 752 l 728 752 l 728 0 l 569 0 z "},"р":{"ha":855,"x_min":127,"x_max":767,"o":"m 494 772 q 653 723 593 772 q 740 586 713 675 q 767 377 767 497 q 734 173 767 263 q 637 32 702 83 q 477 -19 573 -19 q 286 64 359 -19 l 286 -289 l 127 -307 l 127 752 l 266 752 l 276 655 q 375 743 318 713 q 494 772 431 772 m 449 649 q 355 617 396 649 q 286 541 314 585 l 286 189 q 435 105 343 105 q 558 170 516 105 q 600 377 600 235 q 562 585 600 521 q 449 649 525 649 z "},"с":{"ha":855,"x_min":118,"x_max":749,"o":"m 489 112 q 588 130 542 112 q 675 177 633 149 l 749 75 q 629 7 699 33 q 484 -19 559 -19 q 287 30 369 -19 q 161 166 204 78 q 118 373 118 254 q 162 577 118 487 q 288 720 206 667 q 487 772 371 772 q 748 682 638 772 l 675 581 q 584 628 630 612 q 490 644 538 644 q 344 578 400 644 q 288 373 288 513 q 345 172 288 231 q 489 112 402 112 z "},"т":{"ha":855,"x_min":81,"x_max":782,"o":"m 782 752 l 764 627 l 507 627 l 507 0 l 348 0 l 348 627 l 81 627 l 81 752 l 782 752 z "},"у":{"ha":855,"x_min":70,"x_max":785,"o":"m 785 752 l 526 -3 q 451 -154 496 -88 q 334 -259 405 -219 q 157 -308 263 -298 l 137 -188 q 258 -153 213 -176 q 330 -92 303 -130 q 377 0 357 -55 l 323 0 l 70 752 l 239 752 l 429 111 l 621 752 l 785 752 z "},"ў":{"ha":855,"x_min":70,"x_max":785,"o":"m 785 752 l 526 -3 q 451 -154 496 -88 q 334 -259 405 -219 q 157 -308 263 -298 l 137 -188 q 258 -153 213 -176 q 330 -92 303 -130 q 377 0 357 -55 l 323 0 l 70 752 l 239 752 l 429 111 l 621 752 l 785 752 m 426 902 q 271 954 330 902 q 202 1085 211 1005 l 301 1105 q 426 1019 326 1019 q 553 1105 528 1019 l 652 1085 q 582 954 643 1005 q 426 902 521 902 z "},"ф":{"ha":855,"x_min":33,"x_max":822,"o":"m 363 1072 l 491 1056 l 491 698 q 557 755 522 737 q 630 772 591 772 q 749 723 707 772 q 806 585 790 675 q 822 377 822 496 q 771 89 822 197 q 617 -19 720 -19 q 491 56 544 -19 l 491 -291 l 363 -307 l 363 55 q 303 -1 337 18 q 235 -19 270 -19 q 83 89 132 -19 q 33 377 33 197 q 51 585 33 496 q 113 723 70 675 q 232 772 157 772 q 363 701 308 772 l 363 1072 m 274 655 q 207 592 227 655 q 186 377 186 528 q 207 162 186 226 q 274 98 227 98 q 320 113 301 98 q 363 160 339 129 l 363 598 q 322 641 340 626 q 274 655 303 655 m 588 655 q 537 641 559 655 q 491 597 516 626 l 491 160 q 533 113 514 129 q 579 98 553 98 q 647 161 625 98 q 670 377 670 224 q 652 592 670 528 q 588 655 634 655 z "},"х":{"ha":855,"x_min":61,"x_max":793,"o":"m 238 0 l 61 0 l 331 397 l 91 752 l 275 752 l 429 487 l 583 752 l 758 752 l 523 403 l 793 0 l 606 0 l 422 307 l 238 0 z "},"ч":{"ha":855,"x_min":101,"x_max":717,"o":"m 717 752 l 717 0 l 557 0 l 557 304 q 457 246 516 268 q 328 225 397 225 q 159 285 217 225 q 101 451 101 345 l 101 752 l 261 752 l 261 470 q 291 375 261 404 q 378 347 321 347 q 476 366 426 347 q 557 419 526 386 l 557 752 l 717 752 z "},"ц":{"ha":855,"x_min":113,"x_max":825,"o":"m 825 124 l 825 -224 l 699 -224 l 675 0 l 113 0 l 113 752 l 272 752 l 272 125 l 556 125 l 556 752 l 714 752 l 714 124 l 825 124 z "},"ш":{"ha":855,"x_min":56,"x_max":798,"o":"m 798 752 l 798 0 l 56 0 l 56 752 l 199 752 l 199 125 l 361 125 l 361 752 l 494 752 l 494 125 l 655 125 l 655 752 l 798 752 z "},"щ":{"ha":855,"x_min":56,"x_max":889,"o":"m 889 124 l 889 -224 l 764 -224 l 740 0 l 56 0 l 56 752 l 199 752 l 199 125 l 361 125 l 361 752 l 494 752 l 494 125 l 655 125 l 655 752 l 798 752 l 798 124 l 889 124 z "},"џ":{"ha":855,"x_min":127,"x_max":728,"o":"m 569 752 l 728 752 l 728 0 l 506 0 l 489 -224 l 366 -224 l 349 0 l 127 0 l 127 752 l 286 752 l 286 125 l 569 125 l 569 752 z "},"ь":{"ha":855,"x_min":159,"x_max":772,"o":"m 318 752 l 318 520 l 440 520 q 695 452 618 520 q 772 262 772 384 q 729 110 772 167 q 614 26 685 52 q 458 0 542 0 l 159 0 l 159 752 l 318 752 m 439 406 l 318 406 l 318 118 l 452 118 q 563 149 521 118 q 605 263 605 180 q 568 371 605 335 q 439 406 532 406 z "},"ы":{"ha":855,"x_min":69,"x_max":786,"o":"m 212 752 l 212 514 l 249 514 q 489 454 405 514 q 574 262 574 394 q 489 63 574 127 q 259 0 403 0 l 69 0 l 69 752 l 212 752 m 786 752 l 786 0 l 642 0 l 642 752 l 786 752 m 257 408 l 212 408 l 212 111 l 259 111 q 377 144 335 111 q 420 264 420 176 q 381 375 420 341 q 257 408 342 408 z "},"ъ":{"ha":855,"x_min":36,"x_max":791,"o":"m 363 752 l 363 519 l 440 519 q 699 459 607 519 q 791 264 791 398 q 748 110 791 168 q 628 26 705 52 q 450 0 551 0 l 204 0 l 204 634 l 36 634 l 36 752 l 363 752 m 450 405 l 363 405 l 363 118 l 452 118 q 575 148 527 118 q 623 265 623 177 q 578 373 623 341 q 450 405 533 405 z "},"љ":{"ha":855,"x_min":-1,"x_max":848,"o":"m 527 752 l 527 512 l 544 512 q 771 452 693 512 q 848 261 848 391 q 767 64 848 129 q 551 0 687 0 l 387 0 l 387 637 l 261 637 l 253 457 q 235 255 248 335 q 199 125 222 175 q 140 41 175 74 q 53 -21 104 8 l -1 83 q 37 119 19 98 q 69 179 55 140 q 94 284 84 217 q 110 458 105 350 l 125 752 l 527 752 m 548 407 l 527 407 l 527 110 l 551 110 q 660 142 623 110 q 697 262 697 174 q 662 373 697 340 q 548 407 627 407 z "},"њ":{"ha":855,"x_min":82,"x_max":853,"o":"m 531 752 l 531 476 l 548 476 q 774 420 694 476 q 853 239 853 364 q 770 56 853 111 q 548 0 688 0 l 390 0 l 390 368 l 225 368 l 225 0 l 82 0 l 82 752 l 225 752 l 225 476 l 390 476 l 390 752 l 531 752 m 555 370 l 531 370 l 531 112 l 550 112 q 662 135 622 112 q 703 240 703 159 q 667 341 703 313 q 555 370 631 370 z "},"ѕ":{"ha":855,"x_min":91,"x_max":732,"o":"m 400 103 q 519 130 475 103 q 563 204 563 157 q 551 256 563 234 q 499 296 538 277 q 382 334 461 314 q 252 380 308 353 q 166 448 197 406 q 135 556 135 490 q 216 713 135 653 q 436 772 297 772 q 601 747 531 772 q 722 685 672 722 l 655 585 q 558 632 610 614 q 440 651 506 651 q 331 628 364 651 q 298 568 298 605 q 314 521 298 539 q 373 486 331 502 q 489 449 414 469 q 617 402 563 429 q 702 330 672 375 q 732 214 732 286 q 685 82 732 133 q 563 5 638 30 q 400 -19 487 -19 q 219 11 296 -19 q 91 87 143 41 l 176 184 q 277 126 220 148 q 400 103 334 103 z "},"є":{"ha":855,"x_min":118,"x_max":749,"o":"m 486 772 q 749 684 640 772 l 677 589 q 490 650 586 650 q 351 599 407 650 q 282 441 296 547 l 608 441 l 608 329 l 281 329 q 348 157 290 210 q 491 105 406 105 q 587 120 543 105 q 678 167 632 135 l 749 70 q 625 4 696 26 q 486 -19 555 -19 q 287 30 369 -19 q 161 166 204 78 q 118 373 118 254 q 162 577 118 487 q 288 720 206 667 q 486 772 370 772 z "},"э":{"ha":855,"x_min":118,"x_max":749,"o":"m 395 772 q 591 723 512 772 q 709 585 670 673 q 749 378 749 496 q 707 171 749 261 q 583 31 665 81 q 384 -19 502 -19 q 239 4 307 -19 q 118 73 172 27 l 192 168 q 381 105 278 105 q 522 157 468 105 q 585 329 576 209 l 259 329 l 259 441 l 583 441 q 523 599 573 548 q 388 650 472 650 q 198 588 284 650 l 126 684 q 395 772 238 772 z "},"і":{"ha":855,"x_min":153,"x_max":742,"o":"m 427 1120 q 502 1092 474 1120 q 531 1021 531 1063 q 502 949 531 978 q 427 920 474 920 q 352 949 381 920 q 323 1021 323 978 q 352 1092 323 1063 q 427 1120 381 1120 m 538 752 l 538 117 l 742 117 l 742 0 l 153 0 l 153 117 l 378 117 l 378 635 l 160 635 l 160 752 l 538 752 z "},"ї":{"ha":855,"x_min":153,"x_max":742,"o":"m 538 752 l 538 117 l 742 117 l 742 0 l 153 0 l 153 117 l 378 117 l 378 635 l 160 635 l 160 752 l 538 752 m 274 917 q 208 943 234 917 q 181 1008 181 969 q 208 1072 181 1046 q 274 1098 234 1098 q 339 1072 313 1098 q 366 1008 366 1046 q 339 943 366 969 q 274 917 313 917 m 581 917 q 516 943 543 917 q 489 1008 489 969 q 516 1072 489 1046 q 581 1098 543 1098 q 647 1072 620 1098 q 675 1008 675 1046 q 647 943 675 969 q 581 917 620 917 z "},"ј":{"ha":855,"x_min":123,"x_max":649,"o":"m 524 1120 q 600 1092 571 1120 q 629 1021 629 1063 q 600 949 629 978 q 524 920 571 920 q 449 949 478 920 q 420 1021 420 978 q 449 1092 420 1063 q 524 1120 478 1120 m 649 752 l 649 158 q 590 -75 649 18 q 420 -223 532 -167 q 148 -307 308 -278 l 123 -184 q 317 -125 234 -163 q 444 -22 400 -88 q 489 147 489 43 l 489 635 l 192 635 l 192 752 l 649 752 z "},"ћ":{"ha":855,"x_min":21,"x_max":729,"o":"m 511 958 l 511 849 l 286 849 l 286 660 q 393 744 332 716 q 519 772 454 772 q 677 713 625 772 q 729 548 729 654 l 729 0 l 570 0 l 570 524 q 544 621 570 591 q 462 650 519 650 q 363 616 408 650 q 286 538 317 581 l 286 0 l 127 0 l 127 849 l 21 849 l 21 958 l 127 958 l 127 1053 l 286 1070 l 286 958 l 511 958 z "},"ю":{"ha":855,"x_min":66,"x_max":819,"o":"m 555 772 q 756 666 693 772 q 819 377 819 560 q 792 168 819 257 q 707 30 766 79 q 555 -19 649 -19 q 412 24 468 -19 q 329 145 357 68 q 296 324 301 222 l 211 324 l 211 0 l 66 0 l 66 752 l 211 752 l 211 443 l 296 443 q 368 683 306 593 q 555 772 429 772 m 555 655 q 468 587 490 655 q 445 376 445 520 q 467 170 445 241 q 555 98 488 98 q 646 170 624 98 q 667 377 667 241 q 643 587 667 519 q 555 655 619 655 z "},"я":{"ha":855,"x_min":57,"x_max":713,"o":"m 57 0 l 239 316 q 107 516 107 378 q 190 690 107 628 q 429 752 273 752 l 713 752 l 713 0 l 553 0 l 553 281 l 385 281 l 231 0 l 57 0 m 425 392 l 553 392 l 553 639 l 426 639 q 274 519 274 639 q 309 422 274 453 q 425 392 345 392 z "},"ђ":{"ha":855,"x_min":21,"x_max":729,"o":"m 286 1070 l 286 958 l 511 958 l 511 849 l 286 849 l 286 662 q 393 743 332 714 q 519 772 454 772 q 677 713 625 772 q 729 548 729 654 l 729 66 q 700 -119 729 -51 q 616 -230 672 -188 q 478 -306 560 -271 l 420 -189 q 502 -142 469 -167 q 553 -74 536 -117 q 570 45 570 -31 l 570 534 q 543 623 570 595 q 462 650 516 650 q 363 616 408 650 q 286 538 317 581 l 286 0 l 127 0 l 127 849 l 21 849 l 21 958 l 127 958 l 127 1053 l 286 1070 z "},"ѡ":{"ha":855,"x_min":31,"x_max":823,"o":"m 750 752 q 800 568 777 672 q 823 342 823 464 q 768 75 823 170 q 605 -19 713 -19 q 486 19 531 -19 q 426 140 441 58 q 249 -19 387 -19 q 85 73 140 -19 q 31 342 31 165 q 53 569 31 464 q 103 752 75 674 l 236 752 q 191 542 202 637 q 179 346 179 447 q 198 169 179 234 q 272 104 217 104 q 344 167 326 104 q 361 330 361 230 l 361 500 l 494 521 l 494 333 q 511 163 494 222 q 584 104 529 104 q 657 169 640 104 q 675 346 675 234 q 662 542 675 447 q 615 752 649 637 l 750 752 z "},"ѣ":{"ha":855,"x_min":71,"x_max":781,"o":"m 341 943 l 341 769 l 531 769 l 514 660 l 341 660 l 341 514 l 430 514 q 689 453 597 514 q 781 260 781 393 q 688 61 781 121 q 444 0 596 0 l 182 0 l 182 660 l 71 660 l 71 769 l 182 769 l 182 925 l 341 943 m 439 399 l 341 399 l 341 118 l 442 118 q 565 147 517 118 q 613 261 613 175 q 568 367 613 335 q 439 399 524 399 z "},"ѥ":{"ha":855,"x_min":90,"x_max":827,"o":"m 236 752 l 236 443 l 321 443 q 368 614 330 539 q 470 730 405 688 q 626 772 535 772 q 734 751 685 772 q 827 690 783 731 l 755 607 q 696 642 726 629 q 627 655 666 655 q 516 600 555 655 q 467 441 478 546 l 720 441 l 720 329 l 467 329 q 514 153 470 207 q 626 100 558 100 q 695 114 665 100 q 751 152 725 127 l 824 70 q 729 4 782 27 q 620 -19 676 -19 q 407 74 485 -19 q 318 324 329 167 l 236 324 l 236 0 l 90 0 l 90 752 l 236 752 z "},"ѧ":{"ha":855,"x_min":41,"x_max":815,"o":"m 525 752 l 815 0 l 659 0 l 558 279 l 486 279 l 486 0 l 363 0 l 363 279 l 292 279 l 194 0 l 41 0 l 332 752 l 525 752 m 425 653 l 333 393 l 518 393 l 425 653 z "},"ѩ":{"ha":855,"x_min":53,"x_max":861,"o":"m 53 0 l 53 752 l 193 752 l 193 390 l 353 390 l 459 752 l 641 752 l 861 0 l 727 0 l 651 278 l 602 278 l 602 0 l 491 0 l 491 278 l 447 278 l 371 0 l 240 0 l 321 278 l 193 278 l 193 0 l 53 0 m 548 655 l 476 390 l 620 390 l 548 655 z "},"ѫ":{"ha":855,"x_min":22,"x_max":833,"o":"m 22 0 l 175 427 l 295 427 l 129 672 l 129 752 l 719 752 l 719 672 l 552 427 l 682 427 l 833 0 l 693 0 l 592 315 l 500 315 l 500 0 l 356 0 l 356 315 l 265 315 l 164 0 l 22 0 m 425 427 l 563 647 l 286 647 l 425 427 z "},"ѭ":{"ha":855,"x_min":31,"x_max":882,"o":"m 31 0 l 31 752 l 170 752 l 170 429 l 426 429 l 280 672 l 280 752 l 811 752 l 811 672 l 665 429 l 754 429 l 882 0 l 747 0 l 665 316 l 616 316 l 616 0 l 485 0 l 485 316 l 434 316 l 351 0 l 216 0 l 313 316 l 170 316 l 170 0 l 31 0 m 548 429 l 667 651 l 428 651 l 548 429 z "},"ѯ":{"ha":855,"x_min":109,"x_max":749,"o":"m 593 1138 l 657 1067 l 462 887 l 360 887 l 163 1067 l 230 1138 l 411 1007 l 593 1138 m 307 -311 q 160 -223 211 -273 q 109 -106 109 -172 q 166 7 109 -35 q 357 71 224 50 q 526 114 476 90 q 577 197 577 139 q 548 269 577 248 q 469 290 520 290 l 229 290 l 229 397 l 509 627 l 113 627 l 113 752 l 707 752 l 707 635 l 413 403 l 499 403 q 681 351 613 403 q 749 195 749 299 q 712 74 749 121 q 608 -1 675 26 q 452 -43 541 -29 q 337 -66 376 -55 q 285 -89 298 -76 q 271 -122 271 -103 q 293 -168 271 -146 q 359 -211 316 -189 l 307 -311 z "},"ѱ":{"ha":855,"x_min":52,"x_max":816,"o":"m 496 752 l 496 105 q 606 146 569 115 q 656 233 643 177 q 670 373 670 289 q 660 552 670 457 q 634 752 651 647 l 778 752 q 806 567 796 661 q 816 363 816 474 q 741 102 816 197 q 496 -13 666 6 l 496 -289 l 360 -307 l 360 -13 q 180 38 248 -3 q 82 142 113 79 q 52 280 52 205 l 52 752 l 197 752 l 197 288 q 234 160 197 204 q 360 105 271 116 l 360 752 l 496 752 z "},"ѳ":{"ha":855,"x_min":88,"x_max":767,"o":"m 428 772 q 680 665 593 772 q 767 377 767 557 q 728 169 767 258 q 612 30 688 80 q 427 -19 536 -19 q 175 87 263 -19 q 88 376 88 194 q 127 582 88 493 q 243 722 167 672 q 428 772 319 772 m 428 650 q 254 436 267 650 l 601 436 q 428 650 587 650 m 601 328 l 253 328 q 305 156 261 209 q 427 103 348 103 q 549 156 505 103 q 601 328 593 209 z "},"ѵ":{"ha":855,"x_min":61,"x_max":842,"o":"m 316 0 l 61 752 l 234 752 l 412 134 l 558 650 q 622 780 582 741 q 737 819 662 819 q 791 813 766 819 q 842 796 817 806 l 804 686 q 763 694 784 694 q 728 680 741 694 q 705 634 715 667 l 506 0 l 316 0 z "},"ѷ":{"ha":855,"x_min":61,"x_max":842,"o":"m 316 0 l 61 752 l 234 752 l 412 134 l 558 650 q 622 780 582 741 q 737 819 662 819 q 791 813 766 819 q 842 796 817 806 l 804 686 q 763 694 784 694 q 728 680 741 694 q 705 634 715 667 l 506 0 l 316 0 z "},"ѹ":{"ha":855,"x_min":-4,"x_max":866,"o":"m 222 -19 q 52 87 107 -19 q -4 376 -4 194 q 21 582 -4 493 q 96 722 46 672 q 223 772 146 772 q 351 723 302 772 q 424 586 401 675 q 447 377 447 497 q 423 169 447 258 q 350 30 400 80 q 222 -19 301 -19 m 434 -308 l 411 -213 q 554 -143 504 -189 q 624 0 604 -98 l 564 0 l 442 752 l 574 752 l 655 111 l 738 752 l 866 752 l 742 6 q 637 -217 718 -143 q 434 -308 557 -291 m 222 85 q 296 154 276 85 q 317 377 317 223 q 297 600 317 531 q 223 669 276 669 q 148 599 170 669 q 127 376 127 530 q 147 154 127 223 q 222 85 168 85 z "},"җ":{"ha":855,"x_min":24,"x_max":865,"o":"m 365 0 l 365 343 l 302 343 l 173 0 l 24 0 l 188 404 l 34 752 l 184 752 l 301 449 l 365 449 l 365 752 l 489 752 l 489 449 l 554 449 l 675 752 l 821 752 l 667 404 l 781 124 l 865 124 l 865 -224 l 758 -224 l 734 0 l 681 0 l 551 343 l 489 343 l 489 0 l 365 0 z "},"ҙ":{"ha":855,"x_min":62,"x_max":747,"o":"m 261 449 l 396 449 q 505 477 466 449 q 543 551 543 505 q 502 628 543 603 q 385 653 460 653 q 269 637 328 653 q 160 590 209 621 l 88 680 q 229 748 148 724 q 393 772 309 772 q 552 749 481 772 q 665 679 623 725 q 707 566 707 634 q 662 461 707 502 q 543 400 617 420 q 688 348 630 391 q 747 222 747 305 q 700 89 747 143 q 573 8 654 36 q 391 -19 493 -19 q 198 10 279 -19 q 62 83 118 40 l 134 180 q 251 123 189 143 q 392 103 313 103 q 531 136 485 103 q 578 225 578 170 q 407 333 578 333 l 251 333 l 261 449 m 472 -202 q 438 -157 472 -168 q 345 -147 405 -147 l 360 23 l 459 23 l 459 -76 q 564 -119 531 -83 q 597 -204 597 -155 q 542 -314 597 -275 q 408 -353 487 -353 q 322 -342 363 -353 q 252 -314 281 -330 l 296 -232 q 390 -256 340 -256 q 449 -244 427 -256 q 472 -202 472 -231 z "},"қ":{"ha":855,"x_min":132,"x_max":842,"o":"m 132 0 l 132 752 l 292 752 l 292 454 l 425 454 l 622 752 l 788 752 l 552 404 l 738 124 l 842 124 l 842 -224 l 717 -224 l 693 0 l 640 0 l 422 338 l 292 338 l 292 0 l 132 0 z "},"ҝ":{"ha":855,"x_min":132,"x_max":820,"o":"m 132 0 l 132 752 l 288 752 l 288 450 l 347 450 l 347 614 l 416 614 l 416 450 l 451 450 l 628 752 l 788 752 l 578 405 l 820 0 l 650 0 l 451 343 l 416 343 l 416 170 l 347 170 l 347 343 l 288 343 l 288 0 l 132 0 z "},"ҟ":{"ha":855,"x_min":41,"x_max":813,"o":"m 545 404 l 813 0 l 632 0 l 415 338 l 313 338 l 313 0 l 154 0 l 154 807 l 41 807 l 41 916 l 154 916 l 154 1054 l 313 1072 l 313 916 l 511 916 l 511 807 l 313 807 l 313 454 l 418 454 l 615 752 l 781 752 l 545 404 z "},"ҡ":{"ha":855,"x_min":7,"x_max":843,"o":"m 175 0 l 175 634 l 7 634 l 7 752 l 334 752 l 334 454 l 453 454 l 645 752 l 812 752 l 580 404 l 843 0 l 663 0 l 449 338 l 334 338 l 334 0 l 175 0 z "},"ң":{"ha":855,"x_min":103,"x_max":815,"o":"m 545 0 l 545 322 l 263 322 l 263 0 l 103 0 l 103 752 l 263 752 l 263 446 l 545 446 l 545 752 l 704 752 l 704 124 l 815 124 l 815 -224 l 689 -224 l 665 0 l 545 0 z "},"ҥ":{"ha":855,"x_min":102,"x_max":861,"o":"m 501 0 l 501 322 l 261 322 l 261 0 l 102 0 l 102 752 l 261 752 l 261 446 l 501 446 l 501 752 l 861 752 l 841 628 l 661 628 l 661 0 l 501 0 z "},"ԥ":{"ha":855,"x_min":115,"x_max":827,"o":"m 558 0 l 558 628 l 275 628 l 275 0 l 115 0 l 115 752 l 717 752 l 717 124 l 827 124 l 827 -224 l 702 -224 l 677 0 l 558 0 z "},"ҧ":{"ha":855,"x_min":35,"x_max":854,"o":"m 35 0 l 35 752 l 521 752 l 521 444 q 585 482 550 469 q 668 496 621 496 q 802 439 749 496 q 854 289 854 383 l 854 -72 q 792 -249 854 -188 q 629 -309 729 -309 q 528 -292 570 -309 q 457 -252 487 -275 l 517 -160 q 562 -182 540 -173 q 618 -190 583 -190 q 681 -167 657 -190 q 704 -90 704 -144 l 704 283 q 625 377 704 377 q 569 367 593 377 q 521 336 544 356 l 521 0 l 370 0 l 370 632 l 185 632 l 185 0 l 35 0 z "},"ҩ":{"ha":855,"x_min":75,"x_max":798,"o":"m 672 -185 q 525 -9 583 -85 q 429 -19 479 -19 q 240 28 319 -19 q 118 163 160 75 q 75 370 75 250 q 117 580 75 489 q 236 721 159 670 q 422 772 314 772 q 600 728 524 772 l 543 616 q 489 637 516 630 q 429 644 462 644 q 294 578 345 644 q 244 373 244 513 q 295 170 244 231 q 437 109 347 109 q 446 109 442 109 q 384 307 384 217 q 438 455 384 395 q 592 514 493 514 q 740 460 683 514 q 798 308 798 405 q 755 154 798 228 q 635 34 713 80 q 759 -117 682 -29 l 672 -185 m 516 308 q 527 227 516 268 q 566 137 539 186 q 639 209 615 163 q 662 313 662 255 q 644 383 662 358 q 591 407 625 407 q 535 380 554 407 q 516 308 516 353 z "},"ҫ":{"ha":855,"x_min":118,"x_max":749,"o":"m 489 112 q 588 130 542 112 q 675 177 633 149 l 749 75 q 657 18 709 41 q 548 -14 605 -6 q 629 -89 600 -46 q 659 -187 659 -132 q 607 -306 659 -261 q 466 -350 555 -350 q 384 -340 419 -350 q 323 -315 349 -330 l 360 -227 q 399 -244 376 -236 q 454 -251 422 -251 q 516 -230 496 -251 q 536 -175 536 -209 q 512 -94 536 -135 q 433 -16 489 -53 q 200 104 283 -1 q 118 373 118 209 q 162 577 118 487 q 288 720 206 667 q 487 772 371 772 q 748 682 638 772 l 675 581 q 584 628 630 612 q 490 644 538 644 q 344 578 400 644 q 288 373 288 513 q 345 172 288 231 q 489 112 402 112 z "},"ҭ":{"ha":855,"x_min":81,"x_max":782,"o":"m 617 124 l 617 -224 l 491 -224 l 468 0 l 348 0 l 348 627 l 81 627 l 81 752 l 782 752 l 764 627 l 507 627 l 507 124 l 617 124 z "},"ү":{"ha":855,"x_min":64,"x_max":791,"o":"m 350 -307 l 350 17 l 64 752 l 235 752 l 431 160 l 627 752 l 791 752 l 505 17 l 505 -289 l 350 -307 z "},"ұ":{"ha":855,"x_min":64,"x_max":791,"o":"m 350 -307 l 350 -5 l 205 -5 l 205 103 l 316 103 l 64 752 l 235 752 l 431 160 l 627 752 l 791 752 l 538 103 l 650 103 l 650 -5 l 505 -5 l 505 -289 l 350 -307 z "},"ҳ":{"ha":855,"x_min":61,"x_max":808,"o":"m 238 0 l 61 0 l 331 397 l 91 752 l 275 752 l 429 487 l 583 752 l 758 752 l 523 403 l 711 124 l 808 124 l 808 -224 l 683 -224 l 660 0 l 606 0 l 422 307 l 238 0 z "},"ҵ":{"ha":855,"x_min":0,"x_max":796,"o":"m 796 124 l 796 -224 l 674 -224 l 650 0 l 157 0 l 157 639 l 0 639 l 0 752 l 474 752 l 453 639 l 312 639 l 312 125 l 556 125 l 556 752 l 711 752 l 711 124 l 796 124 z "},"ҷ":{"ha":855,"x_min":87,"x_max":812,"o":"m 812 124 l 812 -224 l 687 -224 l 662 0 l 543 0 l 543 304 q 442 246 501 268 q 314 225 383 225 q 145 285 202 225 q 87 451 87 345 l 87 752 l 246 752 l 246 470 q 276 375 246 404 q 364 347 306 347 q 462 366 412 347 q 543 419 511 386 l 543 752 l 702 752 l 702 124 l 812 124 z "},"ҹ":{"ha":855,"x_min":101,"x_max":717,"o":"m 439 560 l 439 355 q 505 380 474 363 q 557 419 536 396 l 557 752 l 717 752 l 717 0 l 557 0 l 557 304 q 439 241 509 261 l 439 125 l 359 125 l 359 226 q 328 225 343 225 q 159 285 217 225 q 101 451 101 345 l 101 752 l 261 752 l 261 470 q 286 381 261 410 q 359 348 311 352 l 359 560 l 439 560 z "},"һ":{"ha":855,"x_min":128,"x_max":727,"o":"m 128 0 l 128 1053 l 288 1070 l 288 582 q 382 660 327 631 q 507 689 437 689 q 668 628 610 689 q 727 457 727 567 l 727 0 l 568 0 l 568 440 q 540 540 568 511 q 462 568 511 568 q 363 537 405 568 q 288 459 322 507 l 288 0 l 128 0 z "},"ԧ":{"ha":855,"x_min":120,"x_max":829,"o":"m 120 0 l 120 1053 l 280 1070 l 280 582 q 374 660 319 631 q 499 689 429 689 q 661 628 602 689 q 719 457 719 567 l 719 124 l 829 124 l 829 -224 l 704 -224 l 680 0 l 560 0 l 560 440 q 532 540 560 511 q 453 568 504 568 q 355 537 397 568 q 280 459 314 507 l 280 0 l 120 0 z "},"ҽ":{"ha":855,"x_min":12,"x_max":801,"o":"m 359 325 q 414 155 363 208 q 540 103 465 103 q 630 118 593 103 q 702 157 667 134 l 772 67 q 671 6 730 32 q 536 -19 611 -19 q 303 75 385 -19 q 209 325 220 170 q 63 374 113 327 q 12 498 12 420 q 28 576 12 542 q 63 640 44 610 l 155 598 q 137 552 145 575 q 130 503 130 530 q 201 434 130 434 l 210 434 q 257 607 219 531 q 360 728 296 684 q 512 772 425 772 q 726 672 652 772 q 801 396 801 571 q 800 358 801 377 q 798 325 799 339 l 359 325 m 513 656 q 406 602 447 656 q 358 434 365 548 l 654 434 q 513 656 650 656 z "},"ҿ":{"ha":855,"x_min":12,"x_max":801,"o":"m 359 325 q 414 155 363 208 q 540 103 465 103 q 630 118 593 103 q 702 157 667 134 l 772 67 q 671 6 730 32 q 536 -19 611 -19 q 303 75 385 -19 q 209 325 220 170 q 63 374 113 327 q 12 498 12 420 q 28 576 12 542 q 63 640 44 610 l 155 598 q 137 552 145 575 q 130 503 130 530 q 201 434 130 434 l 210 434 q 257 607 219 531 q 360 728 296 684 q 512 772 425 772 q 726 672 652 772 q 801 396 801 571 q 800 358 801 377 q 798 325 799 339 l 359 325 m 513 656 q 406 602 447 656 q 358 434 365 548 l 654 434 q 513 656 650 656 m 631 55 l 652 0 q 545 -56 582 -29 q 494 -108 508 -83 q 481 -161 481 -134 q 561 -229 481 -229 q 603 -227 584 -229 q 645 -219 622 -224 l 631 -329 q 590 -337 610 -334 q 543 -340 570 -340 q 406 -297 459 -340 q 354 -186 354 -255 q 426 -41 354 -97 q 631 55 497 16 z "},"ӏ":{"ha":855,"x_min":71,"x_max":731,"o":"m 457 1054 l 457 205 q 489 131 457 153 q 571 110 521 110 q 633 116 603 110 q 690 135 662 123 l 731 24 q 649 -6 697 6 q 537 -19 600 -19 q 361 45 424 -19 q 298 219 298 109 l 298 937 l 71 937 l 71 1054 l 457 1054 z "},"ӂ":{"ha":855,"x_min":14,"x_max":840,"o":"m 365 0 l 365 343 l 302 343 l 164 0 l 14 0 l 188 404 l 25 752 l 175 752 l 301 449 l 365 449 l 365 752 l 489 752 l 489 449 l 554 449 l 684 752 l 830 752 l 667 404 l 840 0 l 690 0 l 551 343 l 489 343 l 489 0 l 365 0 m 426 902 q 271 954 330 902 q 202 1085 211 1005 l 301 1105 q 426 1019 326 1019 q 553 1105 528 1019 l 652 1085 q 582 954 643 1005 q 426 902 521 902 z "},"ӄ":{"ha":855,"x_min":132,"x_max":735,"o":"m 132 0 l 132 752 l 292 752 l 292 434 l 385 434 l 575 752 l 735 752 l 534 429 q 675 360 625 417 q 725 199 725 302 l 725 -68 q 662 -248 725 -187 q 491 -309 599 -309 q 391 -292 432 -309 q 319 -252 349 -275 l 380 -156 q 425 -177 403 -169 q 480 -185 447 -185 q 542 -162 519 -185 q 566 -83 566 -138 l 566 193 q 536 290 566 261 q 439 318 506 318 l 292 318 l 292 0 l 132 0 z "},"ӆ":{"ha":855,"x_min":41,"x_max":812,"o":"m 812 134 l 700 -224 l 570 -224 l 622 0 l 530 0 l 530 628 l 338 628 l 325 470 q 302 261 316 343 q 264 127 288 179 q 202 43 239 76 q 108 -21 165 9 l 41 81 q 89 120 68 98 q 125 180 110 142 q 153 286 141 219 q 173 463 165 353 l 195 752 l 689 752 l 689 134 l 812 134 z "},"ӈ":{"ha":855,"x_min":127,"x_max":728,"o":"m 494 -309 q 394 -292 435 -309 q 322 -252 352 -275 l 383 -156 q 428 -177 407 -169 q 483 -185 449 -185 q 545 -162 522 -185 q 568 -83 568 -138 l 568 322 l 286 322 l 286 0 l 127 0 l 127 752 l 286 752 l 286 446 l 568 446 l 568 752 l 728 752 l 728 -68 q 665 -248 728 -187 q 494 -309 603 -309 z "},"ӊ":{"ha":855,"x_min":126,"x_max":816,"o":"m 536 0 l 536 322 l 286 322 l 286 0 l 126 0 l 126 752 l 286 752 l 286 446 l 536 446 l 536 752 l 695 752 l 695 134 l 816 134 l 704 -224 l 574 -224 l 627 0 l 536 0 z "},"ӌ":{"ha":855,"x_min":101,"x_max":717,"o":"m 454 124 l 557 124 l 557 326 q 456 269 516 291 q 328 248 397 248 q 159 308 217 248 q 101 474 101 368 l 101 752 l 261 752 l 261 493 q 291 398 261 426 q 378 370 321 370 q 476 389 426 370 q 557 441 526 408 l 557 752 l 717 752 l 717 0 l 603 0 l 579 -224 l 454 -224 l 454 124 z "},"ӎ":{"ha":855,"x_min":58,"x_max":860,"o":"m 860 134 l 748 -224 l 630 -224 l 682 0 l 607 0 l 585 325 q 579 460 580 390 q 578 618 577 530 l 473 124 l 338 124 l 219 618 q 222 465 223 539 q 217 324 220 391 l 200 0 l 58 0 l 110 752 l 299 752 l 407 258 l 503 752 l 699 752 l 742 134 l 860 134 z "},"ӑ":{"ha":855,"x_min":80,"x_max":759,"o":"m 702 184 q 715 120 702 140 q 759 90 729 100 l 723 -19 q 627 12 667 -12 q 567 85 587 36 q 462 7 526 33 q 327 -19 399 -19 q 146 45 212 -19 q 80 214 80 110 q 172 397 80 333 q 437 462 265 462 l 545 462 l 545 511 q 501 616 545 584 q 377 647 457 647 q 288 638 340 647 q 177 608 235 628 l 138 721 q 276 760 209 747 q 402 772 344 772 q 627 705 553 772 q 702 520 702 638 l 702 184 m 375 98 q 470 124 424 98 q 545 196 516 150 l 545 362 l 457 362 q 296 324 344 362 q 247 222 247 287 q 375 98 247 98 m 415 902 q 259 954 319 902 q 191 1085 199 1005 l 289 1105 q 415 1019 315 1019 q 542 1105 516 1019 l 640 1085 q 571 954 632 1005 q 415 902 510 902 z "},"ӓ":{"ha":855,"x_min":80,"x_max":759,"o":"m 702 184 q 715 120 702 140 q 759 90 729 100 l 723 -19 q 627 12 667 -12 q 567 85 587 36 q 462 7 526 33 q 327 -19 399 -19 q 146 45 212 -19 q 80 214 80 110 q 172 397 80 333 q 437 462 265 462 l 545 462 l 545 511 q 501 616 545 584 q 377 647 457 647 q 288 638 340 647 q 177 608 235 628 l 138 721 q 276 760 209 747 q 402 772 344 772 q 627 705 553 772 q 702 520 702 638 l 702 184 m 375 98 q 470 124 424 98 q 545 196 516 150 l 545 362 l 457 362 q 296 324 344 362 q 247 222 247 287 q 375 98 247 98 m 263 917 q 196 943 223 917 q 170 1008 170 969 q 196 1072 170 1046 q 263 1098 223 1098 q 328 1072 301 1098 q 355 1008 355 1046 q 328 943 355 969 q 263 917 301 917 m 570 917 q 505 943 531 917 q 478 1008 478 969 q 505 1072 478 1046 q 570 1098 531 1098 q 636 1072 609 1098 q 663 1008 663 1046 q 636 943 663 969 q 570 917 609 917 z "},"ӕ":{"ha":855,"x_min":-9,"x_max":860,"o":"m 615 772 q 803 673 746 772 q 860 396 860 573 q 858 328 860 358 l 489 328 q 536 155 499 210 q 641 99 572 99 q 711 113 680 99 q 776 152 742 127 l 843 58 q 750 2 800 24 q 635 -19 700 -19 q 505 14 558 -19 q 413 111 452 46 q 324 11 370 41 q 207 -19 278 -19 q 50 46 108 -19 q -9 216 -9 110 q 67 397 -9 334 q 291 460 142 460 l 353 460 l 353 511 q 319 622 353 587 q 224 657 286 657 q 157 649 187 657 q 81 620 126 640 l 42 723 q 141 759 93 746 q 239 772 189 772 q 365 740 321 772 q 432 656 409 709 q 501 741 455 709 q 615 772 548 772 m 610 657 q 525 607 553 657 q 489 432 496 558 l 724 432 q 698 600 722 544 q 610 657 675 657 m 353 363 l 303 363 q 178 325 213 363 q 142 224 142 287 q 167 127 142 160 q 233 94 191 94 q 305 123 274 94 q 365 210 336 152 q 353 363 353 283 z "},"ӗ":{"ha":855,"x_min":94,"x_max":761,"o":"m 259 325 q 324 157 266 209 q 464 105 382 105 q 567 122 519 105 q 662 170 614 139 l 731 75 q 608 6 678 32 q 457 -19 537 -19 q 258 31 339 -19 q 136 170 177 80 q 94 375 94 259 q 135 578 94 489 q 254 720 177 667 q 437 772 330 772 q 674 672 587 772 q 761 396 761 571 q 760 358 761 377 q 758 325 759 339 l 259 325 m 439 654 q 315 600 364 654 q 259 434 266 547 l 607 434 q 562 597 605 540 q 439 654 519 654 m 439 902 q 283 954 343 902 q 215 1085 224 1005 l 313 1105 q 439 1019 339 1019 q 566 1105 541 1019 l 665 1085 q 595 954 656 1005 q 439 902 534 902 z "},"ә":{"ha":855,"x_min":88,"x_max":766,"o":"m 417 772 q 615 723 538 772 q 729 584 692 673 q 766 377 766 496 q 725 170 766 259 q 607 31 684 80 q 420 -19 530 -19 q 177 80 267 -19 q 88 357 88 179 q 89 393 88 375 q 92 428 90 412 l 603 428 q 548 597 596 544 q 412 650 500 650 q 307 634 355 650 q 212 580 259 618 l 142 679 q 262 747 194 722 q 417 772 330 772 m 420 102 q 552 151 506 102 q 603 319 599 200 l 241 319 l 241 309 q 289 156 243 210 q 420 102 335 102 z "},"ӛ":{"ha":855,"x_min":88,"x_max":766,"o":"m 417 772 q 615 723 538 772 q 729 584 692 673 q 766 377 766 496 q 725 170 766 259 q 607 31 684 80 q 420 -19 530 -19 q 177 80 267 -19 q 88 357 88 179 q 89 393 88 375 q 92 428 90 412 l 603 428 q 548 597 596 544 q 412 650 500 650 q 307 634 355 650 q 212 580 259 618 l 142 679 q 262 747 194 722 q 417 772 330 772 m 420 102 q 552 151 506 102 q 603 319 599 200 l 241 319 l 241 309 q 289 156 243 210 q 420 102 335 102 m 279 917 q 213 943 239 917 q 186 1008 186 969 q 213 1072 186 1046 q 279 1098 239 1098 q 344 1072 318 1098 q 371 1008 371 1046 q 344 943 371 969 q 279 917 318 917 m 586 917 q 521 943 548 917 q 494 1008 494 969 q 521 1072 494 1046 q 586 1098 548 1098 q 652 1072 625 1098 q 679 1008 679 1046 q 652 943 679 969 q 586 917 625 917 z "},"ӝ":{"ha":855,"x_min":14,"x_max":840,"o":"m 365 0 l 365 343 l 302 343 l 164 0 l 14 0 l 188 404 l 25 752 l 175 752 l 301 449 l 365 449 l 365 752 l 489 752 l 489 449 l 554 449 l 684 752 l 830 752 l 667 404 l 840 0 l 690 0 l 551 343 l 489 343 l 489 0 l 365 0 m 274 917 q 207 943 234 917 q 180 1008 180 969 q 207 1072 180 1046 q 274 1098 234 1098 q 339 1072 312 1098 q 365 1008 365 1046 q 339 943 365 969 q 274 917 312 917 m 580 917 q 515 943 542 917 q 489 1008 489 969 q 515 1072 489 1046 q 580 1098 542 1098 q 647 1072 620 1098 q 674 1008 674 1046 q 647 943 674 969 q 580 917 620 917 z "},"ӟ":{"ha":855,"x_min":62,"x_max":747,"o":"m 261 449 l 396 449 q 505 477 466 449 q 543 551 543 505 q 502 628 543 603 q 385 653 460 653 q 269 637 328 653 q 160 590 209 621 l 88 680 q 229 748 148 724 q 393 772 309 772 q 552 749 481 772 q 665 679 623 725 q 707 566 707 634 q 662 461 707 502 q 543 400 617 420 q 688 348 630 391 q 747 222 747 305 q 700 89 747 143 q 573 8 654 36 q 391 -19 493 -19 q 198 10 279 -19 q 62 83 118 40 l 134 180 q 251 123 189 143 q 392 103 313 103 q 531 136 485 103 q 578 225 578 170 q 407 333 578 333 l 251 333 l 261 449 m 261 916 q 194 942 221 916 q 167 1006 167 968 q 194 1071 167 1045 q 261 1097 221 1097 q 326 1071 299 1097 q 353 1006 353 1045 q 326 942 353 968 q 261 916 299 916 m 568 916 q 502 942 529 916 q 476 1006 476 968 q 502 1071 476 1045 q 568 1097 529 1097 q 634 1071 607 1097 q 661 1006 661 1045 q 634 942 661 968 q 568 916 607 916 z "},"ӡ":{"ha":855,"x_min":74,"x_max":751,"o":"m 240 295 l 534 627 l 119 627 l 119 752 l 714 752 l 714 637 l 408 297 l 423 297 q 660 226 568 297 q 751 14 751 156 q 706 -152 751 -80 q 580 -266 661 -225 q 392 -307 499 -307 q 204 -274 278 -307 q 74 -181 130 -240 l 160 -93 q 260 -160 208 -138 q 387 -182 312 -182 q 529 -133 476 -182 q 582 13 582 -83 q 527 147 582 108 q 374 187 472 187 l 240 187 l 240 295 z "},"ӣ":{"ha":855,"x_min":127,"x_max":728,"o":"m 728 752 l 728 0 l 573 0 l 573 309 q 580 464 573 391 q 597 593 586 537 l 305 0 l 127 0 l 127 752 l 281 752 l 281 442 q 275 290 281 365 q 257 162 269 214 l 547 752 l 728 752 m 628 953 l 226 953 l 226 1069 l 628 1069 l 628 953 z "},"ӥ":{"ha":855,"x_min":127,"x_max":728,"o":"m 728 752 l 728 0 l 573 0 l 573 309 q 580 464 573 391 q 597 593 586 537 l 305 0 l 127 0 l 127 752 l 281 752 l 281 442 q 275 290 281 365 q 257 162 269 214 l 547 752 l 728 752 m 274 917 q 207 943 234 917 q 180 1008 180 969 q 207 1072 180 1046 q 274 1098 234 1098 q 339 1072 312 1098 q 365 1008 365 1046 q 339 943 365 969 q 274 917 312 917 m 580 917 q 515 943 542 917 q 489 1008 489 969 q 515 1072 489 1046 q 580 1098 542 1098 q 647 1072 620 1098 q 674 1008 674 1046 q 647 943 674 969 q 580 917 620 917 z "},"ӧ":{"ha":855,"x_min":88,"x_max":767,"o":"m 428 772 q 680 665 593 772 q 767 377 767 557 q 728 169 767 258 q 612 30 688 80 q 427 -19 536 -19 q 175 87 263 -19 q 88 376 88 194 q 127 582 88 493 q 243 722 167 672 q 428 772 319 772 m 428 648 q 298 582 342 648 q 255 376 255 516 q 298 170 255 236 q 427 104 341 104 q 557 170 514 104 q 600 377 600 236 q 557 582 600 516 q 428 648 514 648 m 274 917 q 207 943 234 917 q 180 1008 180 969 q 207 1072 180 1046 q 274 1098 234 1098 q 339 1072 312 1098 q 365 1008 365 1046 q 339 943 365 969 q 274 917 312 917 m 580 917 q 515 943 542 917 q 489 1008 489 969 q 515 1072 489 1046 q 580 1098 542 1098 q 647 1072 620 1098 q 674 1008 674 1046 q 647 943 674 969 q 580 917 620 917 z "},"ө":{"ha":855,"x_min":88,"x_max":767,"o":"m 428 772 q 680 665 593 772 q 767 377 767 557 q 728 169 767 258 q 612 30 688 80 q 427 -19 536 -19 q 175 87 263 -19 q 88 376 88 194 q 127 582 88 493 q 243 722 167 672 q 428 772 319 772 m 428 650 q 254 436 267 650 l 601 436 q 428 650 587 650 m 601 328 l 253 328 q 305 156 261 209 q 427 103 348 103 q 549 156 505 103 q 601 328 593 209 z "},"ӫ":{"ha":855,"x_min":88,"x_max":767,"o":"m 428 772 q 680 665 593 772 q 767 377 767 557 q 728 169 767 258 q 612 30 688 80 q 427 -19 536 -19 q 175 87 263 -19 q 88 376 88 194 q 127 582 88 493 q 243 722 167 672 q 428 772 319 772 m 428 650 q 254 436 267 650 l 601 436 q 428 650 587 650 m 601 328 l 253 328 q 305 156 261 209 q 427 103 348 103 q 549 156 505 103 q 601 328 593 209 m 275 917 q 208 943 235 917 q 182 1008 182 969 q 208 1072 182 1046 q 275 1098 235 1098 q 340 1072 313 1098 q 367 1008 367 1046 q 340 943 367 969 q 275 917 313 917 m 582 917 q 517 943 543 917 q 490 1008 490 969 q 517 1072 490 1046 q 582 1098 543 1098 q 648 1072 621 1098 q 675 1008 675 1046 q 648 943 675 969 q 582 917 621 917 z "},"ӭ":{"ha":855,"x_min":118,"x_max":749,"o":"m 395 772 q 591 723 512 772 q 709 585 670 673 q 749 378 749 496 q 707 171 749 261 q 583 31 665 81 q 384 -19 502 -19 q 239 4 307 -19 q 118 73 172 27 l 192 168 q 381 105 278 105 q 522 157 468 105 q 585 329 576 209 l 259 329 l 259 441 l 583 441 q 523 599 573 548 q 388 650 472 650 q 198 588 284 650 l 126 684 q 395 772 238 772 m 269 917 q 203 943 229 917 q 176 1008 176 969 q 203 1072 176 1046 q 269 1098 229 1098 q 334 1072 308 1098 q 361 1008 361 1046 q 334 943 361 969 q 269 917 308 917 m 576 917 q 511 943 538 917 q 484 1008 484 969 q 511 1072 484 1046 q 576 1098 538 1098 q 642 1072 615 1098 q 670 1008 670 1046 q 642 943 670 969 q 576 917 615 917 z "},"ӯ":{"ha":855,"x_min":70,"x_max":785,"o":"m 785 752 l 526 -3 q 451 -154 496 -88 q 334 -259 405 -219 q 157 -308 263 -298 l 137 -188 q 258 -153 213 -176 q 330 -92 303 -130 q 377 0 357 -55 l 323 0 l 70 752 l 239 752 l 429 111 l 621 752 l 785 752 m 628 953 l 226 953 l 226 1069 l 628 1069 l 628 953 z "}}}
